<svg xmlns="http://www.w3.org/2000/svg" viewBox="0 0 480 480"><path d="M472 408h-16V64c0-2.128-.84-4.16-2.344-5.656l-56-56A7.965 7.965 0 0 0 392 0H216c-4.424 0-8 3.576-8 8v104H64c-22.056 0-40 17.944-40 40v256H8c-4.424 0-8 3.576-8 8v24c0 22.056 17.944 40 40 40h400c22.056 0 40-17.944 40-40v-24c0-4.424-3.576-8-8-8zM400 27.312L428.688 56H400V27.312zM224 160V16h160v48c0 4.424 3.576 8 8 8h48v248H224V160zm-8 176h184v40H80V168h128v160c0 4.424 3.576 8 8 8zM40 152c0-13.232 10.768-24 24-24h144v24H72c-4.424 0-8 3.576-8 8v224c0 4.424 3.576 8 8 8h336c4.424 0 8-3.576 8-8v-48h24v72H304c-2.128 0-4.16.84-5.656 2.344L292.688 416H187.312l-5.656-5.656A7.965 7.965 0 0 0 176 408H40V152zm424 288c0 13.232-10.768 24-24 24H40c-13.232 0-24-10.768-24-24v-16h156.688l5.656 5.656A7.965 7.965 0 0 0 184 432h112c2.128 0 4.16-.84 5.656-2.344l5.656-5.656H464v16z"/><path d="M96 192h40v16H96zm56 0h40v16h-40zm-56 32h96v16H96zm0 32h24v16H96zm40 0h56v16h-56zm-40 32h48v16H96zm64 0h32v16h-32zm-64 32h16v16H96zm32 0h64v16h-64zM296 64h-48c-4.424 0-8 3.576-8 8v48c0 4.424 3.576 8 8 8h48c4.424 0 8-3.576 8-8V72c0-4.424-3.576-8-8-8zm-8 48h-32V80h32v32zm8 32h-48c-4.424 0-8 3.576-8 8v48c0 4.424 3.576 8 8 8h48c4.424 0 8-3.576 8-8v-48c0-4.424-3.576-8-8-8zm-8 48h-32v-32h32v32zm8 32h-48c-4.424 0-8 3.576-8 8v48c0 4.424 3.576 8 8 8h48c4.424 0 8-3.576 8-8v-48c0-4.424-3.576-8-8-8zm-8 48h-32v-32h32v32zm74.344-197.656L336 100.688l-10.344-10.344-11.312 11.312 16 16A7.978 7.978 0 0 0 336 120a7.978 7.978 0 0 0 5.656-2.344l32-32-11.312-11.312zm0 80L336 180.688l-10.344-10.344-11.312 11.312 16 16A7.978 7.978 0 0 0 336 200a7.978 7.978 0 0 0 5.656-2.344l32-32-11.312-11.312zm0 80L336 260.688l-10.344-10.344-11.312 11.312 16 16A7.978 7.978 0 0 0 336 280a7.978 7.978 0 0 0 5.656-2.344l32-32-11.312-11.312zM80 80h16v16H80zm0-32h16v16H80zm0-32h16v16H80zm32 0h16v16h-16zm32 0h16v16h-16zm32 0h16v16h-16z"/></svg>