<svg xmlns="http://www.w3.org/2000/svg" viewBox="0 0 480 480"><path d="M232 0h16v48h-16zm154.333 82.353l39.993-39.993 11.313 11.314-39.993 39.993zM42.34 53.655L53.656 42.34l39.992 39.993-11.313 11.314zm-.007 372.65l39.993-39.993 11.313 11.314-39.992 39.993zm408.059-208.209A63.638 63.638 0 0 0 456 192c0-35.288-28.712-64-64-64-4.104 0-8.192.4-12.232 1.192C370.44 104.584 346.896 88 320 88a63.638 63.638 0 0 0-26.096 5.608C282.256 75.392 261.896 64 240 64s-42.256 11.392-53.904 29.608A63.638 63.638 0 0 0 160 88c-26.896 0-50.44 16.584-59.768 41.192A63.521 63.521 0 0 0 88 128c-35.288 0-64 28.712-64 64 0 9.008 1.92 17.888 5.608 26.096C11.392 229.752 0 250.104 0 272c0 35.288 28.712 64 64 64h122.808c-1.744 3.648-2.808 7.688-2.808 12 0 7.84 3.256 14.912 8.464 20-5.208 5.088-8.464 12.16-8.464 20s3.256 14.912 8.464 20c-5.208 5.088-8.464 12.16-8.464 20 0 14.424 11.008 26.2 25.04 27.704C212.512 469.616 225.024 480 240 480s27.488-10.384 30.96-24.296C284.992 454.2 296 442.424 296 428c0-7.84-3.256-14.912-8.464-20 5.208-5.088 8.464-12.16 8.464-20s-3.256-14.912-8.464-20c5.208-5.088 8.464-12.16 8.464-20 0-4.312-1.064-8.352-2.808-12H336.4c4.024 40.368 38.184 72 79.6 72 4.424 0 8-3.584 8-8v-64.496c31.52-3.952 56-30.928 56-63.504 0-21.896-11.392-42.248-29.608-53.904zM240 464c-5.896 0-11-3.24-13.776-8h27.552c-2.776 4.76-7.88 8-13.776 8zm28-24h-56c-6.616 0-12-5.384-12-12s5.384-12 12-12h56c6.616 0 12 5.384 12 12s-5.384 12-12 12zm0-40h-56c-6.616 0-12-5.384-12-12s5.384-12 12-12h56c6.616 0 12 5.384 12 12s-5.384 12-12 12zm0-40h-56c-6.616 0-12-5.384-12-12s5.384-12 12-12h56c6.616 0 12 5.384 12 12s-5.384 12-12 12zm-61.6-125.776c1.552 1.528 3.576 2.296 5.6 2.296s4.048-.768 5.6-2.296C226.888 225.112 232 212.96 232 200c0-2.208-.2-4.384-.496-6.536a86.65 86.65 0 0 0-.224-1.52c-.36-2.12-.816-4.208-1.448-6.248-.048-.16-.12-.312-.168-.472-.616-1.904-1.376-3.752-2.224-5.56-.216-.456-.424-.904-.648-1.352-.96-1.872-2.016-3.704-3.216-5.448-.048-.072-.08-.152-.136-.224 9.904-6.056 23.232-6.056 33.144 0-.048.072-.08.152-.136.224-1.208 1.744-2.264 3.576-3.216 5.448-.232.448-.44.896-.648 1.352-.848 1.808-1.608 3.656-2.224 5.56-.048.16-.12.312-.168.472-.632 2.032-1.088 4.128-1.448 6.248-.088.504-.16 1.008-.224 1.52-.32 2.152-.52 4.328-.52 6.536 0 12.96 5.112 25.112 14.4 34.224a7.962 7.962 0 0 0 5.6 2.296 7.962 7.962 0 0 0 5.6-2.296C282.888 225.112 288 212.96 288 200c0-2.208-.2-4.384-.496-6.536a86.65 86.65 0 0 0-.224-1.52c-.36-2.12-.816-4.208-1.448-6.248-.048-.16-.12-.312-.168-.472-.616-1.904-1.376-3.752-2.224-5.56-.216-.456-.424-.904-.648-1.352-.96-1.872-2.016-3.704-3.216-5.448-.048-.072-.08-.152-.136-.224 11.992-7.32 28.68-5.552 38.968 4.544C324.584 183.272 328 191.376 328 200v19.72l-68.44 45.624A8.01 8.01 0 0 0 256 272v48h-32v-48a8.01 8.01 0 0 0-3.56-6.656L152 219.728V200c0-17.648 14.352-32 32-32 5.92 0 11.616 1.616 16.568 4.648-.048.072-.08.152-.128.224-1.208 1.744-2.264 3.576-3.216 5.448-.232.448-.44.896-.648 1.352-.848 1.808-1.608 3.656-2.224 5.56-.048.16-.12.312-.168.472-.632 2.032-1.088 4.128-1.448 6.248-.088.504-.16 1.008-.224 1.52-.312 2.144-.512 4.32-.512 6.528 0 12.96 5.112 25.112 14.4 34.224zM208 200c0-1.92.232-3.808.56-5.656.072-.416.152-.84.24-1.248.4-1.8.92-3.56 1.616-5.248.096-.24.232-.464.336-.696.352-.792.832-1.528 1.248-2.296.416.768.896 1.504 1.248 2.296.104.224.232.448.336.688.696 1.696 1.216 3.456 1.616 5.248.088.416.168.832.24 1.256.328 1.856.56 3.736.56 5.656s-.232 3.8-.56 5.656c-.072.424-.152.84-.24 1.256-.4 1.8-.92 3.56-1.616 5.248-.096.232-.224.456-.328.688-.352.8-.832 1.536-1.248 2.296-.416-.768-.896-1.504-1.248-2.296-.104-.232-.232-.464-.336-.696-.696-1.696-1.216-3.456-1.616-5.248a34.267 34.267 0 0 1-.24-1.248c-.336-1.848-.568-3.736-.568-5.656zm56 0c0-1.92.232-3.808.56-5.656.072-.416.152-.84.24-1.248.4-1.8.92-3.56 1.616-5.248.096-.24.232-.464.336-.696.352-.792.832-1.528 1.248-2.296.416.768.896 1.504 1.248 2.296.104.224.232.448.336.688.696 1.696 1.216 3.456 1.616 5.248.088.416.168.832.24 1.256.328 1.856.56 3.736.56 5.656s-.232 3.8-.56 5.656c-.072.424-.152.84-.24 1.256-.4 1.8-.92 3.56-1.616 5.248-.096.232-.224.456-.328.688-.352.8-.832 1.536-1.248 2.296-.416-.768-.896-1.504-1.248-2.296-.104-.232-.232-.464-.336-.696-.696-1.696-1.216-3.456-1.616-5.248a34.267 34.267 0 0 1-.24-1.248c-.336-1.848-.568-3.736-.568-5.656zm152 120c-4.424 0-8 3.584-8 8v63.504c-31.52-3.952-56-30.928-56-63.504 0-4.416-3.576-8-8-8h-72v-43.72l68.44-45.624A8.01 8.01 0 0 0 344 224v-24c0-12.96-5.112-25.112-14.4-34.224l-5.6 5.704 5.6-5.712C320.552 156.888 308.624 152 296 152c-10.176 0-19.872 3.224-28 9.112-8.128-5.888-17.824-9.112-28-9.112-10.176 0-19.872 3.224-28 9.112-8.128-5.888-17.824-9.112-28-9.112-26.472 0-48 21.528-48 48v24.008a8.01 8.01 0 0 0 3.56 6.656L208 276.28V320H64c-26.472 0-48-21.528-48-48 0-18.52 10.88-35.576 27.736-43.456a8.012 8.012 0 0 0 4.272-4.952 8.03 8.03 0 0 0-.848-6.496C42.48 209.504 40 200.824 40 192c0-26.472 21.528-48 48-48 5.088 0 10.168.832 15.096 2.464a7.952 7.952 0 0 0 6.4-.6 8.01 8.01 0 0 0 3.896-5.12C118.6 119.112 137.768 104 160 104c8.832 0 17.504 2.472 25.104 7.152a7.97 7.97 0 0 0 6.496.848 8.021 8.021 0 0 0 4.952-4.28C204.416 90.88 221.48 80 240 80s35.584 10.88 43.456 27.728a8.045 8.045 0 0 0 4.952 4.28 7.983 7.983 0 0 0 6.496-.848c7.592-4.688 16.264-7.16 25.096-7.16 22.232 0 41.4 15.112 46.608 36.744a8.01 8.01 0 0 0 3.896 5.12 7.926 7.926 0 0 0 6.4.6C381.832 144.832 386.912 144 392 144c26.472 0 48 21.528 48 48 0 8.824-2.48 17.504-7.16 25.096a8.022 8.022 0 0 0-.848 6.496 7.992 7.992 0 0 0 4.272 4.952C453.12 236.424 464 253.48 464 272c0 26.472-21.528 48-48 48z"/><path d="M144 352h16v16h-16zm-32 0h16v16h-16zm-32 0h16v16H80z"/></svg>