<svg xmlns="http://www.w3.org/2000/svg" viewBox="0 0 480 480"><path d="M360 16H40c-4.424 0-8 3.584-8 8v24H8c-4.424 0-8 3.584-8 8v368c0 22.056 17.944 40 40 40h288c4.424 0 8-3.584 8-8v-24h24c4.424 0 8-3.584 8-8V24c0-4.416-3.576-8-8-8zm-40 408v24H40c-13.232 0-24-10.768-24-24V64h240v56c0 4.416 3.576 8 8 8h56v296zm-48-312V75.32L308.688 112H272zm80 304h-16V120c0-.168-.088-.312-.096-.48a7.804 7.804 0 0 0-.432-2.128c-.088-.256-.152-.512-.264-.752-.384-.824-.864-1.592-1.528-2.264-.016-.016-.016-.024-.032-.04l-63.984-63.992c-.008-.008-.024-.016-.032-.024-.664-.656-1.44-1.136-2.256-1.52-.256-.12-.528-.192-.8-.28a7.767 7.767 0 0 0-2.048-.416c-.184-.008-.336-.104-.528-.104H48V32h304v384z"/><path d="M48 112h176v16H48zm0 32h176v16H48zm32 40c-17.648 0-32 14.352-32 32s14.352 32 32 32 32-14.352 32-32-14.352-32-32-32zm0 48c-8.824 0-16-7.176-16-16s7.176-16 16-16 16 7.176 16 16-7.176 16-16 16zm0 40c-17.648 0-32 14.352-32 32s14.352 32 32 32 32-14.352 32-32-14.352-32-32-32zm0 48c-8.824 0-16-7.176-16-16s7.176-16 16-16 16 7.176 16 16-7.176 16-16 16zm0 40c-17.648 0-32 14.352-32 32s14.352 32 32 32 32-14.352 32-32-14.352-32-32-32zm0 48c-8.824 0-16-7.176-16-16s7.176-16 16-16 16 7.176 16 16-7.176 16-16 16zm56-200h152v16H136zm0 88h152v16H136zm0 88h152v16H136zM448 24c-17.648 0-32 14.352-32 32v352c0 1.24.288 2.472.84 3.576l24 48A8.009 8.009 0 0 0 448 464c3.032 0 5.8-1.712 7.16-4.424l24-48A8.019 8.019 0 0 0 480 408V56c0-17.648-14.352-32-32-32zm0 414.112L436.944 416h22.112L448 438.112zM464 400h-32V128h32v272zm0-288h-32V96h32v16zm0-32h-32V56c0-8.824 7.176-16 16-16s16 7.176 16 16v24z"/></svg>