<svg xmlns="http://www.w3.org/2000/svg" viewBox="0 0 480 480"><path d="M384 0c-13.232 0-24 10.768-24 24s10.768 24 24 24 24-10.768 24-24-10.768-24-24-24zm0 32c-4.408 0-8-3.584-8-8s3.592-8 8-8c4.408 0 8 3.584 8 8s-3.592 8-8 8zm-21.663 66.347l96-96 11.314 11.313-96 96zM448 64c-13.232 0-24 10.768-24 24s10.768 24 24 24 24-10.768 24-24-10.768-24-24-24zm0 32c-4.408 0-8-3.584-8-8s3.592-8 8-8c4.408 0 8 3.584 8 8s-3.592 8-8 8zm24 32h-48c-4.416 0-8 3.576-8 8v328h-40V200c0-4.424-3.584-8-8-8h-48c-4.416 0-8 3.576-8 8v264h-40V264c0-4.424-3.584-8-8-8h-48c-4.416 0-8 3.576-8 8v200h-40V328c0-4.424-3.584-8-8-8h-48c-4.416 0-8 3.576-8 8v136H64v-72c0-4.424-3.584-8-8-8H8c-4.416 0-8 3.576-8 8v88h480V136c0-4.424-3.584-8-8-8zM48 464H16v-64h32v64zm104 0h-32V336h32v128zm104 0h-32V272h32v192zm104 0h-32V208h32v256zm104 0h-32V144h32v320z"/><path d="M352 112h-48v16h28.688L240 220.688l-34.344-34.344a7.991 7.991 0 0 0-11.312 0l-168 168 11.312 11.312L200 203.312l34.344 34.344a7.991 7.991 0 0 0 11.312 0L344 139.312V168h16v-48c0-4.424-3.584-8-8-8z"/></svg>