<svg xmlns="http://www.w3.org/2000/svg" viewBox="0 0 512 512"><path d="M319.388 96.359c-5.523 0-10 4.477-10 10v61.849c0 18.781-15.279 34.061-34.061 34.061-5.523 0-10 4.477-10 10s4.477 10 10 10c29.809 0 54.061-24.251 54.061-54.061v-61.849c0-5.523-4.478-10-10-10z"/><path d="M432.865 44.212h-51.518v-24.23c5.353-.193 9.636-4.582 9.636-9.982 0-5.523-4.477-10-10-10H129.314c-5.523 0-10 4.477-10 10s4.477 10 10 10h1.903v24.212H79.133c-23.163 0-42.007 17.218-42.007 38.383v30.338c0 48.773 42.071 88.889 95.346 92.645 6.73 39.735 39.905 70.591 80.728 73.756a197.537 197.537 0 0 1 4.742 44.602 197.678 197.678 0 0 1-4.688 41.096h-16.119c-11.03 0-20.004 8.974-20.004 20.004v69.553h-8.689c-20.212 0-36.656 16.444-36.656 36.656V502c0 5.523 4.477 10 10 10h228.996c5.523 0 10-4.477 10-10v-10.754c0-20.212-16.444-36.656-36.656-36.656h-8.689v-69.553c0-11.03-8.974-20.004-20.005-20.004h-16.438a168.822 168.822 0 0 1-5.502-41.109 168.732 168.732 0 0 1 5.553-44.566c40.986-3.029 74.328-33.964 81.058-73.826 53.002-4.003 94.772-44.002 94.772-92.599V82.595c-.004-21.165-18.848-38.383-42.01-38.383zm-117.43 340.825v69.553h-59.152c-5.523 0-10 4.477-10 10s4.477 10 10 10h87.842c9.184 0 16.656 7.472 16.656 16.656V492H151.785v-.754c0-9.184 7.472-16.656 16.656-16.656h31.16c5.523 0 10-4.477 10-10s-4.477-10-10-10h-2.47l.004-69.558 118.3.005zm-81.724-105.434h44.664a188.707 188.707 0 0 0-4.885 44.51 188.8 188.8 0 0 0 4.885 40.918h-44.664a217.608 217.608 0 0 0 4.23-40.931 217.683 217.683 0 0 0-4.23-44.497zm127.634-88.92c.001 38.003-30.917 68.921-68.92 68.921h-72.288c-38.003 0-68.921-30.918-68.921-68.921 0-5.523-4.477-10-10-10-3.634 0-6.805 1.944-8.556 4.843-42.321-3.524-75.536-34.731-75.536-72.593V82.595c0-10.136 9.872-18.383 22.007-18.383h52.085v51.217c0 5.523 4.477 10 10 10s10-4.477 10-10V20h210.129v170.683zm93.526-77.75c0 37.26-32.17 68.063-73.525 72.393V64.212h51.518c12.135 0 22.007 8.247 22.007 18.383v30.338z"/><circle cx="140.649" cy="155.11" r="10"/><circle cx="319.388" cy="68.949" r="10"/></svg>