<svg xmlns="http://www.w3.org/2000/svg" viewBox="0 0 480 480"><path d="M474.128 64.288l-232-64a8.006 8.006 0 0 0-4.256 0l-232 64C2.4 65.248 0 68.4 0 72s2.4 6.752 5.872 7.712L112 108.984v94.624C86.24 233.992 72 272.312 72 312c0 38 12.832 72.976 34.184 101.152.08.12.096.272.184.384.448.592.936 1.144 1.392 1.728 1.472 1.88 2.944 3.752 4.496 5.568a167.419 167.419 0 0 0 7.584 8.336c1.176 1.208 2.384 2.368 3.592 3.536 3.008 2.92 6.08 5.752 9.272 8.424.216.176.408.368.624.544 3.96 3.28 8.08 6.312 12.296 9.2l.864.6c4.376 2.96 8.88 5.688 13.496 8.208.008.008.016.008.024.016a165.452 165.452 0 0 0 45.384 16.672l1.624.336a167.29 167.29 0 0 0 15.16 2.32c.64.064 1.288.104 1.928.168 5.248.496 10.544.808 15.896.808s10.648-.312 15.896-.808c.64-.064 1.288-.096 1.928-.168a167.29 167.29 0 0 0 15.16-2.32c.544-.112 1.08-.216 1.624-.336a165.712 165.712 0 0 0 45.384-16.672c.008-.008.016-.008.024-.016 4.616-2.52 9.12-5.248 13.496-8.208.288-.192.576-.4.864-.6 4.216-2.888 8.336-5.92 12.296-9.2.216-.176.408-.368.624-.544 3.192-2.672 6.264-5.504 9.272-8.424 1.208-1.168 2.416-2.336 3.592-3.536 2.6-2.688 5.136-5.464 7.584-8.336 1.552-1.816 3.024-3.688 4.496-5.568.456-.584.944-1.136 1.392-1.728.088-.112.104-.264.184-.384C395.168 384.976 408 350 408 312c0-39.688-14.24-78.008-40-108.392v-94.624l64-17.656v67.216l-23.496 62.648a7.996 7.996 0 0 0 1.832 8.464l24 24A8.01 8.01 0 0 0 440 256a7.978 7.978 0 0 0 5.656-2.344l24-24a7.996 7.996 0 0 0 1.832-8.464L448 158.544V86.92l26.128-7.208C477.6 78.752 480 75.6 480 72s-2.4-6.752-5.872-7.712zM121.752 216.744l61.648 16.44c-9.12 24.096-14.208 47.84-15.176 70.816h-79.88c1.688-31.792 13.28-62.32 33.408-87.256zM184.208 304c.984-21.536 5.896-43.904 14.688-66.68l39.04 10.408c.68.184 1.376.272 2.064.272s1.384-.088 2.064-.272l39.04-10.408c8.792 22.776 13.704 45.144 14.688 66.68H184.208zm111.504 16c-.824 18.072-4.28 35.392-9.272 51.384C271.584 369.176 255.968 368 240 368s-31.584 1.176-46.44 3.384c-4.992-15.992-8.448-33.312-9.272-51.384h111.424zm-11.88-99.968h-.008L240 231.72l-43.832-11.688h-.008L128 201.856V113.4l109.872 30.312a8.025 8.025 0 0 0 4.256 0L352 113.4v88.456l-68.168 18.176zM114.656 397.808C99.296 375.44 89.912 348.752 88.408 320h79.936c.792 19.152 4.184 37.416 9.24 54.232-24.488 5.08-46.216 13.12-62.928 23.576zm95.36 63.2c-.32-.072-.648-.128-.968-.192a151.42 151.42 0 0 1-13.88-3.576c-.192-.064-.392-.12-.584-.176a151.118 151.118 0 0 1-13.656-5.008c-.024-.008-.056-.024-.08-.032-13.12-5.568-25.264-12.968-36.2-21.816-.656-.536-1.328-1.048-1.976-1.592-2.832-2.368-5.536-4.88-8.192-7.448a175.036 175.036 0 0 1-3.656-3.656 148.98 148.98 0 0 1-6.232-6.856c-.04-.048-.088-.096-.128-.144 15.384-9.352 35.528-16.448 58.224-20.96 12.024 32.44 28.8 58.32 39.88 73.376-4.232-.488-8.432-1.096-12.552-1.92zm29.984-1.68c-9.384-12.136-27.84-38.496-41-72.496 13.144-1.792 26.872-2.832 41-2.832s27.856 1.04 41 2.832c-13.168 34-31.616 60.36-41 72.496zm115.408-48.688a140.89 140.89 0 0 1-6.232 6.864 157.534 157.534 0 0 1-3.656 3.656c-2.656 2.568-5.36 5.08-8.192 7.448-.648.544-1.32 1.056-1.976 1.592-10.936 8.84-23.08 16.248-36.2 21.816-.024.008-.056.024-.08.032a151.118 151.118 0 0 1-13.656 5.008c-.192.064-.392.12-.584.176a148.232 148.232 0 0 1-13.88 3.576c-.32.064-.648.12-.968.184-4.12.832-8.32 1.432-12.552 1.92 11.08-15.056 27.856-40.928 39.88-73.376 22.696 4.52 42.84 11.608 58.224 20.96-.04.048-.088.096-.128.144zm9.944-12.84c-16.72-10.456-38.44-18.488-62.928-23.576 5.056-16.816 8.456-35.08 9.24-54.232H391.6c-1.512 28.76-10.896 55.448-26.248 77.808zm26.304-93.8h-79.88c-.96-22.976-6.048-46.72-15.176-70.816l61.648-16.44C378.376 241.68 389.96 272.2 391.656 304zM240 127.704L38.08 72 240 16.296 441.92 72 240 127.704zm214.696 94.28L440 236.688l-14.696-14.704 14.696-39.2 14.696 39.2z"/><path d="M232 64h16v16h-16z"/></svg>