<svg xmlns="http://www.w3.org/2000/svg" viewBox="0 0 512 512"><g fill="#0084ff"><path d="M498.642 228.585H13.358l87.198-98.667h310.888z"/><path d="M13.358 228.585L256 502l242.642-273.415"/></g><g fill="#00c3ff"><path d="M160.899 228.585L256 502l95.101-273.415"/><path d="M100.556 129.918l60.343 98.667L256 129.918l95.101 98.667 60.343-98.667"/></g><path d="M506.135 221.963l-87.197-98.667a10 10 0 0 0-7.493-3.378H100.556a10 10 0 0 0-7.493 3.378L5.865 221.963a10.001 10.001 0 0 0 .954 14.185c.021.023.037.049.058.073l241.642 272.415a9.999 9.999 0 0 0 14.962 0l241.642-272.415c.021-.023.038-.049.058-.073a10.001 10.001 0 0 0 .954-14.185zM256 146.102l72.054 72.483H183.946L256 146.102zm-93.272 65.46l-44.441-71.644h115.661l-71.22 71.644zm115.324-71.645h115.661l-44.441 71.644-71.22-71.644zm-124.165 98.668l81.636 225.261L35.709 238.585h118.178zm174.085 57.625c-5.183-1.916-10.933.733-12.846 5.914l-59.035 159.777-80.931-223.316h301.131L276.848 463.428l57.038-154.372c1.914-5.181-.734-10.932-5.914-12.846zm40.479-77.625l44.545-71.811 63.463 71.811H368.451zM99.004 146.774l44.545 71.811H35.541l63.463-71.811zM256 71.513c5.522 0 10-4.477 10-10V10c0-5.523-4.478-10-10-10s-10 4.477-10 10v51.513c0 5.523 4.478 10 10 10zm47.565 21.507a9.972 9.972 0 0 0 7.071-2.929l36.426-36.425c3.905-3.905 3.905-10.237 0-14.142s-10.235-3.905-14.143 0l-36.426 36.425c-3.905 3.905-3.905 10.237 0 14.142a9.972 9.972 0 0 0 7.072 2.929zm-104.149-2.929c1.953 1.953 4.512 2.929 7.071 2.929s5.118-.977 7.071-2.929c3.905-3.905 3.905-10.237 0-14.142l-36.425-36.425c-3.904-3.905-10.234-3.905-14.143 0-3.905 3.905-3.905 10.237 0 14.142l36.426 36.425z"/><circle cx="337.43" cy="268.36" r="10"/></svg>