<svg xmlns="http://www.w3.org/2000/svg" viewBox="0 0 511.999 511.999"><path d="M87.988 259.471l165.21 165.21c7.946 7.946 20.828 7.946 28.774 0 7.946-7.946 7.946-20.828 0-28.774l-10.5-10.5 10.101 10.101c8.166 8.166 21.405 8.166 29.571 0 8.325-8.325 8.139-21.877-.411-29.971l-21.787-20.625 20.01 18.942c9.558 9.048 24.673 8.518 33.574-1.177 8.54-9.303 8.233-23.683-.697-32.613l-20.846-20.846L341.769 330c8.857 8.857 23.217 8.857 32.074 0 8.899-8.899 8.851-23.341-.107-32.181l-120.04-118.453h-40.637l-22.473-22.473L87.988 259.471z" fill="#ffd41d"/><g fill="#ff991f"><path d="M322.11 159.976l-19.393 19.393h-52.559l-56.563 56.563c-8.576 8.576-8.576 22.48 0 31.057 8.576 8.576 22.48 8.576 31.057 0l36.467-36.467 44.913.492 67.702 66.805 45.05-41.191-96.674-96.652z"/><circle cx="149.46" cy="320.928" r="24.188"/><circle cx="183.781" cy="355.12" r="24.188"/><circle cx="217.842" cy="389.351" r="24.188"/></g><path d="M130.923 80.023L9.831 201.115l59.255 59.255c4.978 4.978 13.049 4.978 18.027 0l103.064-103.064c4.978-4.978 4.978-13.049 0-18.027l-59.254-59.256z" fill="#92e03f"/><path d="M380.732 80.043l121.092 121.092-59.254 59.255c-4.978 4.978-13.049 4.978-18.027 0L321.478 157.326c-4.978-4.978-4.978-13.049 0-18.027l59.254-59.256z" fill="#0084ff"/><path d="M509.07 194.061L414.3 99.29c-3.906-3.905-10.24-3.906-14.148 0-3.906 3.906-3.906 10.24 0 14.148l87.697 87.696-51.274 51.273a4.03 4.03 0 0 1-5.695 0L329.63 151.158a4.031 4.031 0 0 1 0-5.696l34.411-34.412c3.906-3.906 3.906-10.24 0-14.147-3.907-3.906-10.239-3.906-14.148 0l-34.411 34.411c-7.128 7.129-8.818 17.655-5.1 26.412l-11.638 11.638h-81.369l-14.682-14.682c.564-2.058.862-4.201.862-6.392 0-6.42-2.501-12.456-7.04-16.995l-33.481-33.481c-3.907-3.906-10.239-3.906-14.148 0-3.906 3.906-3.906 10.24 0 14.148l33.482 33.481a4.012 4.012 0 0 1 1.18 2.847c0 .622-.153 1.821-1.181 2.848l-2.786 2.786-98.495 98.471c-.032.032-.059.067-.09.099a4.026 4.026 0 0 1-2.727 1.073 4.01 4.01 0 0 1-2.848-1.179L24.15 201.114l88.876-88.875c3.906-3.906 3.906-10.24 0-14.147s-10.238-3.906-14.148 0L2.93 194.041c-3.906 3.906-3.906 10.24 0 14.147l58.346 58.348c4.687 4.686 10.841 7.028 16.995 7.028a24.1 24.1 0 0 0 8.329-1.507l32.843 32.843a33.966 33.966 0 0 0-4 16.025c0 18.853 15.338 34.191 34.191 34.191l.126-.003v.006c0 18.811 15.269 34.119 34.064 34.188l-.001.044c0 18.853 15.338 34.191 34.191 34.191 5.8 0 11.265-1.456 16.055-4.015l12.227 12.227c5.732 5.732 13.354 8.889 21.46 8.889 8.107 0 15.729-3.157 21.46-8.889 5.427-5.427 8.546-12.548 8.862-20.171 7.392-.368 14.678-3.368 20.311-9.002 5.952-5.952 9.166-13.866 9.051-22.282l-.001-.053c8.703-.54 16.71-4.354 22.631-10.805 5.951-6.482 8.896-14.656 8.87-22.81 8.37-.241 16.201-3.613 22.146-9.559 6.202-6.201 9.603-14.447 9.573-23.218a32.537 32.537 0 0 0-3.49-14.608l32.81-30a23.992 23.992 0 0 0 13.749 4.335c6.154 0 12.309-2.343 16.995-7.027l58.346-58.347c3.907-3.906 3.907-10.24.001-14.146zm-206.181-4.689c2.653 0 5.197-1.054 7.073-2.93l13.328-13.328 82.237 82.237-31.359 28.674-60.938-60.131-.003-.003-.088-.087a9.977 9.977 0 0 0-8.201-2.808l-43.539-.477a10.03 10.03 0 0 0-7.183 2.929l-36.467 36.468c-2.259 2.259-5.262 3.502-8.455 3.502s-6.196-1.243-8.455-3.502c-2.259-2.258-3.502-5.261-3.502-8.455s1.243-6.197 3.502-8.456l53.633-53.633h48.417zM135.45 320.925c0-7.821 6.363-14.184 14.185-14.184s14.185 6.363 14.185 14.184c0 7.822-6.363 14.185-14.185 14.185s-14.185-6.363-14.185-14.185zm48.5 48.38c-7.821 0-14.184-6.363-14.184-14.185s6.362-14.185 14.184-14.185 14.185 6.363 14.185 14.185c0 3.623-1.376 6.922-3.619 9.431a35.08 35.08 0 0 0-1.192 1.186c-2.504 2.212-5.78 3.568-9.374 3.568zm19.88 20.047c0-3.623 1.376-6.922 3.619-9.431a35.08 35.08 0 0 0 1.192-1.186c2.502-2.212 5.779-3.566 9.373-3.566 7.821 0 14.185 6.363 14.185 14.185 0 3.836-1.537 7.315-4.019 9.871-.046.044-.095.082-.14.127-.05.05-.091.104-.139.154a14.127 14.127 0 0 1-9.885 4.032c-7.823-.002-14.186-6.365-14.186-14.186zm163.11-66.425c-2.395 2.394-5.577 3.712-8.963 3.712s-6.568-1.318-8.963-3.711l-20.782-20.783c-3.906-3.906-10.238-3.906-14.148 0-3.906 3.906-3.906 10.24 0 14.147l20.781 20.782.002.001.063.063a13.54 13.54 0 0 1 .401 18.774 13.467 13.467 0 0 1-9.522 4.385 13.454 13.454 0 0 1-9.805-3.707l-20.011-18.942c-4.013-3.798-10.344-3.625-14.142.388-3.798 4.012-3.625 10.343.387 14.142l21.787 20.625a10.823 10.823 0 0 1 3.408 7.772 10.82 10.82 0 0 1-3.193 7.862c-4.251 4.253-11.173 4.252-15.424 0l-10.101-10.101c-3.907-3.906-10.239-3.906-14.148 0-1.953 1.954-2.93 4.513-2.93 7.073s.977 5.121 2.93 7.073l10.5 10.5a10.275 10.275 0 0 1 3.03 7.313c0 2.763-1.076 5.36-3.03 7.313a10.274 10.274 0 0 1-7.313 3.029 10.273 10.273 0 0 1-7.313-3.03l-12.235-12.235a33.964 33.964 0 0 0 3.997-16.019c0-18.811-15.27-34.119-34.065-34.188l.001-.044c0-18.853-15.338-34.191-34.191-34.191-.042 0-.083.003-.125.003v-.006c0-18.853-15.338-34.19-34.191-34.19a33.971 33.971 0 0 0-16.049 4.012l-31.265-31.264 88.44-88.441 15.399 15.4a10.004 10.004 0 0 0 7.073 2.93h12.948l-39.486 39.486c-6.037 6.037-9.361 14.065-9.361 22.603 0 8.538 3.324 16.565 9.361 22.602 6.037 6.038 14.065 9.362 22.603 9.362 8.538 0 16.566-3.325 22.603-9.362l33.491-33.492 36.665.402 64.825 63.967a12.585 12.585 0 0 1 3.772 8.982 12.582 12.582 0 0 1-3.711 9.003z"/><circle cx="438.336" cy="205.74" r="9.983"/><circle cx="72.644" cy="206.74" r="9.983"/><circle cx="131.064" cy="82.139" r="9.983"/><circle cx="380.757" cy="81.338" r="9.983"/></svg>