<svg width="500" height="500" xmlns="http://www.w3.org/2000/svg" display="block"><g fill-rule="evenodd"><path d="M45.6 139.2v33.6H60v-53.6h52.8v-13.6H45.6v33.6m129.6-26.8v6.8h53.6v53.6h13.6v-67.2h-67.2v6.8M45.6 268.8v33.6h67.2v-13.6H60v-53.6H45.6v33.6m183.2-6.8v26.8h-53.6v13.6h67.2v-67.2h-13.6V262m-120.408 70.336c-1.096 1.095-2.047 2.818-2.114 3.828-.067 1.01-.205 2.196-.308 2.636-.102.44-.227 1.43-.278 2.2-.055.836-.737 1.4-1.692 1.4-1.363 0-1.6.533-1.6 3.6 0 3.098.229 3.6 1.643 3.6 1.562 0 1.639.428 1.554 8.6-.05 4.73-.069 9.23-.044 10 .039 1.173.827 1.4 4.847 1.4h4.8v-20h9.212l-.287-3.6-.286-3.6h-4.32c-4.05 0-4.319-.122-4.319-1.96 0-2.739 1.929-3.531 7.394-3.035l4.709.427-.251-3.516-.252-3.516-8.208-.228c-7.828-.218-8.301-.136-10.2 1.764m25.146.402c-1.903 1.904-2.338 3.02-2.338 6 0 3.373-.158 3.662-2 3.662-2.897 0-3.086 6.934-.2 7.344 1.74.248 1.807.58 2.025 10.056l.224 9.8 4.576.002 4.575.001-.256-8.125c-.367-11.658-.273-11.878 5.071-11.878h4.385v-7.2h-4.4c-4.136 0-4.4-.118-4.4-1.96 0-2.733 1.927-3.531 7.342-3.04l4.658.422V330.4h-8.462c-8.285 0-8.51.049-10.8 2.338m-125.673-.314c-4.589 2.492-5.383 15.22-1.21 19.397 2.09 2.092 2.559 2.19 11.761 2.446l9.584.267v3.435c0 5.259-.751 5.546-12.817 4.89L4.8 362.295v7.065l7.323.52c22.804 1.619 25.991.028 25.35-12.657-.46-9.101-1.928-10.285-13.271-10.69-9.332-.333-10.602-.821-10.602-4.071 0-3.644 1.168-4.062 11.36-4.062h9.44v-7.2l-12.2.032c-9.091.024-12.744.328-14.335 1.192M172 350.4v19.2h9.6v-11.2h8.84c12.712 0 14.833-1.342 15.176-9.6.444-10.706.124-12.783-2.354-15.262l-2.339-2.338H172v19.2m74.402-2.201c.513 21.668.61 21.899 9.303 22.129l5.895.156v-3.991c0-3.919-.048-3.996-2.6-4.242l-2.6-.251-.217-15.4-.218-15.4-4.982-.001-4.983-.002.402 17.002M45.206 336.767c-.359 2.121-1.042 3.327-2.071 3.654-2.252.714-2.199 6.419.065 7.011 1.48.387 1.6 1.091 1.6 9.355 0 12.22 1.335 13.798 11.371 13.446L62.8 370l.246-3.4.246-3.4h-3.948c-5.334 0-5.86-.841-5.578-8.922L54 347.6l3.4-.246c4.51-.326 5.522-6.554 1.065-6.554-4.022 0-4.865-.708-4.865-4.086V333.6h-7.859l-.535 3.167m150.766 3.18c3.587 6.704.341 11.253-8.029 11.253H181.6v-12.8h6.772c5.876 0 6.881.205 7.6 1.547M67.999 353.4c.001 11.877.137 13.136 1.581 14.58 2.963 2.963 10.632 3.228 15.997.551 3.246-1.619 3.223-1.618 3.223-.131 0 .921 1.022 1.2 4.4 1.2h4.4v-28.8h-9.554l-.223 10.583-.223 10.582-3.814.638c-6.681 1.119-6.986.623-6.986-11.357v-10.298l-4.401-.274-4.401-.274.001 13m146.693-12.464c-3.175 1.537-3.892 4.272-3.892 14.855v9.942l2.613 2.333c4.059 3.626 21.421 3.623 25.049-.004 4.347-4.348 3.29-25.042-1.388-27.174-2.445-1.114-20.061-1.076-22.382.048m46.107.071c0 .334 1.408 3.934 3.128 8 1.72 4.066 4.24 10.041 5.6 13.277 3.719 8.849 3.307 10.516-2.598 10.516-2.52 0-2.538.029-2.254 3.6l.286 3.6h4.796c5.503 0 8.52-1.422 10.643-5.016 1.219-2.063 13.201-34.333 12.894-34.726-.061-.077-2.317.059-5.015.304l-4.904.444-2.68 8.7c-3.063 9.946-3.391 10.113-5.994 3.062a6260.21 6260.21 0 0 0-3.144-8.499l-1.237-3.331-4.761-.269c-2.619-.148-4.761.004-4.76.338m42.623-.281c-7.64.727-8.554 2.017-8.896 12.549-.448 13.765 1.608 16.12 13.292 15.222l6.69-.515-.254 2.209L314 372.4h-17.6l-.074 3.291-.074 3.291 6.474.504c12.377.964 15.832.7 18.474-1.413l2.4-1.919.243-17.677.244-17.677h-6.778c-3.728 0-7.258-.123-7.844-.274-.586-.15-3.305-.06-6.043.2m28.516 1.612l-2.338 2.339v10.417c0 14.492.269 14.802 13.194 15.176 16.195.47 16.406.275 16.406-15.106 0-15.307.136-15.164-14.425-15.164h-10.498l-2.339 2.338m46.462-1.051c-2.072.906-3.161 1.002-4.189.369-.764-.471-3.014-.856-5-.856H365.6v28.8h8.8v-9.902c0-11.17.116-11.415 5.735-12.186 5.736-.786 6.265.239 6.265 12.145v9.943h8.8v-24.923l-2.338-2.339c-2.744-2.743-9.473-3.233-14.462-1.051m-146.566 12.991c.281 8.045-.256 8.922-5.467 8.922-6.324 0-6.367-.054-6.367-7.952 0-8.382-.17-8.171 6.366-7.881l5.234.233.234 6.678M314 354.4v6.8h-9.6l-.237-5.874c-.297-7.394.344-8.279 5.766-7.963l4.071.237v6.8m36 .8v7.6l-4.667.242c-6.373.33-6.933-.298-6.933-7.78 0-7.61.508-8.2 6.793-7.895l4.807.233v7.6"/><path d="M113.084 112.4c-.002 3.96.133 5.681.301 3.824.167-1.857.169-5.097.004-7.2-.165-2.103-.303-.584-.305 3.376M49.4 173.386c1.87.168 4.93.168 6.8 0 1.87-.169.34-.306-3.4-.306-3.74 0-5.27.137-3.4.306m182.824.003c2.103.165 5.343.163 7.2-.004 1.857-.168.136-.303-3.824-.301-3.96.002-5.479.14-3.376.305M49 234.988c2.09.165 5.51.165 7.6 0s.38-.3-3.8-.3-5.89.135-3.8.3m183.224.001c2.103.165 5.343.163 7.2-.004 1.857-.168.136-.303-3.824-.301-3.96.002-5.479.14-3.376.305M86.169 288.6l26.569.221.267 6.99.266 6.989.164-7.4.165-7.4-27 .189-27 .189 26.569.222m101.98-.002c7.342.132 19.582.133 27.2.001 7.618-.132 1.611-.24-13.349-.24s-21.193.108-13.851.239M12.426 330.359c-.285.46 4.055.853 11.052 1 8.966.187 11.436.019 11.136-.759-.468-1.215-21.446-1.443-22.188-.241m114.7-.159c-.041.33-.015 2.105.057 3.945.126 3.222.033 3.357-2.526 3.672l-2.657.327 3 .128 3 .128V334c0-3.601-.585-6.142-.874-3.8m44.464 1.2c-.243.99-.34 10.08-.216 20.2l.226 18.4 5.2.067 5.2.068-5-.306-5-.305V331.2h13.247c8.628 0 13.075-.279 12.753-.8-1.181-1.911-25.927-.974-26.41 1m74.41-1c-.31.502 1.458.8 4.753.8 2.965 0 5.247-.348 5.247-.8 0-.444-2.118-.8-4.753-.8-2.614 0-4.975.36-5.247.8m-.073 18.162c.058 13.418.306 17.178 1.19 18 .929.862.996.835.4-.162-.394-.66-.93-8.76-1.19-18l-.474-16.8.074 16.962M49.356 333.388l4.156.293.304 3.359.304 3.36.14-3.8.14-3.8-4.6.148-4.6.148 4.156.292m55.93 3.077c-.668 1.74-.61 3.535.114 3.533.33 0 .676-1.08.768-2.4.185-2.65-.14-3.067-.882-1.133M118 337.6c.272.44 1.283.794 2.247.788 1.425-.01 1.529-.158.553-.788-1.576-1.019-3.429-1.019-2.8 0m25.6 0c.272.44 1.283.794 2.247.788 1.425-.01 1.529-.158.553-.788-1.576-1.019-3.429-1.019-2.8 0m5.4.551c.77.202 2.03.202 2.8 0 .77-.201.14-.365-1.4-.365s-2.17.164-1.4.365m56.818 2.649c0 1.98.156 2.79.347 1.8.19-.99.19-2.61 0-3.6-.191-.99-.347-.18-.347 1.8m16.011-1.008c2.546.159 6.506.158 8.8-.003 2.294-.161.211-.292-4.629-.29-4.84.002-6.717.134-4.171.293m118.4 0c2.546.159 6.506.158 8.8-.003 2.294-.161.211-.292-4.629-.29-4.84.002-6.717.134-4.171.293m43.982-.018c1.216.184 3.016.179 4-.011s-.011-.34-2.211-.334c-2.2.006-3.005.161-1.789.345M40.8 344c0 3.443.219 4 1.572 4 1.444 0 1.593.67 1.831 8.2l.26 8.2.168-8.275c.157-7.676.053-8.305-1.431-8.693-1.855-.485-2.352-6.195-.6-6.902.597-.241.436-.429-.4-.467-1.155-.052-1.4.637-1.4 3.937m17-3.417c4.973.52 4.625 6.407-.4 6.771l-3.4.246-.234 6.678c-.286 8.188.221 8.967 5.732 8.792l4.102-.131-4.4-.469-4.4-.47-.231-7-.231-7H61.6v-8l-3.4.134-3.4.135 3 .314m9.133-.05c-.779.779-.543 21.183.267 23.067.425.988.709-3.216.744-11 .031-6.93-.064-12.6-.211-12.6-.146 0-.506.24-.8.533m5.667.057l4.2.294v10.311c0 5.671.27 10.478.6 10.683.33.205.491-4.634.358-10.753L77.516 340l-4.558.148-4.558.148 4.2.294m17.6-.011c1.43.177 3.77.177 5.2 0 1.43-.178.26-.323-2.6-.323-2.86 0-4.03.145-2.6.323m175.383-.006c2.41.178 4.687.752 5.06 1.275.474.664.581.589.355-.248-.239-.884-1.573-1.22-5.061-1.275l-4.737-.075 4.383.323m19.428.001c1.216.184 3.016.179 4-.011s-.011-.34-2.211-.334c-2.2.006-3.005.161-1.789.345m17.6 0c1.216.184 3.016.179 4-.011s-.011-.34-2.211-.334c-2.2.006-3.005.161-1.789.345m10.389.014c2.09.165 5.51.165 7.6 0s.38-.3-3.8-.3-5.89.135-3.8.3m52.155.44c-.217.566-.295 7.316-.175 15L365.2 370l5 .238 5 .238-.174-10.638-.174-10.638-.25 10.2-.25 10.2H365.6v-28.948l4.401.274c2.421.151 4.401.004 4.4-.326-.002-1.087-8.821-.678-9.246.428M196.24 344.8c0 2.42.15 3.41.333 2.2.183-1.21.183-3.19 0-4.4-.183-1.21-.333-.22-.333 2.2m-94.322 1.2c.07 3.411.317 4.012 1.682 4.079 1.132.055 1.203-.018.242-.251-.974-.235-1.45-1.389-1.682-4.078l-.323-3.75.081 4m22.082-.447c0 1.734.36 3.375.8 3.647.489.302.8-.925.8-3.153 0-2.006-.36-3.647-.8-3.647-.44 0-.8 1.419-.8 3.153m25.734.207l-.134 3.76-4.6.289-4.6.288 4.625.152c5.217.17 5.668-.28 5.163-5.165-.306-2.961-.324-2.934-.454.676m209.491 9.44c0 7.264.253 10.407.775 9.6.427-.66.775-4.98.775-9.6 0-4.62-.348-8.94-.775-9.6-.522-.807-.775 2.336-.775 9.6m-153.407-6.4c0 1.98.156 2.79.347 1.8.19-.99.19-2.61 0-3.6-.191-.99-.347-.18-.347 1.8m35.29 6.4c0 5.5.128 7.75.284 5 .157-2.75.157-7.25 0-10-.156-2.75-.284-.5-.284 5m86.892 0c0 5.726.285 8.718.8 8.4.446-.276.8-3.993.8-8.4s-.354-8.124-.8-8.4c-.515-.318-.8 2.674-.8 8.4m-96.806-.564l.394 7.364.24-6.726c.133-3.699-.045-7.012-.394-7.363-.349-.351-.457 2.675-.24 6.725m76.206-6.863c1.21.183 3.19.183 4.4 0 1.21-.183.22-.333-2.2-.333-2.42 0-3.41.15-2.2.333m72.8-.022c.77.202 2.03.202 2.8 0 .77-.201.14-.365-1.4-.365s-2.17.164-1.4.365m-41.732 7.449c.03 4.534.274 6.267.732 5.2.946-2.202.946-9.336 0-10.8-.532-.824-.762.932-.732 5.6m-221.054-5.02c1.438.178 3.598.174 4.8-.008 1.202-.183.026-.329-2.614-.324-2.64.004-3.624.154-2.186.332m196.442 4.22c0 2.86.145 4.03.323 2.6.177-1.43.177-3.77 0-5.2-.178-1.43-.323-.26-.323 2.6m71.511-3.2c-.349 1.1-.529 5.78-.4 10.4l.233 8.4 5.2.07c5.075.069 5.09.063.624-.239l-4.577-.309-.223-10.161c-.142-6.447-.455-9.43-.857-8.161m-200.767-.214c1.87.168 4.93.168 6.8 0 1.87-.169.34-.306-3.4-.306-3.74 0-5.27.137-3.4.306m-44.448 9.416l.248 9.201-4.574-.001-4.574-.002-.267-8.801-.267-8.802.041 9.002.041 9.001 5.4.237 5.4.236v-9.636c0-6.258-.297-9.637-.848-9.637-.564 0-.765 3.094-.6 9.202m-35.224-1.449c-.07 4.044.142 7.521.472 7.726.33.205.501-2.023.379-4.953-.384-9.28-.719-10.369-.851-2.773M15.8 354.99c2.31.161 6.09.161 8.4 0 2.31-.162.42-.294-4.2-.294s-6.51.132-4.2.294m22.018 2.61c0 1.98.156 2.79.347 1.8.19-.99.19-2.61 0-3.6-.191-.99-.347-.18-.347 1.8m147.582 1.39c2.31.161 6.09.161 8.4 0 2.31-.162.42-.294-4.2-.294s-6.51.132-4.2.294m119.323 2.056c.357.355 2.59.53 4.963.388l4.314-.257-4.963-.388c-2.73-.214-4.671-.098-4.314.257m-300.99 1.087c-.852.852-.615 7.467.267 7.467.44 0 .8-1.599.8-3.554v-3.554l3.4-.306 3.4-.306-3.667-.14c-2.016-.077-3.906.1-4.2.393m12.867.853c1.87.168 4.93.168 6.8 0 1.87-.169.34-.306-3.4-.306-3.74 0-5.27.137-3.4.306m-6.391 7.18c.995.191 2.435.184 3.2-.016.765-.201-.049-.357-1.809-.348-1.76.009-2.386.172-1.391.364m80.805.014c1.438.178 3.598.174 4.8-.008 1.202-.183.026-.329-2.614-.324-2.64.004-3.624.154-2.186.332m16.786-.001c1.43.177 3.77.177 5.2 0 1.43-.178.26-.323-2.6-.323-2.86 0-4.03.145-2.6.323m-82.391.787c.995.191 2.435.184 3.2-.016.765-.201-.049-.357-1.809-.348-1.76.009-2.386.172-1.391.364m49.991-.015c.77.202 2.03.202 2.8 0 .77-.201.14-.365-1.4-.365s-2.17.164-1.4.365m146.827.04c2.325.162 5.925.16 8-.004s.173-.297-4.227-.295c-4.4.002-6.098.137-3.773.299m118.373-.001c2.31.161 6.09.161 8.4 0 2.31-.162.42-.294-4.2-.294s-6.51.132-4.2.294m-42.2 1.172c0 .351 2.97.596 6.6.545 7.403-.104 6.905-.478-1.2-.901-2.97-.155-5.4.005-5.4.356m-34.667.371c-.882.882-.6 6.531.356 7.122.616.381.799-.573.597-3.117l-.292-3.665 3.203-.297 3.203-.296-3.267-.14c-1.796-.077-3.506.1-3.8.393M295.2 375.2c0 .88.36 1.6.8 1.6.44 0 .8-.72.8-1.6 0-.88-.36-1.6-.8-1.6-.44 0-.8.72-.8 1.6m6.677 4.907c1.059.616 1.727.609 2.36-.024.644-.644.244-.876-1.477-.859-2.069.022-2.178.131-.883.883" fill="#3e3e3e"/><path d="M211.568 52.8c0 20.02.104 28.21.231 18.2.127-10.01.127-26.39 0-36.4-.127-10.01-.231-1.82-.231 18.2m48.779 16.4c-.001 11 .112 15.611.25 10.247.138-5.365.139-14.365.001-20-.138-5.636-.251-1.247-.251 9.753M62.654 105.399c9.6.128 25.08.128 34.4 0s1.466-.232-17.454-.232-26.546.105-16.946.232m112.088.463c-.228.594-.308 3.928-.178 7.409l.236 6.329 26.589.211 26.589.211.222 26.589.222 26.589.189-27 .189-27h-53.6v-13.6h67.183l.221 34 .222 34-.013-34.2-.013-34.2-33.822-.209c-27.79-.171-33.895-.016-34.236.871M72.949 119.798c7.342.132 19.582.133 27.2.001 7.618-.132 1.611-.24-13.349-.24s-21.193.108-13.851.239m71.251 16.8l67 .211v134.382l-67.2.211-67.2.212 67.4-.007 67.4-.007V136.4l-67.2-.007-67.2-.007 67 .212M228.359 261.2c0 14.96.108 20.967.24 13.349.132-7.618.131-19.858-.001-27.2-.131-7.342-.239-1.109-.239 13.851m14.408 7.2c0 18.92.105 26.546.232 16.946.128-9.6.128-25.08 0-34.4s-.232-1.466-.232 17.454m22.633-27.808c2.75.157 7.25.157 10 0 2.75-.156.5-.284-5-.284s-7.75.128-5 .284m20.031.001c2.768.157 7.088.156 9.6-.003 2.513-.158.249-.286-5.031-.285-5.28.002-7.336.131-4.569.288m20.8 0c2.768.157 7.088.156 9.6-.003 2.513-.158.249-.286-5.031-.285-5.28.002-7.336.131-4.569.288m17.59-.006c1.882.169 4.762.166 6.4-.005 1.639-.172.099-.311-3.421-.308-3.52.003-4.86.144-2.979.313M174.688 295.2c0 4.18.135 5.89.3 3.8.165-2.09.165-5.51 0-7.6s-.3-.38-.3 3.8M34.651 333.869l.149 4.487-9.6.262-9.6.262 10-.04 10-.04.248-3.912c.137-2.151-.11-4.27-.549-4.709-.53-.53-.747.707-.648 3.69m84.363-3.689c1.438.178 3.598.174 4.8-.008 1.202-.183.026-.329-2.614-.324-2.64.004-3.624.154-2.186.332m23.207.007c1.882.169 4.762.166 6.4-.005 1.639-.172.099-.311-3.421-.308-3.52.003-4.86.144-2.979.313m10.723 3.546c-.088 2.759-.535 4.692-1.144 4.937-.783.316-.778.417.025.467 1.475.091 1.913-1.597 1.567-6.039l-.304-3.898-.144 4.533m44.944-3.514c.269.434 1.421.968 2.561 1.186 2.444.467 1.593-.57-1.149-1.401-1.183-.358-1.716-.277-1.412.215m58.4 6.581c0 4.18.135 5.89.3 3.8.165-2.09.165-5.51 0-7.6s-.3-.38-.3 3.8M3.456 342.4c0 2.86.145 4.03.323 2.6.177-1.43.177-3.77 0-5.2-.178-1.43-.323-.26-.323 2.6m137.453-2.2c-.109 2.192-.091 2.199 4.891 2.049l5-.152-4.549-.287c-3.939-.248-4.596-.523-4.891-2.048-.284-1.464-.361-1.39-.451.438m41.025-.716c-.229.597-.287 3.387-.129 6.2l.287 5.116.154-5.766.154-5.767 6.2-.272 6.2-.273-6.225-.161c-4.616-.119-6.333.119-6.641.923m-66.48.916c.141 1.395.776 1.609 4.954 1.672l4.792.071-4.549-.31c-3.416-.233-4.649-.649-4.954-1.671-.297-.999-.362-.935-.243.238m91.215 4.4c0 3.3.141 4.65.314 3 .172-1.65.172-4.35 0-6-.173-1.65-.314-.3-.314 3m-119.472 5.763c-.218 6.029-.116 10.68.228 10.335.344-.345.522-5.279.397-10.963l-.228-10.335-.397 10.963m10.738 4.637c0 8.58.118 12.09.261 7.8.144-4.29.144-11.31 0-15.6-.143-4.29-.261-.78-.261 7.8m6.865-14.456c0 .41-.81.86-1.8 1-3.271.465-3.124 9.139.163 9.621 1.34.197 2.437.085 2.437-.248s-.81-.721-1.8-.861c-2.945-.419-3.176-7.856-.244-7.856 1.284 0 2.044-.446 2.044-1.2 0-.66-.18-1.2-.4-1.2-.22 0-.4.335-.4.744M324.341 357.2c.001 9.68.116 13.53.257 8.556.14-4.975.14-12.895-.001-17.6-.142-4.706-.257-.636-.256 9.044M128.8 341.516c-2.426.675-3.153 9.178-.8 9.35.69.051.775-.055.2-.248-1.818-.61-1.306-8.218.553-8.218.854 0 1.775-.36 2.047-.8.272-.44.383-.764.247-.72-.136.044-1.147.33-2.247.636m66.618 3.284c0 1.98.156 2.79.347 1.8.19-.99.19-2.61 0-3.6-.191-.99-.347-.18-.347 1.8m199.778 7.837l.396 9.363.232-8.732c.128-4.802-.05-9.015-.396-9.363-.345-.347-.45 3.582-.232 8.732m-138.9.163c0 4.62.132 6.51.294 4.2.161-2.31.161-6.09 0-8.4-.162-2.31-.294-.42-.294 4.2M18.6 346.183c1.65.172 4.35.172 6 0 1.65-.173.3-.314-3-.314s-4.65.141-3 .314M209.884 354c-.002 3.96.133 5.681.301 3.824.167-1.857.169-5.097.004-7.2-.165-2.103-.303-.584-.305 3.376m13.93-6.22c1.438.178 3.598.174 4.8-.008 1.202-.183.026-.329-2.614-.324-2.64.004-3.624.154-2.186.332m70.078 7.02c.002 4.4.137 6.098.299 3.773.162-2.325.16-5.925-.004-8s-.297-.173-.295 4.227m45.832-7c-.204.33 1.304.492 3.352.361 5.843-.375 6.551-.767 1.571-.868-2.504-.051-4.719.177-4.923.507m-35.39 1.284c-.229.597-.303 3.387-.165 6.2l.252 5.116.39-6.202c.389-6.206.302-7.144-.477-5.114M43.332 356c-.059 4.18.158 8.018.483 8.528.325.51.486-2.01.357-5.6-.358-10.059-.721-11.322-.84-2.928M220 354.993c0 7.5.554 8.251 5.96 8.077l4.04-.131-4.392-.469-4.392-.47.259-6.111c.161-3.799-.069-6.315-.608-6.648-.595-.367-.867 1.441-.867 5.752m129.88.207c0 3.74.137 5.27.306 3.4.168-1.87.168-4.93 0-6.8-.169-1.87-.306-.34-.306 3.4m25.633 4c0 5.94.126 8.37.28 5.4.154-2.97.154-7.83 0-10.8-.154-2.97-.28-.54-.28 5.4M119.8 350.191l-4.6.289.173 10.16.173 10.16.252-9.8.251-9.8h4.776c2.65 0 4.775-.356 4.775-.8 0-.44-.27-.732-.6-.649-.33.083-2.67.281-5.2.44m25.4.209l-4.8.531 5 .135c2.89.077 5-.204 5-.666 0-.44-.09-.739-.2-.666-.11.074-2.36.374-5 .666m36.669 14.4c0 3.3.141 4.65.314 3 .172-1.65.172-4.35 0-6-.173-1.65-.314-.3-.314 3m-168.858-2.626c1.216.184 3.016.179 4-.011s-.011-.34-2.211-.334c-2.2.006-3.005.161-1.789.345m66.798-.008c.995.191 2.435.184 3.2-.016.765-.201-.049-.357-1.809-.348-1.76.009-2.386.172-1.391.364M63.2 366.4c0 2.2.36 4 .8 4 .44 0 .8-1.8.8-4s-.36-4-.8-4c-.44 0-.8 1.8-.8 4m198.64 0c0 2.42.15 3.41.333 2.2.183-1.21.183-3.19 0-4.4-.183-1.21-.333-.22-.333 2.2m80.76-3.427c1.21.183 3.19.183 4.4 0 1.21-.183.22-.333-2.2-.333-2.42 0-3.41.15-2.2.333m52.84 3.427c0 2.42.15 3.41.333 2.2.183-1.21.183-3.19 0-4.4-.183-1.21-.333-.22-.333 2.2m-84.24 2.375c0 .426.509.58 1.13.341.664-.255 1.285.168 1.507 1.025.303 1.17.396 1.103.47-.341.067-1.298-.354-1.8-1.507-1.8-.88 0-1.6.349-1.6.775m-8.986.605c1.438.178 3.598.174 4.8-.008 1.202-.183.026-.329-2.614-.324-2.64.004-3.624.154-2.186.332m-283.603 1.594c1.216.184 3.016.179 4-.011s-.011-.34-2.211-.334c-2.2.006-3.005.161-1.789.345m37.998-.008c.995.191 2.435.184 3.2-.016.765-.201-.049-.357-1.809-.348-1.76.009-2.386.172-1.391.364m238.654 7.187c-.084 1.27.566 1.604 4.343 2.234 2.357.393 2.879.311 1.994-.315-.66-.466-2.16-.853-3.333-.86-1.174-.006-2.315-.462-2.537-1.012-.291-.721-.421-.734-.467-.047m-27.449 2.427c1.438.178 3.598.174 4.8-.008 1.202-.183.026-.329-2.614-.324-2.64.004-3.624.154-2.186.332m40.786.006c1.87.168 4.93.168 6.8 0 1.87-.169.34-.306-3.4-.306-3.74 0-5.27.137-3.4.306" fill="#bfbfbf"/><path d="M138.708 28.8c0 5.5.128 7.75.284 5 .157-2.75.157-7.25 0-10-.156-2.75-.284-.5-.284 5m0 20c0 5.5.128 7.75.284 5 .157-2.75.157-7.25 0-10-.156-2.75-.284-.5-.284 5m141.052.599l20.161.228.288 4.587.288 4.586.152-5 .151-5-20.6.186-20.6.185 20.16.228M138.705 68.4c.002 5.28.131 7.336.288 4.569.157-2.768.156-7.088-.003-9.6-.158-2.513-.286-.249-.285 5.031m161.603.4c0 5.5.128 7.75.284 5 .157-2.75.157-7.25 0-10-.156-2.75-.284-.5-.284 5M300 83.986v4.787l-20.2.228-20.2.228 20.6.185 20.6.186v-5.2c0-2.86-.18-5.2-.4-5.2-.22 0-.4 2.154-.4 4.786m-161.449.614l-.151 5 31-.19 31-.19-30.56-.22-30.561-.219-.288-4.59-.288-4.591-.152 5m64.849 4.783c1.65.172 4.35.172 6 0 1.65-.173.3-.314-3-.314s-4.65.141-3 .314M45.167 139.2c0 19.14.105 26.97.232 17.4.128-9.57.128-25.23 0-34.8-.127-9.57-.232-1.74-.232 17.4m68.725-26.8c.002 4.4.137 6.098.299 3.773.162-2.325.16-5.925-.004-8s-.297-.173-.295 4.227m232.671-.6l.163 7 .269-6.568.269-6.568 6.568-.269 6.568-.269-7-.163-7-.163.163 7m20.017-6.406l6.181.273.241 12.966.241 12.967.178-13.4.179-13.4-6.6.161-6.6.161 6.18.272M346.674 125.2c.003 3.52.144 4.86.313 2.979.169-1.882.166-4.762-.005-6.4-.172-1.639-.311-.099-.308 3.421M60.359 146.8c0 14.96.108 20.967.24 13.349.132-7.618.131-19.858-.001-27.2-.131-7.342-.239-1.109-.239 13.851m15.949 2c0 5.5.128 7.75.284 5 .157-2.75.157-7.25 0-10-.156-2.75-.284-.5-.284 5m-.003 19.6c.002 5.28.131 7.336.288 4.569.157-2.768.156-7.088-.003-9.6-.158-2.513-.286-.249-.285 5.031m0 20.8c.002 5.28.131 7.336.288 4.569.157-2.768.156-7.088-.003-9.6-.158-2.513-.286-.249-.285 5.031m.003 19.6c0 5.5.128 7.75.284 5 .157-2.75.157-7.25 0-10-.156-2.75-.284-.5-.284 5m0 20c0 5.5.128 7.75.284 5 .157-2.75.157-7.25 0-10-.156-2.75-.284-.5-.284 5m-31.317 39.8l-.191 34.6h69.6l-.166-7.8-.166-7.8-.264 7.4-.264 7.4H45.617l-.217-34.2-.218-34.2-.191 34.6m15.361-12.2c0 12.32.111 17.248.246 10.952.136-6.297.135-16.377 0-22.4-.136-6.024-.247-.872-.246 11.448m15.956-7.6c0 5.5.128 7.75.284 5 .157-2.75.157-7.25 0-10-.156-2.75-.284-.5-.284 5m-.028 16.8c0 3.74.137 5.27.306 3.4.168-1.87.168-4.93 0-6.8-.169-1.87-.306-.34-.306 3.4m-16.032 18c.004 2.64.154 3.624.332 2.186.178-1.438.174-3.598-.008-4.8-.183-1.202-.329-.026-.324 2.614M191.4 302.999c9.57.128 25.23.128 34.8 0 9.57-.127 1.74-.232-17.4-.232-19.14 0-26.97.105-17.4.232M6.6 331.225c-.99.398-1.8 1.103-1.8 1.568 0 .67 2.269-.361 4.733-2.151.674-.489-1.185-.12-2.933.583m125.312.975c-.94 1.79-.936 1.792.772.276 1.906-1.693 2.081-2.076.944-2.076-.424 0-1.197.81-1.716 1.8m-77.372 4l-.14 3.8h7.2v8h-7.262l.231 7 .231 7 4.8.093 4.8.092-4.4-.492-4.4-.493-.234-6.2-.233-6.2H62.4v-9.6h-7.108l-.306-3.4-.306-3.4-.14 3.8m167.289 2.792c2.546.159 6.506.158 8.8-.003 2.294-.161.211-.292-4.629-.29-4.84.002-6.717.134-4.171.293m162.771-.027c.99.19 2.61.19 3.6 0 .99-.191.18-.347-1.8-.347s-2.79.156-1.8.347M40.12 341.8c.108 2.347.152 2.391.448.449.219-1.433.913-2.264 2.08-2.491 1.443-.28 1.364-.359-.448-.449-1.994-.099-2.189.135-2.08 2.491M69 339.783c1.65.172 4.35.172 6 0 1.65-.173.3-.314-3-.314s-4.65.141-3 .314m21.221.004c1.882.169 4.762.166 6.4-.005 1.639-.172.099-.311-3.421-.308-3.52.003-4.86.144-2.979.313m122.468 1.06l-1.889 1.648 2.4-1.405c3.159-1.85 3.206-1.89 2.222-1.89-.465 0-1.695.741-2.733 1.647m52.088-1.049c3.492.163 6.23.679 6.587 1.241.416.654.615.513.624-.439.011-1.234-.771-1.381-6.588-1.241l-6.6.159 5.977.28m23.385-.004c5.384.238 6.107.445 5.725 1.639-.373 1.163-.309 1.188.425.167 1.559-2.167.961-2.402-5.712-2.239l-6.6.161 6.162.272m18.076.002c3.651.148 9.411.148 12.8-.002 3.389-.15.402-.271-6.638-.27-7.04.001-9.813.123-6.162.272m25.953-.063c-.555.223-1.414 1.185-1.909 2.137-.832 1.601-.727 1.581 1.409-.27 1.27-1.1 2.459-2.09 2.642-2.2.584-.35-1.093-.09-2.142.333m24.428 1.07c3.397 2.071 4.509 2.068 1.381-.003-1.32-.874-2.76-1.59-3.2-1.592-.44-.001.379.717 1.819 1.595m7.501.997c.111 2.42.143 2.448.453.4.369-2.435 9.256-3.513 10.022-1.216.259.778.733.777 2.266-.004 1.809-.922 1.818-.958.139-.53-1.029.261-1.8.092-1.8-.396 0-.524-2.164-.854-5.6-.854H364l.12 2.6m27.902-1.237c1.088.75 2.433 1.92 2.99 2.6.874 1.07.983 1.075.8.037-.221-1.25-3.638-3.986-4.99-3.995-.428-.003.112.608 1.2 1.358m-95.031-.03c-.555.223-1.414 1.185-1.909 2.137-.832 1.601-.727 1.581 1.409-.27 1.27-1.1 2.459-2.09 2.642-2.2.584-.35-1.093-.09-2.142.333M150.663 346c.003 3.08.148 4.242.321 2.582.173-1.66.17-4.18-.007-5.6-.176-1.42-.318-.062-.314 3.018m89.374-3.531c.491.917 1.052 1.509 1.247 1.314.56-.56-.576-2.983-1.398-2.983-.408 0-.341.75.151 1.669m1.862 10.731c.002 4.84.134 6.717.293 4.171.159-2.546.158-6.506-.003-8.8-.161-2.294-.292-.211-.29 4.629m31.296-7.2c.686 2.765 3.691 9.706 3.247 7.501-.232-1.154-1.147-3.674-2.033-5.6-.886-1.926-1.433-2.781-1.214-1.901m19.317-.645c-.874.873-.566 1.578.688 1.578.66 0 1.2-.278 1.2-.619 0-.901-1.291-1.557-1.888-.959M40.093 347c-.076 1.477.302 1.78 2.107 1.691 1.811-.09 1.891-.169.449-.449-.963-.187-1.911-.948-2.107-1.691-.253-.957-.383-.826-.449.449m324.085 11.2l-.178 13h6c3.3 0 6.001-.27 6.002-.6.001-.33-2.51-.481-5.58-.335l-5.581.265-.242-12.665-.243-12.665-.178 13M32.867 346.6c.183.11 1.343 1.092 2.577 2.181 1.681 1.483 2.109 1.629 1.706.578-.507-1.322-2.737-2.959-4.031-2.959-.322 0-.436.09-.252.2m257.622 3.889c-.493 1.414-.756 2.71-.585 2.882.171.171.714-.846 1.207-2.26.493-1.414.756-2.71.585-2.882-.171-.171-.714.846-1.207 2.26m14.826-1.874c-.209.338 1.119.499 2.952.357 5.384-.415 6.039-.78 1.58-.879-2.284-.051-4.324.184-4.532.522m76.285-.029c1.1.202 2.45.737 3 1.189.671.551 1 .554 1 .009 0-1.027-2.011-1.817-4.265-1.675-1.511.095-1.477.156.265.477M263.5 351.2c.702 2.597 3.119 8.048 3.43 7.737.181-.182-.589-2.267-1.712-4.633-1.124-2.367-1.897-3.764-1.718-3.104M6.289 353.555c1.038.905 2.298 1.639 2.8 1.633.954-.013-.375-1.072-3.089-2.46-1.257-.643-1.196-.466.289.827m198.639 1.738c-.557.891-2.163 2.12-3.57 2.732-1.407.612-2.074 1.126-1.481 1.144 1.562.045 5.598-2.489 6.117-3.841.693-1.806.053-1.827-1.066-.035M15 355.79c2.31.161 6.09.161 8.4 0 2.31-.162.42-.294-4.2-.294s-6.51.132-4.2.294m23.602 3.01c.009 1.76.172 2.386.364 1.391.191-.995.184-2.435-.016-3.2-.201-.765-.357.049-.348 1.809M4.2 361.351c.77.202 2.03.202 2.8 0 .77-.201.14-.365-1.4-.365s-2.17.164-1.4.365m18.2.249l-4.4.539 4.153.131c2.284.071 4.375-.23 4.647-.67.272-.44.383-.741.247-.67-.136.072-2.227.373-4.647.67m262.092 5.292c-.708 2.079-1.149 3.918-.98 4.087.17.169.887-1.393 1.596-3.471.708-2.079 1.149-3.918.98-4.087-.17-.169-.887 1.393-1.596 3.471m-43.841-.491c-.956 1.666-1.028 2.187-.264 1.893.909-.349 2.291-3.483 1.766-4.007-.101-.101-.776.85-1.502 2.114M37.6 365.505c0 .534-.99 1.905-2.2 3.045-1.21 1.141-1.682 1.911-1.049 1.712 1.547-.487 4.482-4.495 3.795-5.182-.3-.301-.546-.109-.546.425m256.863-.163c-.072 1.076 3.702 4.26 5.045 4.255.491-.002-.238-.692-1.619-1.534-1.382-.843-2.703-2.011-2.937-2.597-.271-.678-.449-.723-.489-.124M44.34 366.665c.253.806.46 1.754.46 2.107 0 .353.81.845 1.8 1.095 1.531.386 1.612.31.542-.507-.692-.528-1.709-1.68-2.26-2.56-.843-1.345-.929-1.366-.542-.135m166.114-.429c-.079 1.51 3.632 4.967 5.31 4.946.938-.012.57-.446-1.065-1.252-1.375-.679-2.881-2.021-3.346-2.982-.464-.961-.869-1.282-.899-.712m119.413 2.106c0 .627.693 1.322 1.54 1.544 1.473.385 1.479.335.143-1.142-1.672-1.847-1.683-1.85-1.683-.402M88 370.6c0 .33 2.61.551 5.8.491 6.108-.115 5.442-.473-1.6-.86-2.311-.127-4.201.039-4.2.369m16.8 0c0 .33 2.61.551 5.8.491 6.108-.115 5.442-.473-1.6-.86-2.311-.127-4.201.039-4.2.369m-93 .365c.99.19 2.61.19 3.6 0 .99-.191.18-.347-1.8-.347s-2.79.156-1.8.347m121.2.018c1.65.172 4.35.172 6 0 1.65-.173.3-.314-3-.314s-4.65.141-3 .314m41.221.004c1.882.169 4.762.166 6.4-.005 1.639-.172.099-.311-3.421-.308-3.52.003-4.86.144-2.979.313m213.179-.004c1.65.172 4.35.172 6 0 1.65-.173.3-.314-3-.314s-4.65.141-3 .314m-122 .782c.99.19 2.61.19 3.6 0 .99-.191.18-.347-1.8-.347s-2.79.156-1.8.347m39.209.001c.995.191 2.435.184 3.2-.016.765-.201-.049-.357-1.809-.348-1.76.009-2.386.172-1.391.364m17.97 5.668l-1.821 2.966 2.021-2.245c1.111-1.234 2.021-2.584 2.021-3 0-1.176-.27-.899-2.221 2.279" fill="#fff"/><path d="M76.8 204v67.2h134.4V136.8H76.8V204" fill="#9e1825"/><path d="M347.2 118.42v12.821l12.6-.221 12.6-.22.22-12.6.221-12.6H347.2v12.82" fill="#ec1c24"/><path d="M139.2 52.4v36.4h72V16h-72v36.4" fill="#f7931e"/><path d="M260.8 69.2v19.6H300V49.6h-39.2v19.6" fill="#d6df2e"/><path d="M260.369 168.192c-.212.554-.289 17.028-.169 36.608l.217 35.6.192-36.2.191-36.2h71.984l.22 35.8.22 35.8-.012-36-.012-36-36.222-.208c-28.55-.164-36.304.005-36.609.8" fill="#7fd4f7"/><path d="M260.8 204v36h72v-72h-72v36" fill="#24aeef"/></g></svg>