<svg xmlns="http://www.w3.org/2000/svg" viewBox="0 0 512 512"><path d="M437.433 263.396l-31.064-56.746v-38.896C406.369 75.254 331.114 0 238.614 0S70.86 75.254 70.859 167.754v28.807c0 35.784 10.758 70.014 31.144 99.213v82.576c0 5.523 4.478 10 10 10s10-4.477 10-10v-85.772c0-2.111-.668-4.168-1.908-5.876-19.126-26.336-29.235-57.506-29.235-90.141v-28.807C90.86 86.282 157.142 20 238.615 20c81.472 0 147.754 66.282 147.754 147.754v41.455a10 10 0 0 0 1.229 4.802l32.293 58.99c2.44 4.458.688 8.321-.178 9.776-.863 1.449-3.413 4.811-8.46 4.811h-.052l-14.786-.068h-.046a9.999 9.999 0 0 0-10 10v44.629c0 23.848-19.402 43.25-43.251 43.25h-30.021c-13.624 0-24.708 11.084-24.708 24.708v76.435l-135.941-61.101c-5.039-2.265-10.957-.017-13.221 5.021-2.264 5.038-.016 10.957 5.021 13.221l150.041 67.438A10 10 0 0 0 308.388 502v-91.894a4.713 4.713 0 0 1 4.708-4.708h30.021c34.877 0 63.251-28.374 63.251-63.25v-34.583l4.74.022h.143c10.623 0 20.202-5.441 25.643-14.576 5.467-9.176 5.668-20.247.539-29.615z"/><path d="M336.354 133.243l-6.713-.794a99.839 99.839 0 0 0-1.346-3.246l4.185-5.309c7.867-9.978 7.666-23.637-.468-31.773l-17.527-17.527c-8.136-8.136-21.796-8.336-31.774-.468l-5.309 4.186a98.9 98.9 0 0 0-3.246-1.345l-.794-6.712c-1.493-12.619-11.295-22.135-22.8-22.135h-24.786c-11.504 0-21.306 9.517-22.799 22.138l-.793 6.711c-1.089.429-2.17.877-3.243 1.344l-5.308-4.186c-9.979-7.868-23.637-7.668-31.774.468l-17.528 17.528c-8.134 8.135-8.335 21.795-.467 31.772l4.185 5.308a98.598 98.598 0 0 0-1.346 3.247l-6.713.794c-12.62 1.493-22.137 11.294-22.137 22.799v24.787c0 11.505 9.517 21.306 22.136 22.799l6.712.794c.43 1.09.878 2.173 1.346 3.247l-4.186 5.309c-7.868 9.979-7.667 23.639.468 31.774l17.527 17.527c8.133 8.135 21.793 8.337 31.772.469l5.309-4.186c1.074.468 2.156.917 3.246 1.346l.794 6.712c1.493 12.62 11.295 22.137 22.799 22.137h24.786c11.505 0 21.307-9.516 22.8-22.137l.794-6.711c1.092-.431 2.176-.88 3.251-1.348l5.309 4.185c9.977 7.867 23.636 7.666 31.773-.469l17.526-17.526c8.135-8.135 8.336-21.796.468-31.775l-4.186-5.308a99.891 99.891 0 0 0 1.346-3.247l6.712-.794c12.619-1.493 22.136-11.295 22.136-22.799v-24.787c.001-11.505-9.517-21.306-22.137-22.799zm2.136 47.587c0 1.005-1.706 2.609-4.485 2.938l-12.873 1.522a10 10 0 0 0-8.354 6.9 78.012 78.012 0 0 1-5.056 12.197 9.998 9.998 0 0 0 1.026 10.792l8.029 10.182c1.733 2.198 1.806 4.539 1.095 5.25l-17.525 17.526c-.712.71-3.054.636-5.249-1.095l-10.184-8.028a10.004 10.004 0 0 0-10.792-1.026 77.993 77.993 0 0 1-12.2 5.057 9.998 9.998 0 0 0-6.899 8.355l-1.522 12.872c-.329 2.779-1.933 4.486-2.938 4.486h-24.786c-1.005 0-2.609-1.707-2.938-4.485l-1.521-12.873a10 10 0 0 0-6.9-8.356 78.002 78.002 0 0 1-12.197-5.056 9.992 9.992 0 0 0-10.791 1.027l-10.183 8.029c-2.197 1.732-4.537 1.805-5.248 1.095l-17.526-17.527c-.711-.711-.637-3.052 1.095-5.249l8.029-10.183a10 10 0 0 0 1.026-10.792 77.955 77.955 0 0 1-5.056-12.197 10 10 0 0 0-8.354-6.9l-12.873-1.522c-2.779-.33-4.485-1.933-4.485-2.938v-24.787c0-1.005 1.707-2.609 4.485-2.938l12.873-1.522a9.998 9.998 0 0 0 8.355-6.9 78.036 78.036 0 0 1 5.057-12.196 9.998 9.998 0 0 0-1.026-10.792l-8.028-10.184c-1.733-2.198-1.805-4.538-1.095-5.248l17.527-17.527c.711-.711 3.05-.637 5.248 1.095l10.184 8.029a10 10 0 0 0 10.792 1.026 77.881 77.881 0 0 1 12.191-5.054 10 10 0 0 0 6.9-8.356l1.521-12.872c.33-2.779 1.933-4.486 2.938-4.486h24.786c1.004 0 2.609 1.707 2.938 4.485l1.522 12.873a10 10 0 0 0 6.899 8.355 77.995 77.995 0 0 1 12.197 5.056 9.999 9.999 0 0 0 10.791-1.027l10.183-8.029c2.197-1.733 4.54-1.806 5.249-1.095l17.526 17.526c.711.711.638 3.052-1.094 5.249l-8.028 10.183a10 10 0 0 0-1.026 10.792 77.987 77.987 0 0 1 5.057 12.198 9.998 9.998 0 0 0 8.355 6.898l12.873 1.522c2.778.33 4.485 1.933 4.485 2.938v24.787z"/><path d="M238.173 117.85c-27.896 0-50.59 22.694-50.59 50.59s22.694 50.59 50.59 50.59c27.895 0 50.591-22.695 50.591-50.59 0-27.895-22.695-50.59-50.591-50.59zm0 81.18c-16.867 0-30.59-13.723-30.59-30.59s13.723-30.59 30.59-30.59c16.868 0 30.59 13.722 30.591 30.59 0 16.867-13.723 30.59-30.591 30.59z"/><circle cx="112.911" cy="417.49" r="10"/></svg>