<svg xmlns="http://www.w3.org/2000/svg" viewBox="0 0 512 512"><path d="M396.368 167.754C396.368 80.629 325.74 10 238.615 10 151.489 10 80.86 80.629 80.86 167.754v28.807c0 35.877 11.559 69.05 31.143 96.017v125.648L298.389 502v-91.893c0-8.123 6.585-14.708 14.708-14.708h30.021c29.409 0 53.25-23.841 53.25-53.25V297.52l14.786.068c15.124.069 24.77-16.122 17.507-29.389l-32.293-58.99v-41.455z" fill="#ffd41d"/><path d="M298.388 512a10 10 0 0 1-4.099-.879l-150.041-67.438c-5.037-2.264-7.285-8.183-5.021-13.221s8.182-7.286 13.221-5.021l135.941 61.101v-76.435c0-13.624 11.084-24.708 24.708-24.708h30.021c23.849 0 43.251-19.402 43.251-43.25V297.52a10.001 10.001 0 0 1 10-10h.046l14.786.068h.052c5.047 0 7.597-3.362 8.46-4.811.866-1.455 2.618-5.318.178-9.776l-32.293-58.99a10 10 0 0 1-1.229-4.802v-41.455C386.369 86.282 320.087 20 238.615 20 157.142 20 90.86 86.282 90.86 167.754v28.807c0 32.635 10.109 63.805 29.235 90.141a10.002 10.002 0 0 1 1.908 5.876v85.772c0 5.523-4.478 10-10 10s-10-4.477-10-10v-82.576c-20.386-29.199-31.144-63.429-31.144-99.213v-28.807C70.86 75.254 146.114 0 238.614 0s167.755 75.254 167.755 167.754v38.896l31.064 56.746c5.129 9.368 4.928 20.439-.539 29.615-5.441 9.135-15.02 14.576-25.643 14.576h-.143l-4.74-.022v34.583c0 34.876-28.374 63.25-63.251 63.25h-30.021a4.713 4.713 0 0 0-4.708 4.708V502a9.999 9.999 0 0 1-10 10z"/><path d="M335.18 143.176l-12.873-1.522a87.725 87.725 0 0 0-5.707-13.766l8.029-10.183c4.759-6.036 4.892-13.931.313-18.511l-17.527-17.527c-4.58-4.58-12.475-4.447-18.512.313l-10.182 8.03a87.817 87.817 0 0 0-13.766-5.706l-1.523-12.873c-.903-7.634-6.391-13.31-12.868-13.31h-24.786c-6.477 0-11.966 5.677-12.868 13.311l-1.522 12.873a87.634 87.634 0 0 0-13.762 5.705l-10.183-8.029c-6.036-4.76-13.932-4.894-18.512-.313l-17.527 17.527c-4.58 4.58-4.447 12.475.313 18.511l8.028 10.183a87.686 87.686 0 0 0-5.707 13.766l-12.873 1.522c-7.634.903-13.311 6.391-13.311 12.868v24.786c0 6.477 5.677 11.965 13.31 12.868l12.873 1.523a87.777 87.777 0 0 0 5.706 13.766l-8.029 10.182c-4.76 6.036-4.894 13.932-.313 18.512l17.527 17.527c4.58 4.58 12.475 4.447 18.511-.313l10.183-8.029a87.725 87.725 0 0 0 13.766 5.707l1.522 12.873c.902 7.634 6.391 13.311 12.868 13.311h24.786c6.477 0 11.965-5.677 12.868-13.311l1.523-12.873a87.774 87.774 0 0 0 13.77-5.708l10.183 8.029c6.036 4.759 13.931 4.893 18.511.313l17.527-17.527c4.58-4.58 4.446-12.475-.313-18.512l-8.029-10.182a87.817 87.817 0 0 0 5.706-13.766l12.872-1.523c7.634-.903 13.311-6.391 13.311-12.868v-24.786c-.002-6.477-5.679-11.965-13.313-12.868z" fill="#0084ff"/><circle cx="238.171" cy="168.44" r="40.59" fill="#ffd857"/><path d="M250.563 288.758h-24.786c-11.504 0-21.306-9.517-22.799-22.137l-.794-6.712a97.651 97.651 0 0 1-3.246-1.346l-5.309 4.186c-9.979 7.868-23.639 7.666-31.772-.469l-17.527-17.527c-8.135-8.135-8.336-21.795-.468-31.774l4.186-5.309a99.891 99.891 0 0 1-1.346-3.247l-6.712-.794c-12.619-1.493-22.136-11.294-22.136-22.799v-24.787c0-11.505 9.517-21.306 22.137-22.799l6.713-.794c.429-1.09.878-2.172 1.346-3.247l-4.185-5.308c-7.868-9.977-7.667-23.637.467-31.772l17.528-17.528c8.137-8.136 21.795-8.336 31.774-.468l5.308 4.186a99.638 99.638 0 0 1 3.243-1.344l.793-6.711c1.493-12.621 11.295-22.138 22.799-22.138h24.786c11.505 0 21.307 9.516 22.8 22.135l.794 6.712a98.9 98.9 0 0 1 3.246 1.345l5.309-4.186c9.978-7.868 23.638-7.668 31.774.468l17.527 17.527c8.134 8.136 8.335 21.795.468 31.773l-4.185 5.309a99.839 99.839 0 0 1 1.346 3.246l6.712.794h.001c12.62 1.493 22.137 11.294 22.137 22.799v24.787c0 11.504-9.517 21.306-22.136 22.799l-6.712.794a99.891 99.891 0 0 1-1.346 3.247l4.186 5.308c7.868 9.979 7.667 23.64-.468 31.775l-17.526 17.526c-8.137 8.135-21.796 8.336-31.773.469l-5.309-4.185c-1.075.468-2.159.917-3.251 1.348l-.794 6.711c-1.493 12.621-11.295 22.137-22.8 22.137zm-52.94-51.891c1.569 0 3.147.369 4.598 1.121a78.002 78.002 0 0 0 12.197 5.056 10 10 0 0 1 6.9 8.356l1.521 12.873c.329 2.778 1.933 4.485 2.938 4.485h24.786c1.005 0 2.609-1.707 2.938-4.486l1.522-12.872a9.998 9.998 0 0 1 6.899-8.355 77.993 77.993 0 0 0 12.2-5.057 10.004 10.004 0 0 1 10.792 1.026l10.184 8.028c2.195 1.731 4.537 1.805 5.249 1.095l17.525-17.526c.711-.711.638-3.052-1.095-5.25l-8.029-10.182a9.998 9.998 0 0 1-1.026-10.792 78.012 78.012 0 0 0 5.056-12.197 10 10 0 0 1 8.354-6.9l12.873-1.522c2.779-.329 4.485-1.933 4.485-2.938v-24.787c0-1.005-1.707-2.608-4.485-2.938l-12.873-1.522a9.998 9.998 0 0 1-8.355-6.898 77.987 77.987 0 0 0-5.057-12.198 10 10 0 0 1 1.026-10.792l8.028-10.183c1.732-2.197 1.805-4.538 1.094-5.249l-17.526-17.526c-.709-.711-3.052-.638-5.249 1.095l-10.183 8.029a9.999 9.999 0 0 1-10.791 1.027 77.995 77.995 0 0 0-12.197-5.056 10 10 0 0 1-6.899-8.355l-1.522-12.873c-.329-2.778-1.934-4.485-2.938-4.485h-24.786c-1.005 0-2.608 1.707-2.938 4.486l-1.521 12.872a10 10 0 0 1-6.9 8.356 77.881 77.881 0 0 0-12.191 5.054 10 10 0 0 1-10.792-1.026l-10.184-8.029c-2.198-1.732-4.537-1.806-5.248-1.095l-17.527 17.527c-.71.71-.638 3.05 1.095 5.248l8.028 10.184a9.998 9.998 0 0 1 1.026 10.792 78.036 78.036 0 0 0-5.057 12.196 9.998 9.998 0 0 1-8.355 6.9l-12.873 1.522c-2.778.329-4.485 1.933-4.485 2.938v24.787c0 1.005 1.706 2.608 4.485 2.938l12.873 1.522a10 10 0 0 1 8.354 6.9 77.955 77.955 0 0 0 5.056 12.197 10 10 0 0 1-1.026 10.792l-8.029 10.183c-1.732 2.197-1.806 4.538-1.095 5.249l17.526 17.527c.711.71 3.051.637 5.248-1.095l10.183-8.029a9.992 9.992 0 0 1 6.193-2.148z"/><path d="M238.173 219.03c-27.896 0-50.59-22.694-50.59-50.59s22.694-50.59 50.59-50.59 50.591 22.695 50.591 50.59-22.696 50.59-50.591 50.59zm0-81.18c-16.867 0-30.59 13.723-30.59 30.59s13.723 30.59 30.59 30.59c16.868 0 30.591-13.723 30.591-30.59-.001-16.868-13.723-30.59-30.591-30.59z"/><circle cx="112.911" cy="417.49" r="10"/></svg>