<svg width="500" height="678" xmlns="http://www.w3.org/2000/svg" display="block"><g fill-rule="evenodd"><path d="M71.889 3.247L70 4.895l2.4-1.405c3.159-1.85 3.206-1.89 2.222-1.89-.465 0-1.695.741-2.733 1.647M42.363 49.669c-.491.917-.683 1.877-.428 2.133.256.255.465.07.465-.412 0-.481.566-1.441 1.257-2.133.692-.691.884-1.257.428-1.257s-1.231.751-1.722 1.669m68.893 35.684c-.031.964.304 1.975.744 2.247.946.585.946-.198 0-2.4-.663-1.543-.69-1.537-.744.153m62.411 5.334c.183.159 1.413.529 2.733.825 1.753.392 2.076.318 1.2-.275-1.08-.731-4.736-1.242-3.933-.55M118.4 116.753c0 3.231.342 5.647.8 5.647.451 0 .8-2.251.8-5.153 0-2.834-.36-5.375-.8-5.647-.504-.312-.8 1.592-.8 5.153m71.402 22.847c.009 1.76.172 2.386.364 1.391.191-.995.184-2.435-.016-3.2-.201-.765-.357.049-.348 1.809m51.082 106.068c-3.325 1.33-1.201 1.701 2.439.426 2.557-.895 2.948-1.214 1.477-1.205-1.1.007-2.862.357-3.916.779m-6.931 40.307c-1.514 1.145-1.508 1.175.247 1.2 1.078.015 1.8-.456 1.8-1.175 0-1.483-.119-1.484-2.047-.025m-205.42 8.158c-.79.791-.623 6.086.236 7.444.409.647.995.926 1.302.619.306-.306.106-1.101-.446-1.766-.556-.67-.857-2.46-.674-4.019.357-3.063.359-3.054-.418-2.278M361.6 334.714c0 .613.548 1.325 1.219 1.582.994.382 1.062.177.371-1.114-.992-1.854-1.59-2.03-1.59-.468M215.474 361.2c.003 3.52.144 4.86.313 2.979.169-1.882.166-4.762-.005-6.4-.172-1.639-.311-.099-.308 3.421M53.04 378.4c0 2.42.15 3.41.333 2.2.183-1.21.183-3.19 0-4.4-.183-1.21-.333-.22-.333 2.2m218.16 6.835l-2 1.178 2.4-.51c2.648-.562 4.648-1.921 2.76-1.875-.638.016-2.06.559-3.16 1.207M53.904 402c-.02 6.15.075 6.675.645 3.6.854-4.609.854-4.677.053-8-.528-2.188-.681-1.227-.698 4.4M352.8 419.76c0 1.813.284 2.665.733 2.2 1.327-1.375 1.376-5.16.067-5.16-.44 0-.8 1.332-.8 2.96m-267.453 2.146c-.301.784-.524 2.025-.496 2.759.033.884.311.683.823-.596.424-1.063.647-2.305.496-2.76-.152-.455-.522-.187-.823.597m109.081 21.02c.877 3.886 1.572 4.281 1.572.893 0-1.68-.452-3.021-1.102-3.271-.875-.335-.971.154-.47 2.378m92.419 16.699c-.854.646-1.193 1.175-.753 1.175.44 0 1.499-.529 2.353-1.175.854-.646 1.193-1.174.753-1.174-.44 0-1.499.528-2.353 1.174m-87.251 16.773c.585 2.628.986 3.286 1.618 2.654.228-.228-.163-1.458-.869-2.733L199.061 474l.535 2.398m-49.196 6.551c0 1.482 2.346 4.001 2.375 2.549.014-.716-.515-1.75-1.175-2.298s-1.2-.661-1.2-.251m1.383 10.334c-.32.321-.583 1.136-.583 1.81 0 .901.237.99.89.337.49-.49.752-1.304.583-1.81-.168-.506-.569-.657-.89-.337m46.617 3.793c0 .288.72 1.244 1.6 2.124.88.88 1.6 1.296 1.6.924s-.72-1.328-1.6-2.124c-.88-.796-1.6-1.212-1.6-.924m80 4.465c0 .408-.63.906-1.4 1.108-1.181.308-1.196.38-.098.458.716.051 1.75-.447 2.298-1.107.688-.829.718-1.2.098-1.2-.494 0-.898.334-.898.741m-15.553 3.684c-.854.646-1.193 1.175-.753 1.175.44 0 1.499-.529 2.353-1.175.854-.646 1.193-1.174.753-1.174-.44 0-1.499.528-2.353 1.174M247.6 508l-1.6.688h1.6c.88 0 2.32-.31 3.2-.688l1.6-.688h-1.6c-.88 0-2.32.31-3.2.688m-17.2 2.915l-2.8 1.124 3.2-.482c1.76-.265 3.542-.813 3.96-1.219 1.08-1.048-.995-.774-4.36.577" fill="red"/><path d="M38.586 140c0 1.54.164 2.17.365 1.4.202-.77.202-2.03 0-2.8-.201-.77-.365-.14-.365 1.4m51.306 226c.002 4.4.137 6.098.299 3.773.162-2.325.16-5.925-.004-8s-.297-.173-.295 4.227" fill="#505"/><path d="M89.802 355.6c.009 1.76.172 2.386.364 1.391.191-.995.184-2.435-.016-3.2-.201-.765-.357.049-.348 1.809" fill="#f0f"/><path d="M116.912 103.2c0 .66.31 1.92.688 2.8.433 1.009.688 1.156.688.4 0-.66-.31-1.92-.688-2.8-.433-1.009-.688-1.156-.688-.4m42.422 100.841c.468 1.342.999 2.292 1.181 2.111.396-.396-1.114-4.552-1.654-4.552-.208 0 .005 1.098.473 2.441M121.6 321.819c0 1.148.309 2.278.688 2.511.378.234.586-.496.462-1.623-.308-2.806-1.15-3.456-1.15-.888M54.412 392.6c.036 1.754 1.564 2.917 1.576 1.2.006-.99-.348-1.8-.788-1.8-.44 0-.794.27-.788.6m.24 19.2c-.274.77-.644 1.67-.823 2-.178.33.016.6.431.6.414 0 .926-.9 1.136-2 .44-2.301-.01-2.664-.744-.6M268.6 430.165c.99.19 2.61.19 3.6 0 .99-.191.18-.347-1.8-.347s-2.79.156-1.8.347m.009 30.401c.995.191 2.435.184 3.2-.016.765-.201-.049-.357-1.809-.348-1.76.009-2.386.172-1.391.364m45.191 1.859c-.99.398-1.8.915-1.8 1.149 0 .777 1.273.442 2.847-.749 1.77-1.338 1.522-1.433-1.047-.4M200.068 471.6c-.024.88.305 2.14.732 2.8 1.028 1.59 1.028-.408 0-2.8l-.688-1.6-.044 1.6m4.756 27.6c.001 1.379 1.337 3.739 1.798 3.177.17-.207-.165-1.277-.744-2.377-.581-1.102-1.054-1.461-1.054-.8" fill="#b6006d"/><path d="M87.064.807c-.147.443-2.113.934-4.367 1.091-2.254.157-4.503.535-4.998.841-.494.305-.899.298-.899-.016s-.635.003-1.41.705c-.974.882-3.221 1.329-7.266 1.447-3.665.107-6.263.578-6.944 1.259-.598.598-2.144 1.299-3.436 1.557-5.53 1.106-9.794 13.076-6.109 17.148 2.081 2.299 2.294 5.625.393 6.122-1.474.385-1.628 1.06-1.628 7.132 0 4.825-.281 6.711-1 6.721-1.608.022-4.6 3.655-4.6 5.584 0 1.288-.346 1.64-1.265 1.288-1.211-.465 1.399 4.801 2.931 5.914.303.22.716 2.815.917 5.767.201 2.951.872 5.991 1.491 6.753.931 1.146.934 1.272.022.722-.767-.462-.981-.326-.7.447.222.611.809 1.021 1.304.911.521-.116.905.894.911 2.4.017 3.96.704 5.654 2.977 7.337 1.141.845 1.817 1.119 1.502.609-.375-.606-.143-.763.668-.451.683.262 1.242.761 1.242 1.11 0 1.152 8.343.452 9.6-.805.66-.66 1.92-1.283 2.8-1.385.88-.102 2.384-.269 3.342-.37.959-.101 1.583-.443 1.387-.759-.195-.317.051-.826.547-1.133 1.818-1.123 2.032.474 1.624 12.094-.059 1.688-.428 2.645-.906 2.35-.443-.274-1.035.1-1.316.832-.655 1.708-4.492 5.603-5.278 5.358-.33-.103-.6.104-.6.459 0 1.195-4.198 5.726-4.903 5.291-.383-.237-.697-.045-.697.428 0 1.154-7.215 8.488-8.101 8.235-.384-.11-.699.157-.699.593 0 .951-4.749 5.607-5.719 5.607-.374 0-.591.45-.481 1 .11.55-.214.922-.72.827-.841-.159-2.321 3.355-2.011 4.773.072.33-.293.51-.811.4-.519-.11-1.283.88-1.698 2.2-.416 1.32-1.252 3.356-1.858 4.523-1.531 2.95-1.464 12.181.098 13.477.66.548 1.2 1.784 1.2 2.747 0 .963.72 2.524 1.6 3.469.88.944 1.599 2.002 1.598 2.351-.005 1.474 3.683 7.433 4.601 7.433.55 0 1.001.681 1.001 1.514s.475 1.697 1.055 1.92c.58.222 1.506 2.425 2.059 4.895.553 2.471 1.339 4.286 1.746 4.034 1.025-.634.94 7.117-.089 8.146-.969.969-1.624 4.047-1.933 9.091-.337 5.496-.365 5.6-1.501 5.6-.727 0-1.118 1.328-1.237 4.2-.246 5.92-.582 7.429-1.606 7.2-.492-.11-.912.79-.935 2-.082 4.433-.956 9.43-1.846 10.554-.734.927-.678 1.014.287.446 1.067-.629 1.067-.543 0 .766-.67.823-1.377 3.808-1.6 6.754-.275 3.636-.711 5.218-1.4 5.08-.55-.11-.957.07-.905.4.052.33.023.78-.065 1-.088.22-.337 2.92-.553 6-.215 3.08-.747 5.96-1.182 6.4-.521.528-.594.256-.215-.8.316-.88.301-1.353-.035-1.051-.335.302-.739 1.922-.898 3.6-.548 5.797-1.29 9.051-2.065 9.051-.427 0-.613.27-.413.6.199.33.004 2.76-.434 5.4-.438 2.64-.895 5.52-1.014 6.4-.119.88-.263 1.891-.319 2.247-.056.356-.39.469-.742.252-.603-.373-.814.922-.991 6.101-.042 1.21-.35 2.2-.684 2.2-.334 0-.449 1.08-.256 2.4.257 1.748.03 2.4-.836 2.4-1.796 0-2.023 15.008-.238 15.694.68.26 1.037.796.793 1.19-.243.394-.085.716.351.716s1.026.735 1.311 1.633c.309.972 1.469 1.823 2.866 2.102 1.562.313 2.276.898 2.136 1.749-.117.704.238 1.333.788 1.398.55.065 1.27.206 1.6.313.33.107.835.163 1.123.125.288-.038.962.46 1.498 1.106.536.646 1.595 1.174 2.353 1.174 2.653 0 3.921 2.558 4.106 8.284.121 3.749.52 5.596 1.269 5.884.793.304.858.7.238 1.448-.608.733-.597 1.114.041 1.327.62.206 1.017 7.636 1.295 24.27.22 13.184.724 24.362 1.12 24.838.437.527.35 1.236-.222 1.808-.6.6-.635.941-.096.941.465 0 .807 1.045.76 2.321-.047 1.277-.355 2.156-.685 1.953-.33-.203-.6-.017-.6.412s.45.93 1 1.113c1.536.51 1.883 21.306.407 24.324-1.012 2.068-1.347 5.531-1.803 18.677-.284 8.172-.387 8.803-1.404 8.6-.69-.138-1.076 1.283-1.246 4.587-.158 3.093-.725 5.318-1.6 6.284-1.351 1.494-1.465 2.003-1.654 7.376-.055 1.566-.422 2.648-.816 2.405-.972-.601-1.684 1.483-1.684 4.925 0 1.74-.521 3.228-1.341 3.827-.738.54-1.459 2.2-1.603 3.689-.376 3.901-.621 4.904-1.664 6.797-.512.929-1.144 2.9-1.404 4.379-.261 1.479-.725 2.879-1.031 3.11-.306.232-.588.781-.625 1.221-.246 2.9-1.502 6-2.432 6-.605 0-1.1.54-1.1 1.2 0 .789-.789 1.2-2.302 1.2-1.266 0-2.75.54-3.298 1.2-1.208 1.456-3.195 1.58-3.212.2-.009-.707-.222-.67-.727.128-.393.621-1.383 1.178-2.202 1.238-2.061.152-3.576 1.198-3.025 2.089.253.41-.239.745-1.094.745-2.92 0-2.3 19.347.631 19.7.456.055 1.369.145 2.029.2.66.055 1.11.536 1 1.068-.134.647 1.393 1.069 4.6 1.273 2.64.167 5.319.722 5.954 1.232.929.747 1.019.694.462-.273-.551-.957-.379-.936.846.103 2.22 1.881 15.538 2.178 15.538.346 0-.863.765-1.249 2.479-1.249 5.4 0 7.121-3.534 7.121-14.618 0-9.003.494-12.267.95-6.279.11 1.44.519 2.816.91 3.058.391.241.222.748-.375 1.127-.845.536-.776.69.315.7 1.226.01 1.4.885 1.4 7.052 0 7.875.554 8.96 4.577 8.96 2.058 0 2.863-.451 3.569-2 .501-1.1 1.124-2 1.384-2 .26 0 .472-3.15.471-7 0-3.85.139-7.317.31-7.703.171-.387.42-4.465.553-9.062.156-5.365.617-8.821 1.289-9.65.774-.956.787-1.136.047-.691-.636.381-1 .129-1-.694 0-.712.322-1.095.716-.852 1.756 1.085 2.444-12.45.739-14.553-.894-1.103-.872-1.212.145-.712.66.325.39-.009-.6-.744-.99-.734-1.8-1.676-1.8-2.094 0-.417-.509-1.268-1.131-1.89-.622-.622-1.01-1.767-.861-2.543.148-.777.297-1.703.331-2.059.033-.356.477-.391.985-.077.551.341.707.221.387-.297-.296-.478-.247-1.048.109-1.268.355-.219.736-1.746.847-3.392.111-1.646.686-3.381 1.278-3.856.592-.475 1.311-2.203 1.598-3.841.287-1.638.957-3.258 1.489-3.6.532-.342 1.06-1.342 1.173-2.222.113-.88.279-2.215.368-2.966.089-.751.321-1.206.516-1.012.686.687 2.511-3.837 2.511-6.225 0-1.331.537-2.82 1.193-3.309.83-.617 1.227-2.53 1.303-6.272.06-2.961.371-5.222.69-5.025 1.102.682 2.414-3.681 2.414-8.029 0-2.399.36-4.362.8-4.362.44 0 .8-.381.8-.847 0-.473-.442-.575-1-.231-.55.339-.37-.347.4-1.525 1.254-1.917 1.41-4.798 1.493-27.569.051-13.985.268-24.708.482-23.828.215.88.983 2.268 1.708 3.084.724.816 1.237 1.536 1.14 1.6-.668.437.983 3.716 1.87 3.716.628 0 1.107.812 1.107 1.876 0 1.032.72 2.528 1.6 3.324.88.796 1.6 1.932 1.6 2.524 0 .592.45 1.082 1 1.088.667.008.6.271-.2.788-1.042.673-1.027.777.113.788.728.007 1.537.903 1.816 2.012.276 1.1 1.035 2 1.686 2 .786 0 1.185.817 1.185 2.425 0 1.418.499 2.617 1.2 2.886.66.253 1.2.894 1.2 1.424 0 .53.72 1.736 1.6 2.681.88.944 1.6 2.452 1.6 3.351 0 .898.524 1.633 1.164 1.633.696 0 1.374 1.122 1.687 2.793.289 1.536.848 2.593 1.243 2.349.789-.488 2.334 2.891 1.765 3.858-.194.33.049.6.541.6.492 0 .695.322.452.716-.244.394.095.923.753 1.175.657.252 1.195.972 1.195 1.598 0 .627.563 1.356 1.251 1.62s1.028.839.757 1.279c-.272.439.42 1.713 1.538 2.831 1.118 1.118 2.114 3.101 2.213 4.407.1 1.309.643 2.374 1.211 2.374.567 0 1.03.664 1.03 1.476 0 .812.72 2.128 1.6 2.924.993.898 1.6 2.464 1.6 4.124 0 1.865.37 2.676 1.22 2.676 1.091 0 2.62 4.127 2.149 5.8-.093.33.271.51.808.4.614-.126 1.15 1.231 1.443 3.656.256 2.12.887 4.115 1.401 4.433.514.318 1.246 2.003 1.627 3.745.381 1.741 1.111 3.076 1.622 2.966.608-.131.93 1.17.93 3.76 0 2.71.384 4.175 1.214 4.64.668.374 1.504 2.282 1.858 4.24.37 2.052 1.042 3.475 1.585 3.36.775-.164 1.432 4.201 1.069 7.105-.034.277.643 1.143 1.506 1.924.952.861 1.568 2.453 1.568 4.049 0 1.447.661 3.821 1.469 5.276.807 1.455 1.392 3.096 1.3 3.646-.093.55-.214 3.314-.269 6.143-.066 3.393-.508 5.551-1.3 6.343-.66.66-1.21 1.675-1.222 2.257-.012.581-1.262 1.957-2.778 3.057-3.041 2.207-4.379 13.044-1.736 14.058.585.225 1.552 1.654 2.149 3.175.597 1.522 1.378 2.767 1.736 2.767.358 0 .651.501.651 1.114 0 2.266 10.308 3.082 12.737 1.008.695-.593 2.966-1.538 5.048-2.1s3.591-1.337 3.353-1.722.489-.7 1.615-.7 2.047-.381 2.047-.847c0-.466.319-.65.709-.409.39.241 1.155-.098 1.698-.753.544-.655 1.358-1.191 1.81-1.191.452 0 2.045-1.26 3.541-2.8 1.495-1.54 3.007-2.8 3.359-2.8 1.59 0 .994-10.852-.679-12.366-.901-.815-1.638-2.146-1.638-2.958 0-.812-.325-1.476-.722-1.476-.757 0-2.713-4.832-2.174-5.371.171-.171.725.878 1.232 2.33.735 2.108 1.074 2.399 1.68 1.441.569-.899.763-.535.772 1.447.007 1.551.342 2.444.809 2.155.438-.271 1.216.428 1.728 1.553.513 1.125 1.414 2.045 2.003 2.045.59 0 1.072.699 1.072 1.553s.366 1.779.813 2.055c.447.276.654.76.459 1.075-.194.315 1.229.599 3.164.631 1.935.032 3.327-.251 3.094-.628-.234-.377-.133-.689.223-.692.902-.009 2.419-3.479 2.03-4.644-.176-.528-.605-.784-.954-.568-.6.371-1.988-4.03-1.716-5.441.07-.363-.232-.438-.67-.168-.438.271-1.022-.408-1.298-1.507-.276-1.1-1.007-2.419-1.623-2.931-.617-.512-1.122-1.743-1.122-2.735 0-.992-.505-2.223-1.122-2.735-.616-.512-1.364-1.906-1.662-3.098-.297-1.192-1.048-2.731-1.669-3.42-.62-.689-1.259-2.444-1.418-3.901-.16-1.457-.884-2.981-1.61-3.387-.832-.466-1.319-1.768-1.319-3.525 0-3.204-3.33-10.306-5.163-11.009-.68-.261-1.237-1.026-1.237-1.7 0-.939-.946-1.225-4.047-1.225-2.352 0-3.851-.318-3.578-.76.258-.418-.288-1.165-1.213-1.66-2.95-1.579-4.729-3.882-4.918-6.366-.119-1.552-.623-2.418-1.414-2.426-1-.01-1.026-.142-.139-.703.692-.439.773-.8.222-.988-.478-.163-1.057-2.817-1.288-5.897-.589-7.872-.994-10.163-1.892-10.718-.431-.266-.901-3.003-1.044-6.083-.145-3.103-.716-6.073-1.283-6.663-.561-.586-.816-1.396-.566-1.8.25-.405.091-.736-.353-.736-.444 0-.915-2.07-1.047-4.6-.138-2.652-.596-4.538-1.08-4.453-.462.08-.941-1-1.065-2.4-.498-5.633-.726-6.539-1.592-6.347-.497.11-.933-.43-.969-1.2-.167-3.564-.9-6.271-1.904-7.04-.603-.462-1.343-2.147-1.642-3.744-.3-1.598-1.05-3.099-1.667-3.335-.616-.237-1.121-1.173-1.121-2.081 0-.908-.505-1.844-1.121-2.081-.617-.236-1.353-1.665-1.637-3.174-.306-1.633-.986-2.745-1.678-2.745-.64 0-1.164-.527-1.164-1.172 0-.644-.72-1.557-1.6-2.028-.944-.505-1.6-1.675-1.6-2.853 0-1.099-.54-2.204-1.2-2.458-.66-.253-1.2-1.242-1.2-2.197 0-.955-.537-2.503-1.194-3.44-.656-.938-1.306-2.442-1.444-3.343-.137-.901-.789-2.284-1.449-3.073-.659-.79-1.304-2.696-1.432-4.236-.129-1.54-.556-3.193-.95-3.674-.395-.48-.48-1.11-.191-1.4.29-.289-.073-.526-.807-.526-1.019 0-1.333-.744-1.333-3.153 0-1.734-.385-3.39-.855-3.681-.47-.29-.665-1.02-.434-1.621.23-.602.075-1.307-.346-1.567-2.14-1.322-.824-6.778 1.635-6.778 1.6 0 2.4-.4 2.4-1.2 0-.835.84-1.2 2.76-1.2 1.518 0 3.048-.484 3.4-1.077.352-.592 1.876-1.316 3.388-1.609 1.511-.293 3.364-1.092 4.119-1.775.755-.683 2.488-1.273 3.853-1.312 1.817-.052 2.48-.451 2.48-1.493 0-.866.704-1.523 1.8-1.678.99-.141 1.71-.526 1.6-.856-.11-.33.542-1.342 1.448-2.248 1.981-1.981 1.844-7.819-.238-10.12-1.317-1.455-1.41-1.708-1.41-3.832 0-.66-.54-1.2-1.2-1.2-.66 0-1.2-.644-1.2-1.431s-.72-2.843-1.6-4.569c-.88-1.726-1.6-3.962-1.6-4.969 0-1.094-.483-1.831-1.2-1.831-.739 0-1.2-.75-1.2-1.953 0-1.074-.344-2.165-.765-2.425-.421-.26-.557-1.016-.302-1.68.285-.743.06-1.118-.585-.975-.66.147-1.248-.912-1.586-2.85-.296-1.696-.903-3.316-1.349-3.6-.447-.284-1.066-1.687-1.376-3.117-.314-1.448-1.067-2.6-1.701-2.6-.689 0-1.136-.815-1.136-2.074 0-1.14-.72-2.989-1.6-4.108-.88-1.118-1.6-2.705-1.6-3.526 0-.821-.493-1.492-1.095-1.492-.678 0-1.263-1.26-1.539-3.315-.245-1.824-.922-3.618-1.505-3.988-.584-.37-.701-.684-.261-.697.533-.016.533-.22 0-.612-1.444-1.061-2.865-4.235-2.303-5.144.334-.541.187-.667-.373-.32-.587.362-.924-.044-.924-1.11 0-.925-.72-2.454-1.6-3.398-.88-.945-1.6-2.24-1.6-2.879 0-.638-.63-1.677-1.4-2.308-.831-.682-.913-.905-.2-.551.89.443.838.184-.2-1.003-.77-.881-1.4-2.023-1.4-2.538 0-.515-.501-.937-1.113-.937-1.006 0-2.426-3.327-1.901-4.453.118-.253-.416-.812-1.186-1.243-.77-.431-1.4-1.327-1.4-1.991 0-.664-.319-1.01-.709-.769-.963.595-2.755-1.67-2.126-2.688.277-.447-.232-1.443-1.131-2.212-2.304-1.973-2.422-21.32-.122-19.898.3.185.596-.267.658-1.005.43-5.092 1.129-10.107 1.454-10.432.337-.336 9.499 8.241 14.169 13.264.906.975 1.954 1.583 2.328 1.353.373-.231.679.321.679 1.227 0 .906.369 1.647.82 1.647.451 0 1.162.9 1.58 2 .418 1.1 1.09 2 1.493 2s1.297 1.409 1.986 3.132c.69 1.723 1.629 3.364 2.087 3.647.459.284.834 1.176.834 1.983 0 .807.54 1.674 1.2 1.927.66.254 1.2 1.434 1.2 2.623 0 1.189.551 2.771 1.224 3.515.673.743 1.362 2.392 1.531 3.663.439 3.293 1.297 5.172 2.129 4.658.394-.243.724.749.734 2.205.01 1.456.722 3.547 1.582 4.647.86 1.1 1.572 2.951 1.582 4.114.01 1.163.558 2.322 1.218 2.575.75.288 1.2 1.51 1.2 3.258 0 1.978.468 3.047 1.6 3.653 1.048.561 1.6 1.675 1.6 3.228 0 1.305.381 2.372.847 2.372.466 0 .6.4.298.889-.303.49-.054 1.196.553 1.571.75.464 1.121 2.414 1.162 6.111.07 6.326.957 10.836 2.005 10.189.404-.25.735.467.735 1.593 0 1.243.45 2.047 1.146 2.047.63 0 1.375.72 1.654 1.6.279.88.945 1.6 1.479 1.6.533 0 1.379 1.083 1.878 2.406.5 1.323.579 2.201.176 1.952-.403-.249-.733.31-.733 1.242 0 .932.299 1.51.664 1.284.365-.225.594.384.509 1.353-.085.97.246 2.282.736 2.917.706.914.642 1.026-.309.54-.799-.408-.753-.244.139.49.981.808 1.385 2.59 1.511 6.66.101 3.275.615 6.07 1.25 6.807.594.689 1.26 3.897 1.482 7.13.222 3.233.885 6.629 1.473 7.548.588.919 1.155 3.651 1.26 6.071.299 6.948.414 7.537 1.685 8.659 1.067.942 1.067.992 0 .447-1.066-.545-1.066-.449-.001.862.66.812 1.242 2.591 1.294 3.954.274 7.117.775 10.077 1.707 10.077.679.001 1 1.42 1 4.427 0 2.434.579 5.764 1.286 7.4.707 1.636 1.443 4.954 1.636 7.374.193 2.42.43 5.365.526 6.545.096 1.18.498 2.44.892 2.8.416.381.444.185.065-.469-.439-.755-.35-.936.271-.552.508.314.967 2.619 1.019 5.123.117 5.642.868 9.318 1.855 9.086.922-.217 1.094.89 1.362 8.758.117 3.412.473 6.042.792 5.845.845-.523 1.411 1.863 1.616 6.814.122 2.949.647 4.817 1.63 5.8 1.151 1.151 1.45 2.731 1.45 7.672 0 3.986.396 6.789 1.101 7.8.606.868 1.356 4.08 1.667 7.138.324 3.191 1.035 5.918 1.669 6.4.781.594 1.144 3.023 1.24 8.289.096 5.266.473 7.786 1.286 8.6.908.908.928 1.154.094 1.163-.678.008-.757.223-.219.6.461.324.912 1.668 1.003 2.988.272 3.988.899 6.38 1.745 6.662.531.177.524.785-.021 1.803-.517.967-.533 1.535-.042 1.535.783 0 1.47 3.665 1.962 10.475.146 2.021.503 4.058.793 4.528.291.47.605 1.786.7 2.926.094 1.139.452 2.071.796 2.071.345 0 .626 1.777.626 3.948 0 2.171.415 4.961.922 6.2.508 1.239 1.058 2.972 1.223 3.852.166.88.716 1.742 1.223 1.915.507.173 1.666 1.077 2.577 2.008 2.824 2.89 4.886 4.319 4.149 2.877-.354-.694-.129-.61.535.2 1.491 1.82 8.926 1.959 10.685.2.775-.775 2.754-1.2 5.583-1.2 2.41 0 5.424-.539 6.697-1.197 1.695-.877 2.467-.951 2.883-.279.402.651.834.554 1.483-.334.686-.938 2.739-1.318 8.204-1.516 4.009-.145 7.132-.518 6.94-.829-.191-.31.832-.753 2.274-.983 3.771-.603 10.332-1.471 12.37-1.637.961-.079 2.221-.528 2.8-.999.579-.471 3.392-1.043 6.252-1.271 4.502-.359 7.287-.799 8.8-1.389.22-.085.67-.113 1-.061.33.052.6-.187.6-.531 0-.558 3.279-.957 9.757-1.188 1.187-.042 1.974-.374 1.75-.737-.582-.941.847-1.264 8.093-1.826a825.6 825.6 0 0 0 7.365-.594c.53-.052.779-.396.553-.762-.227-.367.239-.718 1.035-.781 8.574-.675 11.768-1.25 12.076-2.173.167-.502 1.505-.913 2.972-.913 3.461 0 5.199-.697 5.199-2.086 0-.74.94-1.114 2.8-1.114 1.956 0 2.8-.362 2.8-1.2 0-.66.72-1.245 1.6-1.3 3.037-.19 3.333-.305 4.353-1.7.563-.77 1.434-1.4 1.935-1.4.502 0 .912-.299.912-.665 0-.365.99-1.169 2.2-1.786 1.21-.617 3.254-2.114 4.543-3.327 1.289-1.213 3.004-2.415 3.812-2.671.807-.256 1.273-.782 1.034-1.168-.239-.387.296-1.093 1.189-1.571.892-.478 1.622-1.396 1.622-2.04 0-.65.734-1.172 1.647-1.172.906 0 1.454-.313 1.217-.696-.236-.382.462-1.732 1.552-3 1.09-1.267 1.982-2.715 1.983-3.218.001-.503.541-1.122 1.201-1.375.66-.254 1.2-1.192 1.2-2.086 0-.894.524-1.625 1.164-1.625.696 0 1.374-1.122 1.687-2.793.289-1.536.807-2.618 1.153-2.405.887.549 1.596-1.645 1.596-4.942 0-2.137.383-2.91 1.6-3.228 1.447-.379 2.281-4.205 1.675-7.691-.063-.363.244-.438.682-.168 1.454.899 1.971-3.833 1.916-17.573-.057-14.614-.291-18.084-1.178-17.535-.31.192-.774-.734-1.03-2.058l-.916-4.752c-.249-1.289-.969-2.773-1.6-3.298-.632-.524-1.149-1.971-1.149-3.215 0-1.244-.473-2.55-1.051-2.902-.578-.352-1.417-1.9-1.866-3.44-.448-1.54-1.235-2.71-1.749-2.6-.514.11-.934-.52-.934-1.4 0-.88-.399-1.6-.886-1.6s-.671-.559-.409-1.242c.275-.716.14-1.033-.32-.749-.438.271-1.028-.16-1.312-.958-.284-.798-1.721-2.62-3.194-4.049-1.474-1.429-2.679-2.959-2.679-3.4 0-.441-.498-.802-1.107-.802-1.407 0-2.068-2.478-2.082-7.8-.007-2.566-.36-4.2-.909-4.2-.614 0-.579-.385.113-1.218.846-1.019.796-1.136-.302-.715-1.107.425-1.313-.109-1.313-3.403 0-2.186-.531-4.666-1.205-5.628-1.07-1.528-1.62-3.962-1.906-8.436-.049-.77-.539-1.31-1.089-1.2-.58.116-1.111-.808-1.264-2.2-.145-1.32-.933-3.12-1.752-4-.818-.88-1.456-1.78-1.418-2 .181-1.052-1.16-4-1.82-4-.428 0-.746-5.127-.746-12.04 0-9.43-.275-12.571-1.27-14.495-1.138-2.201-1.651-4.646-1.861-8.865-.038-.77-.45-1.31-.916-1.2-.466.11-1.353-1.236-1.971-2.99-.618-1.755-1.497-3.315-1.953-3.467-.456-.152-.829-.754-.829-1.338 0-1.349-4.066-7.605-4.942-7.605-.362 0-.658-.72-.658-1.6 0-.88-.315-1.6-.7-1.6-1.024 0-8.1-6.941-8.1-7.945 0-.47-.574-.855-1.277-.855-.702 0-2.322-.745-3.6-1.654-1.277-.91-2.323-1.37-2.323-1.022 0 .347-.56-.168-1.245-1.146-.685-.978-1.721-1.778-2.302-1.778-.582 0-1.505-.54-2.053-1.2-.548-.66-2.006-1.2-3.241-1.2-1.235 0-2.729-.45-3.321-1-1.493-1.387-2.7-1.678-8.438-2.03-3.086-.189-5.005-.663-5.012-1.238-.007-.539-.327-.435-.757.246-.644 1.018-.812 1.001-1.244-.124-.672-1.752-12.627-1.9-14.349-.178-.758.758-3.03 1.128-6.981 1.135-6.493.012-9.666.604-9.001 1.68.241.39-1.083.709-2.943.709-4.925 0-13.58 1.644-13.063 2.482.245.396-1.854.718-4.676.718-2.816 0-6.797.505-8.847 1.122-2.546.766-3.727.844-3.727.247 0-.481-.529-.176-1.175.678-.898 1.188-1.183 1.271-1.212.353-.022-.708-.279-.872-.625-.4-.58.789-2.303 1.074-8.588 1.423-1.76.097-3.427.489-3.705.871-.509.699-2.541 1.06-9.895 1.759-5.964.567-5.959.566-5.552 1.225.655 1.06-.757 1.409-6.686 1.653-3.169.13-5.762.464-5.762.742 0 .278-.9.333-2 .123-1.29-.247-2-.917-2-1.889 0-.829-.368-1.507-.817-1.507-.45 0-1.227-.9-1.729-2-.501-1.1-1.225-2-1.609-2-.385 0-1.845-1.17-3.246-2.6-1.4-1.43-2.828-2.51-3.173-2.4-.344.11-.626-.26-.626-.822 0-.562-.72-1.639-1.6-2.392-.88-.754-1.6-1.964-1.6-2.69s-.539-1.719-1.198-2.208c-.659-.488-1.278-1.879-1.375-3.09-.097-1.21-.747-2.382-1.445-2.604-.859-.272-1.322-1.501-1.43-3.798-.24-5.078-1.016-9.396-1.689-9.396-.328 0-.618-.45-.645-1-.179-3.645-1.413-9.922-2.507-12.748-.458-1.181-.921-3.862-1.029-5.958-.124-2.392-.734-4.346-1.64-5.252-.831-.831-1.442-2.609-1.442-4.195 0-1.514-.416-3.009-.924-3.323-.611-.378-.704-.217-.276.476.428.693.335.854-.276.476-.508-.314-.924-1.28-.924-2.148 0-.868-.518-1.777-1.151-2.02-.633-.243-1.387-1.516-1.676-2.829-.288-1.313-1.005-2.572-1.593-2.797-.587-.226-1.448-1.371-1.913-2.546-1.007-2.548-2.363-4.666-4.267-6.666-.77-.808-1.4-1.83-1.4-2.27 0-.44-.501-.8-1.113-.8-.613 0-1.32-.823-1.573-1.829-.252-1.006-2.271-3.769-4.486-6.141-2.216-2.372-4.028-4.609-4.028-4.972 0-.362-.452-.658-1.005-.658-.552 0-1.519-1.17-2.149-2.6-.629-1.43-2.157-3.618-3.395-4.862-1.238-1.243-2.251-2.748-2.251-3.342 0-.595-.63-1.712-1.4-2.482-1.244-1.244-1.374-2.929-1.168-15.141.244-14.438-1.129-21.871-4.262-23.074-.643-.247-1.17-1-1.17-1.674 0-.674-.399-1.225-.886-1.225s-.678-.54-.425-1.2c.254-.66.173-1.2-.179-1.2s-1.115-.888-1.695-1.973c-.581-1.085-1.33-1.803-1.665-1.596-.334.207-.846-1.033-1.137-2.754-.291-1.721-1.031-3.793-1.645-4.603-1.577-2.081-1.553-10.355.032-10.963.66-.254 1.2-1.252 1.2-2.219 0-2.811 1.146-.837 1.539 2.651.033.298.581 1.063 1.217 1.699.639.639 1.239 2.974 1.341 5.225.109 2.371.605 4.231 1.189 4.455.551.212 1.249 2.031 1.551 4.043.301 2.013.977 3.924 1.501 4.247.524.323.983 1.398 1.019 2.388.036.99.105 2.52.154 3.4.049.88.809 2.32 1.689 3.2.88.88 1.6 1.96 1.6 2.4 0 .44.39.8.867.8.476 0 .71.45.518 1-.191.55.679 1.993 1.934 3.207 1.254 1.214 2.281 2.381 2.281 2.594 0 .927 3.586 4.399 4.544 4.399.581 0 1.056.72 1.056 1.6 0 1.067.533 1.6 1.6 1.6.88 0 1.6.515 1.6 1.144 0 .63.81 1.268 1.8 1.419.99.151 1.722.68 1.627 1.176-.096.495.788 1.142 1.964 1.437 1.176.295 2.588 1.18 3.138 1.965.994 1.419 1.353 1.444 8.871.606 1.43-.159 2.6.012 2.6.382 0 .369.501.671 1.114.671.613 0 1.322.54 1.575 1.2.254.66.988 1.2 1.632 1.2.644 0 1.408.747 1.698 1.66.29.913.735 1.453.989 1.199.254-.255 1.183.168 2.065.939 1.186 1.038 1.447 1.091 1.005.202-.328-.66-.068-.553.578.238.647.79 2.202 1.624 3.457 1.851 1.254.228 2.57.931 2.924 1.562.353.632 1.575 1.149 2.715 1.149 1.139 0 2.471.524 2.96 1.164.772 1.012 3.261 1.745 6.688 1.97.55.036.91.495.8 1.018-.11.524.485 1.101 1.322 1.283 2.5.541 4.22-3.733 2.491-6.189-.602-.853-.553-.997.187-.552.55.33 1 .399 1 .153 0-.75-2.839-3.337-4.261-3.883-.737-.283-1.339-.856-1.339-1.275 0-.419-1.08-.999-2.4-1.289-1.32-.29-2.4-1.014-2.4-1.61 0-.595-.72-1.311-1.6-1.59-.88-.279-1.6-.982-1.6-1.561s-.73-1.243-1.623-1.477c-.893-.233-1.523-.725-1.4-1.093s-.137-.78-.577-.917c-.44-.136-1.058-.946-1.374-1.8-.316-.853-1.08-1.552-1.698-1.552-.687 0-1.317-1.21-1.621-3.113-.274-1.712-1.04-3.32-1.702-3.575-.663-.254-1.163-1.103-1.112-1.887.087-1.335.116-1.337.458-.025.202.77.61 1.43.908 1.466 3.599.437 5.38 1.029 6.113 2.031.595.814 2.489 1.252 5.859 1.353 3.608.109 4.875.425 4.599 1.15-.209.55-.031 1 .395 1a.79.79 0 0 0 .775-.8c0-.44.63-.811 1.4-.825 2.305-.042 4.312-1.943 3.212-3.043-.709-.709-.666-.932.181-.932.797 0 .713-.292-.297-1.031-.775-.566-1.294-1.556-1.152-2.2.176-.806-.565-1.248-2.39-1.423-1.455-.14-2.844-.77-3.085-1.4-.242-.63-.942-1.146-1.555-1.146a1.113 1.113 0 0 1-1.114-1.107c0-.608-.72-1.295-1.6-1.525-.88-.23-1.6-.992-1.6-1.693 0-.701-.54-1.275-1.2-1.275-.66 0-1.2-.305-1.2-.678 0-.372-.72-1.507-1.6-2.522-1.434-1.653-1.972-3.242-1.695-5 .052-.33-.175-.51-.505-.4-.684.228-1-.466-1-2.194 0-1.049.362-1.055 3-.048 1.65.629 4.44 1.302 6.2 1.494 4.562.5 5.471.796 6.572 2.148.769.945.983.969 1.003.114.014-.597.491-.906 1.062-.687 1.327.509 1.72-3.666.549-5.852-.841-1.573.828-2.147 4.694-1.616.594.081.843-.236.553-.705-.29-.47-.206-.854.186-.854.393 0 .714-.54.714-1.2 0-.66-.266-1.2-.591-1.2-.326 0-.4-.735-.165-1.634.235-.899.111-1.562-.275-1.473-1.026.235-3.582-.982-5.104-2.432-.728-.693-3.546-3.333-6.261-5.865-2.715-2.533-4.937-5.143-4.937-5.8 0-.658-.54-1.196-1.2-1.196-.812 0-1.2-.812-1.2-2.512 0-1.422-.608-3.01-1.4-3.659-.77-.631-.95-.92-.4-.641.55.278 1 .155 1-.274 0-.429-.388-.91-.863-1.068-.475-.159-.991-1.664-1.147-3.346-.156-1.681-.938-3.804-1.737-4.716-.799-.913-.947-1.362-.329-.998.834.491.943.372.422-.462-.386-.618-.778-1.664-.872-2.324-.958-6.705-1.275-7.97-1.902-7.583-.735.454-1.073-.652-1.961-6.417-.674-4.371-3.009-10.385-4.503-11.6-.638-.518-1.872-4.221-1.667-5 .088-.33-.381-.6-1.041-.6-.66 0-1.2-.551-1.2-1.225s-.54-1.432-1.2-1.686c-.66-.253-1.2-.962-1.2-1.575s-.527-1.114-1.172-1.114c-.644 0-1.562-.73-2.04-1.622-.478-.893-1.181-1.429-1.564-1.193-.382.236-1.297-.172-2.032-.907-1.13-1.13-1.448-1.162-2.052-.208-.505.798-.719.836-.728.13-.017-1.391-10.121-1.391-10.682 0-.323.8-.416.8-.467 0-.081-1.282-44.572-1.474-44.999-.193M298.8 271.2c.378 1.191 1.21 1.6 3.254 1.6 1.51 0 2.746.371 2.746.825 0 .454.602 1.056 1.339 1.339.736.283 1.958 1.081 2.716 1.775a130.35 130.35 0 0 0 3.529 3.061l2.152 1.8h-2.942c-1.663 0-3.769-.651-4.846-1.498-1.527-1.201-3.441-1.526-9.671-1.642-7.74-.145-9.428-.445-8.742-1.556.199-.321-1.865-.521-4.587-.443-6.866.196-7.105.237-6.548 1.139.316.512-2.549.836-7.953.9-11.698.138-11.654.133-12.8 1.7-.72.985-2.124 1.4-4.738 1.4-2.186 0-4.943.658-6.7 1.6-1.642.88-4.161 1.6-5.597 1.6-1.788 0-2.612.378-2.612 1.2 0 .793-.794 1.2-2.343 1.2-1.288 0-2.881.538-3.538 1.196-.658.657-1.995 1.317-2.971 1.466-.976.149-2.213.871-2.749 1.604-.536.733-1.925 1.412-3.087 1.508-1.162.096-2.112.645-2.112 1.22s-.81 1.371-1.8 1.769c-.99.398-2.88 1.642-4.2 2.765a4327.75 4327.75 0 0 1-3.4 2.888c-.55.466-1 .625-1 .354s-.984.705-2.187 2.169c-1.202 1.463-2.642 2.949-3.2 3.301-.557.352-1.024 1.072-1.038 1.6-.014.528-.535 1.633-1.158 2.455-1.105 1.459-1.131 1.459-1.117 0 .012-1.195-.346-3.284-.839-4.895-.033-.11-.03-.43.007-.711.038-.28-.297-.736-.744-1.012s-.955-3.435-1.129-7.018c-.208-4.273-.775-7.215-1.647-8.546-1.588-2.423-1.389-2.578 4.197-3.241 2.389-.284 4.729-.833 5.2-1.22.47-.386 3.153-.867 5.962-1.068 3.622-.258 5.32-.745 5.84-1.674.564-1.009 1.964-1.311 6.093-1.315 2.948-.003 6.278-.484 7.4-1.069 1.121-.586 4.503-1.295 7.515-1.576 3.13-.292 6.054-1.034 6.824-1.731.989-.895 3.192-1.219 8.284-1.219 5.633 0 6.937-.226 6.937-1.2 0-.906 1.029-1.216 4.2-1.266 6.059-.095 8.907-.682 9.638-1.988 1.152-2.058 23.498-1.638 24.162.454m.378 37.002c1.088.769 3.011 1.398 4.274 1.398s3.211.72 4.33 1.6c1.118.88 2.525 1.6 3.126 1.6s1.092.353 1.092.785c0 .431.9 1.01 2 1.286 1.1.277 2.01.913 2.022 1.416.012.502 1.265 1.813 2.783 2.913 1.519 1.1 2.973 2.63 3.232 3.4.259.77.987 1.4 1.617 1.4s1.146.671 1.146 1.492.708 2.393 1.574 3.493c.865 1.1 1.345 2.229 1.066 2.508-.278.279-.13.507.33.507s1.302 1.17 1.873 2.6c.57 1.43 1.718 3.59 2.551 4.8 1.657 2.407 1.789 2.288-2.836 2.558-.793.046-1.704.508-2.025 1.027-.32.518-3.091 1.163-6.158 1.433l-6.916.608c-.738.064-1.182.375-.987.69.616.997-.716 1.317-6.472 1.556-3.311.138-6.149.691-6.944 1.353-1.269 1.059-4.386 1.53-11.256 1.7-1.944.049-2.93.427-2.8 1.075.14.699-1.555 1.12-5.631 1.4-3.484.239-6.084.812-6.462 1.424-.38.617-2.973 1.177-6.524 1.409-3.241.212-6.653.884-7.581 1.492-.929.609-3.829 1.234-6.446 1.389-2.924.173-5.164.745-5.815 1.484-.939 1.065-1.001 1.066-.541.002.371-.858.204-.818-.587.143-.838 1.018-2.644 1.388-7.445 1.529-4.009.117-6.733.579-7.411 1.256-.589.59-2.756 1.127-4.814 1.194-5.716.186-5.817.208-6.812 1.484-.512.657-1.787 1.314-2.833 1.461l-1.901.268.38-11.768c.318-9.85.595-11.888 1.701-12.507.763-.427 1.322-1.737 1.322-3.1 0-1.582.402-2.36 1.22-2.36.705 0 1.415-.976 1.682-2.312.255-1.271 1.454-3.397 2.665-4.723 1.212-1.327 2.429-3 2.704-3.718.276-.718 1.585-1.922 2.91-2.676 1.325-.754 2.411-1.821 2.414-2.371.003-.55.645-1 1.427-1s2.039-.72 2.792-1.6c.754-.88 1.875-1.6 2.493-1.6.617 0 1.329-.54 1.582-1.2.254-.66 1.166-1.2 2.029-1.2.862 0 2.108-.54 2.768-1.2.66-.66 2.125-1.2 3.257-1.2 1.131 0 2.75-.693 3.596-1.539 1.104-1.104 2.859-1.596 6.2-1.738 2.564-.11 4.894-.547 5.178-.973 1.626-2.438 32.481-2.737 35.861-.348m35.412 65.248c.555.743 1.72 1.474 2.588 1.626.868.152 2.058.962 2.645 1.8.587.838 1.609 1.524 2.27 1.524.689 0 .963.385.643.904-.335.541-.128.76.514.546 1.094-.365 3.95 1.604 3.95 2.722 0 .612 2.318 3.563 5 6.365.77.805 1.4 1.834 1.4 2.288 0 .454.54 1.032 1.2 1.286.66.253 1.2 1.422 1.2 2.597s.576 2.959 1.281 3.965c1.134 1.618 1.488 3.352 2.106 10.308.088.979.621 1.958 1.186 2.175 1.329.51 1.35 6.389.027 7.787-.55.581-1.076 1.777-1.168 2.657-.502 4.785-1.258 8.045-1.968 8.484-.44.272-.728.635-.64.805.365.708-1.931 7.111-2.551 7.111-.37 0-.68.45-.689 1-.023 1.414-9.387 11.446-10.436 11.18-.477-.121-.66.114-.408.523.252.408-1.431 1.972-3.741 3.474-4.975 3.237-14.547 7.445-13.691 6.02.473-.786.346-.792-.599-.028-.66.533-2.708 1.073-4.553 1.2-1.844.127-3.354.545-3.355.929 0 .384-.61.204-1.355-.4-.919-.746-1.161-.777-.752-.098.33.55.309 1.046-.047 1.102-.356.056-1.367.232-2.247.39-1.819.327-9.399 1.165-12.4 1.371-1.1.075-2.36.547-2.8 1.048-.44.501-3.234 1.09-6.208 1.308-2.974.219-5.892.8-6.483 1.291-.592.491-3.378 1.065-6.192 1.276-6.227.467-7.043.63-9.264 1.852-.961.529-3.671.962-6.022.962-2.678 0-4.979.493-6.16 1.32-1.192.835-4.048 1.439-7.768 1.643-3.236.177-6.878.841-8.093 1.475-3.992 2.082-8.196 1.556-8.289-1.038-.184-5.1-.544-6.941-1.411-7.23-.506-.169-.716-.636-.468-1.038.249-.403.131-.732-.261-.732-.393 0-.726-1.53-.741-3.4-.059-7.336-.245-8.599-1.24-8.4-.625.125-1.093-.924-1.248-2.8-.262-3.164 2.286-4.539 3.337-1.8.254.66 1.346 1.2 2.429 1.2 1.082 0 2.482.514 3.11 1.142.628.628 2.454 1.388 4.057 1.689 1.603.301 2.915.828 2.915 1.171 0 .988 6.781 2.47 11.4 2.491.77.004 1.4.365 1.4.804 0 .439.36.575.8.303.44-.272.8-.203.8.153 0 .478 24.188.786 25.4.323.11-.042.43-.045.711-.008.28.038.815-.412 1.187-1 .56-.883.68-.877.69.03.009.853.263.889 1.137.164.945-.784 5.386-1.5 11.875-1.915.77-.05 1.4-.553 1.4-1.118 0-.62 1.033-1.043 2.6-1.064 1.43-.019 4.04-.581 5.8-1.249 1.76-.667 4.46-1.585 6-2.039 1.54-.454 3.142-1.152 3.56-1.551.418-.399 1.352-.726 2.076-.726s1.968-.72 2.764-1.6c.796-.88 2.068-1.6 2.826-1.6s1.826-.54 2.374-1.2c.548-.66 1.648-1.2 2.444-1.2.797 0 1.677-.72 1.956-1.6.279-.88.937-1.6 1.462-1.6.525 0 2.022-.99 3.327-2.2 1.305-1.21 2.561-2.2 2.792-2.2.23 0 .341-.234.246-.52-.096-.286.714-.743 1.8-1.015 1.085-.273 1.973-.987 1.973-1.587s.73-1.282 1.623-1.516c.893-.233 1.523-.725 1.4-1.093-.284-.851 3.099-4.269 4.224-4.269.466 0 .625-.36.353-.8-.272-.44-.178-.8.21-.8 1.64 0 1.127-7.87-.573-8.78-.9-.482-1.637-1.404-1.637-2.048 0-.645-.27-1.129-.6-1.077-1.581.249-2.6-.19-2.6-1.121 0-.564-.959-1.104-2.13-1.201-1.203-.1-3.073-1.232-4.294-2.6-3.264-3.655-9.576-5.219-9.576-2.373 0 .88-.399 1.6-.886 1.6s-.678-.54-.425-1.2c.971-2.529-.43-1.058-1.554 1.632-.651 1.558-1.533 2.617-1.959 2.353-.427-.264-.776.262-.776 1.168 0 .906-.346 1.647-.769 1.647-.423 0-1.457.739-2.299 1.642-.841.903-2.27 1.698-3.175 1.766-.905.068-1.502.357-1.327.641.349.564-3.656 2.717-4.63 2.491-.33-.077-.51.294-.4.824.11.53-.16.993-.6 1.03-2.174.182-5.733 1.45-6.822 2.431-.672.606-2.562 1.191-4.2 1.301-1.802.122-2.978.61-2.978 1.238 0 .697-1.31 1.069-4 1.136-6.509.163-6.762.209-7.684 1.408-1.198 1.559-27.61 1.811-28.124.269-.181-.543-.658-.783-1.06-.535-.403.249-.733.161-.733-.195-.001-.356-1.501-.75-3.333-.876-1.945-.134-3.801-.8-4.458-1.6-.713-.868-.908-.931-.53-.171.399.803.022.695-1.14-.324-.956-.838-1.738-1.22-1.738-.849s-.734-.113-1.631-1.076c-.897-.963-2.139-1.751-2.759-1.751-1.412 0-5.21-3.455-5.21-4.739 0-.525-.361-.733-.801-.46-.441.272-1.153-.429-1.583-1.559-.429-1.129-1.059-1.961-1.398-1.848-.951.317-4.218-3.242-4.218-4.594 0-.66-.724-1.924-1.61-2.81-.885-.885-1.682-2.479-1.769-3.542-.088-1.063-.419-1.773-.735-1.577-.711.439-1.117-.252-1.781-3.034-.472-1.977-.277-2.207 2.282-2.687 1.54-.289 2.601-.846 2.359-1.238-.242-.391.571-.753 1.807-.802a99.153 99.153 0 0 0 4.647-.325c1.32-.129 3.545-.343 4.945-.476 1.399-.132 2.383-.501 2.187-.82-.643-1.04.874-1.393 6.716-1.564 4.209-.122 5.752-.457 5.752-1.246 0-.691 1.078-1.124 3-1.204 7.714-.322 10.818-.857 11.8-2.033.455-.544 3.218-1.024 6.4-1.113 3.08-.086 6.034-.496 6.565-.911.531-.416 1.303-.547 1.716-.291.413.255.943-.037 1.178-.648.279-.728 1.898-1.164 4.684-1.262 4.265-.149 8.707-.547 9.457-.847.22-.088.67-.117 1-.065.33.052.6-.242.6-.655 0-.412 1.35-.753 3-.757 1.65-.004 3.9-.252 5-.552 1.1-.3 2.992-.621 4.205-.714 1.212-.093 2.472-.465 2.8-.826.327-.362.089-.364-.529-.006-.755.439-.936.35-.552-.271.314-.508 1.11-.924 1.77-.924.748 0 .974.377.6 1-.479.797-.352.799.623.009.674-.545 3.441-1.085 6.151-1.2 2.709-.115 4.927-.479 4.929-.809.002-.33.702-.6 1.556-.6.854 0 1.726-.281 1.939-.625.726-1.176 3.687-.876 4.698.475m25.628 41.75c0 1.98.156 2.79.347 1.8.19-.99.19-2.61 0-3.6-.191-.99-.347-.18-.347 1.8" fill="#ed3094"/><path d="M73.6 2.953c-2.087.962-2.444 1.376-1.401 1.627.769.185 1.943-.208 2.609-.874.666-.666 1.936-1.071 2.823-.9.886.171 1.401-.031 1.143-.448-.65-1.052-1.916-.907-5.174.595m76 .247c.471.88 1.259 1.6 1.752 1.6.493 0 .244-.72-.552-1.6-1.844-2.038-2.291-2.038-1.2 0m3.2 2.676c0 .288.72 1.244 1.6 2.124.88.88 1.6 1.296 1.6.924s-.72-1.328-1.6-2.124c-.88-.796-1.6-1.212-1.6-.924M164 29.153c0 .634.326 1.354.725 1.601.399.246.568 1.257.377 2.247-.344 1.782-.339 1.781.472-.061.559-1.27.557-2.347-.006-3.4-.979-1.83-1.568-1.975-1.568-.387m3.551 13.598c.06 1.116.592 2.483 1.182 3.039.889.837.978.598.514-1.39-.737-3.158-1.833-4.224-1.696-1.649M43.134 49.4l-.333 3c-.148 1.32-.092 1.77.124 1s.726-1.4 1.134-1.4c.407 0 .741-.72.741-1.6 0-1.468-1.515-2.377-1.666-1m5.486 24.685c.508 2.655 1.78 3.261 1.78.848 0-1.079-.484-2.147-1.075-2.374-.771-.296-.97.135-.705 1.526m20.203 7.484c-1.904 1.204-.605 1.459 1.577.309 1.102-.581 1.461-1.054.8-1.054-.66 0-1.73.335-2.377.745M186.111 85.2c.576 1.502 1.177 1.507 3.136.025 1.47-1.111 1.415-1.175-1.022-1.2-1.966-.019-2.466.259-2.114 1.175m-17.831 2.948c.236.742.051 1.475-.413 1.63-.482.16-.283.745.464 1.364 1.126.936 1.236.904.802-.229-.497-1.294.253-1.654 2.867-1.374 1.039.111 1.044.023.038-.653-.639-.429-1.489-.578-1.889-.331-.4.248-1.082-.046-1.514-.653-.617-.865-.693-.812-.355.246m9.28 2.594c1.078.597 2.518.871 3.2.608.932-.358.743-.615-.76-1.033-3.336-.93-4.515-.724-2.44.425M115.105 95c-.052.33-.052.87 0 1.2.052.33-.445.6-1.105.6-.66 0-1.2.339-1.2.753 0 .83 1.531 1.982 2.005 1.509.463-.464 1.132-4.662.742-4.662-.191 0-.39.27-.442.6m.878 6c.466.55 1.562 1.868 2.437 2.928.875 1.061 1.858 1.642 2.185 1.291.327-.351.145-.799-.405-.995-.55-.197-1-.738-1-1.202 0-.893-2.36-2.953-3.432-2.997-.347-.014-.25.425.215.975m10.817 13.4c2.358 2.461 3.6 3.013 3.6 1.6 0-.44-.537-.8-1.193-.8s-1.643-.72-2.193-1.6c-.549-.88-1.34-1.6-1.756-1.6-.417 0 .277 1.08 1.542 2.4m40.4 3.733c0 .734.237 1.097.526.807.29-.289 1.1-.085 1.8.453.781.6.684.288-.25-.807-1.825-2.138-2.076-2.193-2.076-.453M42.297 126.6c-.836 1.569-.804 1.673.246.807.662-.546 1.381-.816 1.597-.6.216.216.393-.147.393-.807 0-1.766-1.138-1.46-2.236.6m110.566-.428c-.035.534.657 1.357 1.537 1.828 1.085.581 1.6.59 1.6.028 0-.455-.51-.828-1.133-.828-.624 0-1.315-.45-1.537-1-.304-.754-.419-.761-.467-.028m-7.733 1.144c-.544.874 2.217 1.557 3.171.784.495-.4 1.619-.912 2.499-1.138.88-.226.037-.355-1.874-.286-1.911.068-3.619.356-3.796.64m12.874 3.889c1.633 1.803 2.285 1.679 1.529-.29-.277-.723-1.061-1.315-1.743-1.315-1.046 0-1.013.248.214 1.605m30.845 5.195c-.846 4.02-.847 4.718-.004 3.875.49-.49.729-1.742.532-2.783-.198-1.04-.435-1.532-.528-1.092M41.612 152.46c.022 1.304 1.377 2.945 2.18 2.638.427-.164.108-.991-.708-1.838-.816-.847-1.478-1.207-1.472-.8m104.8 20.769c.022 1.377 1.485 3.141 2.097 2.529.328-.328-.013-1.205-.757-1.948-.743-.744-1.346-1.006-1.34-.581m-92.45 7.622c-.021 2.114.273 3.651.653 3.416.38-.235.529-.589.332-.787-.198-.198-.085-1.58.251-3.071.405-1.797.306-2.827-.293-3.056-.593-.226-.918.982-.943 3.498m96.438-.404c0 .686.36 1.025.8.753.44-.272.8-.053.8.486s.188.792.419.562c.597-.598-.451-3.048-1.305-3.048-.393 0-.714.561-.714 1.247m4.863 9.667c-.035.943.528 1.942 1.25 2.219.983.377 1.11.247.508-.515-.444-.56-1.006-1.558-1.25-2.218-.304-.819-.465-.656-.508.514m8.865 37.086c.218 2.566 1.053 3.956 2.397 3.988.774.018-.2-3.342-1.504-5.188-1.054-1.492-1.114-1.411-.893 1.2m113.205 12.533c-.985.986-.545 1.867.934 1.867.806 0 1.466-.54 1.466-1.2 0-1.226-1.44-1.626-2.4-.667m-14.896 3.022c-.783.944-.665 1.133.647 1.034.883-.067 1.446-.379 1.251-.695-.195-.315.28-.738 1.055-.941 1.132-.295 1.074-.386-.292-.46-.936-.051-2.133.427-2.661 1.062m-18.237 2.94c-3.583 1.035-3.255 1.505 1.047 1.505 2.006 0 3.444-.329 3.195-.732-.248-.402 0-.914.553-1.137 1.759-.709-2.09-.417-4.795.364m-203.337 1.752c-.035.796-.363 1.262-.73 1.035-.366-.226-.666.13-.666.791 0 1.051.146 1.056 1.159.044.638-.638.966-1.645.73-2.238-.287-.72-.451-.598-.493.368m171.49 4.102c-1.378 1.02-1.395 1.127-.145.952 1.559-.218 3.803-2.101 2.505-2.101-.444 0-1.506.517-2.36 1.149m-11.161 2.064c-.276.447-.785.639-1.129.426-.345-.213-1.31.129-2.145.761-1.454 1.101-1.456 1.15-.044 1.175.81.014 2.389-.695 3.508-1.575 1.118-.88 1.646-1.6 1.173-1.6-.473 0-1.087.366-1.363.813M184 256.307c0 .168.9.479 2 .689 1.1.21 2 .072 2-.307s-.9-.689-2-.689-2 .138-2 .307m112.562 14.626c.225.587.731 1.067 1.124 1.067.393 0 .714-.48.714-1.067 0-.586-.506-1.066-1.124-1.066-.618 0-.939.48-.714 1.066m-262.027.504c-1.052 1.268-.922 4.87.138 3.81.672-.672 1.494-4.847.955-4.847-.128 0-.619.467-1.093 1.037m211.865 5.061c0 1.063.217 1.118 1.2.302.66-.548 1.2-1.132 1.2-1.298 0-.166-.54-.302-1.2-.302-.66 0-1.2.584-1.2 1.298m28.4 1.102c-.272.44.268.8 1.2.8.932 0 1.472-.36 1.2-.8-.272-.44-.812-.8-1.2-.8-.388 0-.928.36-1.2.8m-113.2 1.553c0 .414.326.954.725 1.201.399.246.554 1.102.344 1.903-.209.8.185 1.924.875 2.497 1.05.871 1.256.837 1.256-.209 0-.688-.366-1.477-.813-1.753-.447-.276-.621-.813-.387-1.192.234-.379.054-.919-.4-1.2-.454-.281-.619-.846-.366-1.255.253-.41.079-.745-.387-.745s-.847.339-.847.753m72.36-.021c-.418.403-1.66.894-2.76 1.091l-2 .359 2.102.109c1.156.06 2.55-.431 3.098-1.091 1.089-1.312.778-1.642-.44-.468m-88.65 2.068c1.85 3.159 1.89 3.206 1.89 2.222 0-.465-.741-1.695-1.647-2.733l-1.648-1.889 1.405 2.4m-113.624 1.665c-.728 1.895-.587 2.892.327 2.327.447-.276.606-.838.353-1.247-.253-.41-.079-.745.387-.745s.847-.36.847-.8c0-1.266-1.379-.93-1.914.465m318.714 4.884c0 1.482 2.346 4.001 2.375 2.549.014-.716-.515-1.75-1.175-2.298s-1.2-.661-1.2-.251M223.2 291.6c-.816.983-.761 1.2.302 1.2.714 0 1.298-.54 1.298-1.2 0-.66-.136-1.2-.302-1.2-.166 0-.75.54-1.298 1.2m-193.867 3.333c-.827.828-.628 4.914.267 5.467.483.299.8-.792.8-2.753 0-3.316-.131-3.649-1.067-2.714m184.795 2.525c-1.937 2.141-1.625 2.881.414.982.958-.893 1.556-1.809 1.328-2.036-.227-.228-1.011.247-1.742 1.054m-15.728 6.056c0 .613.54 1.322 1.2 1.575 1.342.515 1.408.383.714-1.424-.599-1.563-1.914-1.666-1.914-.151m-51.988 4.286c.008.864.238 1.063.6.52.324-.484 1.128-1.086 1.788-1.337.802-.305.603-.478-.6-.52-1.209-.042-1.796.396-1.788 1.337m133.388-.821c1.43.177 3.77.177 5.2 0 1.43-.178.26-.323-2.6-.323-2.86 0-4.03.145-2.6.323m-112.166 2.223c.311 1.319 1.091 2.938 1.735 3.598.954.978.931.615-.125-1.959-1.648-4.02-2.334-4.718-1.61-1.639m34.791-.202c-.554 1.379-.735 1.473-.774.4-.028-.77-.424-1.4-.879-1.4-.558 0-.545.53.04 1.622.991 1.852 2.002 1.539 2.617-.81.568-2.175-.105-2.049-1.004.188m-160.404 4.567c-.288.464.056 1.066.763 1.337 1.76.676 2.307-.066.907-1.229-.789-.654-1.312-.688-1.67-.108m80.69 11.164c.049 1.356.359 2.466.689 2.467.807.003.741-2.537-.101-3.865-.446-.704-.646-.228-.588 1.398M228 325.2c-.816.983-.761 1.2.302 1.2.714 0 1.298-.54 1.298-1.2 0-.66-.136-1.2-.302-1.2-.166 0-.75.54-1.298 1.2m-177.6 6.094c0 .66.529 1.899 1.175 2.753.887 1.173 1.174 1.259 1.174.353 0-.66-.528-1.899-1.174-2.753-.888-1.173-1.175-1.259-1.175-.353m73.77.947c.099 1.188.64 2.159 1.204 2.159 1.324 0 1.264-.818-.204-2.759-1.127-1.491-1.171-1.465-1 .6m98.23.159c-.565.681-.848 1.419-.628 1.639.22.22.863-.158 1.428-.839.565-.681.848-1.419.628-1.639-.22-.22-.863.158-1.428.839m-94.642 9.787c-.195.337.297 1.281 1.091 2.097 1.405 1.444 1.433 1.438 1.002-.212-.492-1.88-1.548-2.832-2.093-1.885M52.986 354.4c0 1.54.164 2.17.365 1.4.202-.77.202-2.03 0-2.8-.201-.77-.365-.14-.365 1.4m194.214 4.8c0 .44-.405.71-.9.6-.495-.11-1.062.34-1.261 1-.286.952-.206.979.39.132.412-.588 1.061-1.011 1.44-.94.38.07.82-.259.978-.732.157-.473.076-.86-.18-.86-.257 0-.467.36-.467.8m-153.6 1.902c0 .166.54.75 1.2 1.298.983.816 1.2.761 1.2-.302 0-.714-.54-1.298-1.2-1.298-.66 0-1.2.136-1.2.302M53.002 367.6c.009 1.76.172 2.386.364 1.391.191-.995.184-2.435-.016-3.2-.201-.765-.357.049-.348 1.809m36.89 13.6c.002 4.4.137 6.098.299 3.773.162-2.325.16-5.925-.004-8s-.297-.173-.295 4.227m254.659.359c1.159 1.354 2.649 1.549 2.649.347 0-.22-.322-.201-.716.042-.394.244-.923-.095-1.175-.753-.252-.657-.827-1.195-1.276-1.195-.45 0-.217.702.518 1.559m-61.651.468c-.565 1.472 1.587 1.512 4.174.077 1.832-1.016 1.812-1.042-.925-1.144-1.797-.068-2.96.314-3.249 1.067m-15.128 3.333c.329.857.64 1.003.843.395.177-.531.648-.763 1.047-.517.399.247 1.358.08 2.132-.37 1.143-.666.849-.824-1.569-.844-2.476-.02-2.887.204-2.453 1.336M89.786 393.6c0 1.54.164 2.17.365 1.4.202-.77.202-2.03 0-2.8-.201-.77-.365-.14-.365 1.4m-35.263 12.47c-.722 3.597-.687 4.68.179 5.546.901.902 1.099.177 1.216-4.47.169-6.713-.205-7.002-1.395-1.076m68.327 4.386c1.663 1.837 1.95 1.901 1.95.437 0-.608-.753-1.303-1.674-1.544-1.606-.42-1.617-.375-.276 1.107m199.337 2.149c-1.203 1.255-2.187 2.601-2.187 2.99 0 .389.7-.044 1.555-.963.855-.918 1.989-1.813 2.52-1.99.531-.177.815-.772.632-1.321-.215-.644-1.111-.187-2.52 1.284M359.263 415c.07 4.183.458 3.844.918-.8.164-1.65.01-3-.342-3-.351 0-.611 1.71-.576 3.8m1.739.6c.009 1.76.172 2.386.364 1.391.191-.995.184-2.435-.016-3.2-.201-.765-.357.049-.348 1.809m-275.836 3.412c-.459.324-.91 1.639-1.002 2.924-.093 1.284-.041 2.184.115 2 .353-.419 2.096-5.541 1.879-5.524-.087.007-.533.277-.992.6m73.234 2.09c0 1.332.438 2.098 1.2 2.098.66 0 1.2-.496 1.2-1.102 0-.606-.54-1.55-1.2-2.098-1.015-.842-1.2-.672-1.2 1.102m125.8 6.628c-1.352.545-1.271 1.87.114 1.87.613 0 1.322-.54 1.575-1.2.471-1.227.077-1.383-1.689-.67m-201.519 1.678c.291.47.131.988-.354 1.15-.486.162-.752 1.183-.591 2.268.28 1.889.333 1.863 1.231-.608.675-1.859.692-2.734.062-3.124-.501-.309-.65-.175-.348.314m51.253 3.104c.113.771.624 1.541 1.136 1.711 1.301.434 1.162-1.034-.206-2.17-.912-.757-1.095-.667-.93.459M340.2 436.2c.11.55-.25.91-.8.8-.55-.11-1 .16-1 .6 0 1.085 1.072 1.008 2.24-.16 1.168-1.168 1.245-2.24.16-2.24-.44 0-.71.45-.6 1m-178.575 1.2c.035 1.916 2.375 5.069 2.375 3.2 0-.718-.344-1.518-.765-1.778-.421-.26-.562-1.002-.314-1.648.247-.646.052-1.174-.435-1.174s-.875.63-.861 1.4m2.375 8.476c0 .288.72 1.244 1.6 2.124.88.88 1.6 1.296 1.6.924s-.72-1.328-1.6-2.124c-.88-.796-1.6-1.212-1.6-.924m-114.858 4.336c-1.106.757-2.206 3.646-1.137 2.985.749-.463 2.701-3.61 2.223-3.585-.125.007-.614.277-1.086.6M236 454c.548.66 1.762 1.151 2.698 1.091 1.63-.104 1.626-.124-.098-.456-.99-.19-1.8-.681-1.8-1.091 0-.409-.404-.744-.898-.744-.62 0-.59.371.098 1.2m98.682 1.995c-.945.381-1.936 1.045-2.201 1.474-.731 1.182 2.519.136 3.591-1.155 1.046-1.262.982-1.276-1.39-.319m-137.87 2.205c.007.77.345 1.926.752 2.568.536.848.719.464.666-1.4-.075-2.609-1.44-3.735-1.418-1.168m57.72.915c-.808.502-.662.769.6 1.099.916.24 1.902.054 2.191-.413.293-.474.147-.615-.331-.32-.47.291-.976.178-1.124-.25-.152-.442-.731-.492-1.336-.116m-109.732 4.92c0 .313.54 1.017 1.2 1.565.997.828 1.2.731 1.2-.569 0-.86-.54-1.564-1.2-1.564-.66 0-1.2.256-1.2.568m55.2 11.471c0 .66.36 1.422.8 1.694.44.272.8-.046.8-.706 0-.66-.36-1.422-.8-1.694-.44-.272-.8.046-.8.706M75.402 478c.009 1.76.172 2.386.364 1.391.191-.995.184-2.435-.016-3.2-.201-.765-.357.049-.348 1.809m281.902.816c-.271.707-.855 1.061-1.298.787-.443-.273-.806-.116-.806.35 0 .466.316.847.702.847.945 0 2.833-2.332 2.311-2.854-.229-.228-.637.163-.909.87M151.6 483.2c.796.88 1.585 1.6 1.752 1.6.167 0-.081-.72-.552-1.6-.471-.88-1.259-1.6-1.752-1.6-.493 0-.244.72.552 1.6m50.157 1.603c-.096 1.26.195 2.52.647 2.8.452.279.613.845.358 1.258-.255.413.099 1.314.787 2.002.688.688 1.251.887 1.251.441 0-.445-.366-1.036-.813-1.312-.447-.276-.621-.813-.387-1.192.234-.379.057-.917-.393-1.196-.451-.278-.662-1.377-.469-2.442.193-1.065.091-2.097-.227-2.294-.319-.196-.658.674-.754 1.935m-20.12 7.597c-.007.44.302 1.296.686 1.902.77 1.216 2.484.556 2.465-.949-.008-.631-.247-.582-.707.143-.56.885-.861.808-1.563-.4-.478-.823-.875-1.136-.881-.696M32 497.2c-.816.983-.761 1.2.302 1.2.714 0 1.298-.54 1.298-1.2 0-.66-.136-1.2-.302-1.2-.166 0-.75.54-1.298 1.2m-5.034 2.269c.296.479-.041.596-.835.292-.732-.281-1.331-.162-1.331.264 0 1.139 2.064.944 3.089-.292.668-.805.603-1.066-.267-1.066-.633 0-.928.361-.656.802m-4.833.264c-.971.972-.552 1.824.667 1.356.66-.253 1.2-.782 1.2-1.175 0-.838-1.102-.945-1.867-.181m164.267.054c0 .563 2.616 2.554 3.4 2.588 1.328.056.466-1.231-1.406-2.1-1.097-.508-1.994-.728-1.994-.488m102.4.213c-1.067.689-1.067.775 0 .775.66 0 1.74-.348 2.4-.775 1.067-.689 1.067-.775 0-.775-.66 0-1.74.348-2.4.775m-13.067 1.333c-1.048 1.049-.506 1.71 1.067 1.299.88-.23 1.6-.737 1.6-1.125 0-.827-1.891-.95-2.667-.174m-75.67.81c-.035.518-.629 1.508-1.32 2.2-.692.691-.916 1.257-.498 1.257 1.214 0 2.745-2.251 2.294-3.373-.279-.694-.433-.721-.476-.084M260 504.886c0 .487-.559.671-1.242.409-.711-.273-1.033-.139-.752.314.712 1.153 3.055.967 4.841-.384 1.488-1.125 1.46-1.175-.647-1.2-1.21-.014-2.2.374-2.2.861m-16.442 2.246c.248.402 0 .914-.553 1.137-.553.222-.105.417.995.432 1.1.015 3.08-.468 4.4-1.072l2.4-1.099-3.847-.065c-2.138-.036-3.646.26-3.395.667M71.851 512.2c-.342 5.966-.215 9.399.349 9.4.33 0 .6-2.7.6-6 0-5.972-.665-8.355-.949-3.4m156.349-2.07c-.55.222-1 .708-1 1.081 0 .661 4.597-.341 5.442-1.186.529-.529-3.082-.444-4.442.105M69.734 524.425c-.859 1.885-.812 1.966.672 1.172.877-.469 1.594-1.381 1.594-2.025 0-1.843-1.252-1.371-2.266.853m-27.534 4.94c.99.19 2.61.19 3.6 0 .99-.191.18-.347-1.8-.347s-2.79.156-1.8.347" fill="#f05"/></g></svg>