<svg width="959" height="500" xmlns="http://www.w3.org/2000/svg" display="block"><g fill-rule="evenodd"><path d="M193.949 36.536c1.489.572 3.189 1.502 3.777 2.065 1.335 1.279 1.549 1.275 2.938-.056.62-.594 2.32-1.523 3.777-2.064l2.65-.984-7.925-.001-7.925-.002 2.708 1.042m39.393 3.711c1.089 2.332 1.334 2.607 1.89 2.121 1.251-1.092 3.332-1.909 4.893-1.922 2.55-.02-.817-1.297-6.979-2.646l-1.055-.231 1.251 2.678m-71.888-1.018c-3.365.881-4.067 1.227-2.504 1.235.555.003 1.833.476 2.841 1.052 1.008.576 1.876.997 1.93.934.229-.269 1.868-3.647 1.868-3.852 0-.36-.841-.231-4.135.631m89.076 5.847c1.93 2.063 3.238 4.452 3.638 6.645.256 1.403.343 1.464 2.242 1.575 4.896.286 9.388 5.053 9.388 9.964 0 4.36-.45 4.727-5.783 4.727h-4.407l-1.11-1.335c-3.003-3.615-3.797-4.236-4.562-3.565-2.725 2.387-7.729 2.776-12.879 1.001l-2.985-1.029-.273 1.459c-1.055 5.623-7.105 7.333-22.954 6.49-8.37-.445-9.308-.772-10.397-3.623-.913-2.39-1.582-2.399-2.693-.035-1.474 3.136-1.89 3.264-12.036 3.703-14.908.646-20.139-.955-21.255-6.507-.276-1.374-.537-1.394-3.71-.287-3.929 1.372-8.252 1.238-11.176-.346l-2.32-1.256-1.683 1.935a489.94 489.94 0 0 0-2.305 2.666c-.654.767-8.587 1.106-9.633.41-.757-.503-1.509-3.372-1.343-5.119.232-2.429-.464-1.352-1.541 2.387l-.939 3.26-5.991.26c-3.296.144-13.719.284-23.163.313-19.699.06-18.218-.164-19.167 2.902-.402 1.3-.861 2.458-1.018 2.573-.336.244-2.06 6.915-2.06 7.97 0 .396-.17.782-.379.859-.406.149-1.706 8.193-1.706 10.554 0 .783-.188 1.539-.418 1.681-.26.16-.417 4.175-.417 10.66 0 6.658.15 10.403.417 10.403.23 0 .418.745.418 1.654 0 2.279 1.243 11.007 1.606 11.27.162.118.732 2.186 1.266 4.594.534 2.409 1.1 4.474 1.259 4.589.158.114.637 1.381 1.064 2.815.427 1.434.904 2.607 1.06 2.607.157 0 .532.751.835 1.668l.551 1.669h5.331c2.932 0 5.43-.161 5.552-.358.217-.352 9.302-.652 34.656-1.146l12.93-.251 2.086 2.184c2.383 2.496 6.192 5.827 6.663 5.827.175 0 .189-1.548.032-3.441-.413-4.994.069-5.444 5.628-5.251 3.646.126 4.203.251 5.162 1.153l1.076 1.011 1.015-.954c3.757-3.529 15.779-3.748 19.423-.352.745.693.941.71 1.985.169 2.826-1.461 13.097-2.072 15.741-.936 1.028.442 1.492.438 2.594-.018 2.72-1.128 12.318-.564 15.245.896 1.135.567 1.323.549 2.297-.218 4.298-3.38 16.808-2.936 19.667.698.66.839.865.912 1.147.408 1.147-2.05 8.535-2.774 10.725-1.051l1.11.873-.284 4.39c-.274 4.232-.255 4.375.511 3.961 1.115-.602 7.164-6.947 9.13-9.576l1.638-2.189h8.43c9.594 0 9.636-.008 9.988-1.885l.26-1.387 5.487-.149c3.017-.082 5.802-.003 6.188.176 1.06.49 18.178.405 18.485-.092.141-.23.614-.417 1.049-.417.822 0 3.385-2.308 4.726-4.256.424-.616 1.175-1.182 1.669-1.259.814-.127.776-.205-.404-.841-6.288-3.386-9.091-12.341-9.105-29.098-.014-15.842 2.762-24.279 9.096-27.64 1.721-.913 1.723-.918.55-1.059-1.204-.145-2.785-1.219-2.785-1.891 0-.205-.775-1.149-1.723-2.097l-1.723-1.724-8.6.078c-4.73.043-12.022.196-16.205.34l-7.605.26-.691-1.727c-.904-2.258-1.647-2.496-7.81-2.496h-5.095l-1.567-3.024c-3.918-7.56-9.384-13.781-15.404-17.533-3.503-2.184-3.503-2.184-1.712-.269m-104.27-.042c-5.051 2.873-9.504 7.449-12.391 12.735-1.541 2.821-1.265 2.679 1.038-.537 1.858-2.596 3.975-3.809 6.893-3.95 1.687-.082 2.094-.245 2.097-.841.004-1.088 2.249-5.839 3.084-6.526.608-.5 1.776-2.21 1.417-2.075-.065.025-1.027.562-2.138 1.194m-2.123 26.484c7.724 3.227-4.695 28.46-17.59 35.737-1.258.711-2.552 1.816-2.89 2.469-.97 1.875-3.151 5.082-4.321 6.354-.671.729-.91 1.277-.637 1.46.24.161 3.24 2.639 6.667 5.507 11.777 9.855 16.483 12.247 24.165 12.283 7.852.037 13.973-4.333 13.973-9.975 0-7.447-14.25-2.4-14.805 5.243a86.282 86.282 0 0 1-.172 2.132c-.251 1.921-3.376.695-3.376-1.324 0-9.308 17.603-16.595 20.673-8.557 3.486 9.129-10.536 18.01-23.314 14.766-7.318-1.858-11.099-4.377-24.849-16.552l-2.005-1.776-2.041.916c-6.253 2.806-14.67.497-13.733-3.769 1.013-4.609 6.814-5.853 12.944-2.775 3.577 1.797 3.682 1.798 4.701.071a75.15 75.15 0 0 1 1.485-2.404l.663-1.013-3.424.002c-14.225.008-16.912-17.134-4.042-25.784 2.928-1.968 7.564-2.963 8.667-1.86 1.361 1.362.036 2.837-2.548 2.837-10.21 0-15.123 16.601-6.193 20.924 6.003 2.906 8.665 1.685 10.895-4.998.971-2.909 2.012-5.853 2.314-6.541.303-.689 1.335-3.122 2.294-5.409 5.323-12.689 9.411-17.838 14.711-18.532.18-.024.984.232 1.788.568m169.732 1.26c0 .499-.332.891-.835.984-2.121.394-4.765 6.454-4.79 10.979-.003.612-.178 1.175-.388 1.251-1.495.545-1.554 33.021-.062 34.133.154.115.595 2.016.979 4.225.385 2.209 1.173 4.958 1.751 6.109.578 1.15 1.051 2.309 1.051 2.574 0 .265.625.743 1.388 1.062 2.641 1.104 2.758 2.297.225 2.297-.752 0-3.692-2.727-3.697-3.429-.001-.165-.451-1.291-1-2.502-.978-2.157-2.339-7.812-2.339-9.72 0-.53-.167-1.026-.371-1.102-1.498-.561-1.583-32.656-.09-33.716.162-.115.635-2.047 1.051-4.293.416-2.247.973-4.311 1.238-4.588.265-.277.818-1.266 1.231-2.197 1.183-2.67 4.658-4.212 4.658-2.067M140.111 74.36c-2.059 1.387-4.135 4.606-6.425 9.963-1.865 4.362-2.788 6.767-5.416 14.113-.534 1.491-1.273 3.415-1.644 4.275-1.08 2.511-.051 1.933 4.184-2.35 9.953-10.067 16.903-26.951 11.093-26.951-.21 0-1.017.427-1.792.95m189.92.6a9.268 9.268 0 0 0 2.294 0c.631-.096.115-.174-1.147-.174-1.261 0-1.778.078-1.147.174M168.855 93.644c4.649 5.909-2.325 19.808-9.938 19.808-5.66 0-6.24-3.739-1.907-12.304 2.474-4.891 2.624-5.655.708-3.604-2.162 2.315-3.699 1.179-1.818-1.344 2.376-3.186 5.673-4.194 7.015-2.146.957 1.461.576 2.975-2.148 8.531-3.073 6.266-3.357 8.364-1.134 8.364 4.62 0 9.385-9.965 6.582-13.764-2.187-2.965.383-6.411 2.64-3.541m-17.572.187c5.122 3.123 2.451 14.626-4.316 18.592-3.922 2.298-8.241.934-9.327-2.947-2.364-8.443 7.293-19.517 13.643-15.645m33.013.237c4.178 3.515-.085 9.413-9.366 12.957-1.568.599-1.811.842-1.587 1.586.923 3.065 4.547 2.024 7.365-2.116 1.79-2.629 3.574-1.596 2.144 1.242-3.759 7.463-13.926 7.587-13.926.17 0-8.529 10.474-17.96 15.37-13.839m-37.372 1.724c-.288.116-.521.915-.521 1.78 0 1.664-.829 2.752-2.295 3.011-1.649.291-3.702 6.682-2.891 9 1.234 3.531 5.245.747 7.634-5.298 2.431-6.154 1.58-9.908-1.927-8.493m33.057.056c-1.906.426-4.799 3.805-5.879 6.867-.752 2.131-.703 2.166 1.627 1.135 5.415-2.395 8.953-9.052 4.252-8.002m24.816 5.338c0 .926.092.984.892.555 1.184-.633 4.595-.165 6.732.925 6.108 3.116 4.606 7.77-2.961 9.175-2.903.539-3.412.123-3.412-2.793 0-2.13-.637-4.691-1.062-4.267-.112.112-.009 1.579.229 3.26.478 3.366.31 3.724-1.754 3.736-.877.005-1.432-.434-2.502-1.975l-1.376-1.981-.128 1.536c-.11 1.319-.301 1.574-1.355 1.806-.676.148-1.228.442-1.228.653 0 1.078-3.3.368-4.029-.867-.996-1.685-2.449-1.663-3.887.059-1.003 1.202-1.179 1.266-2.116.772-1.63-.86-1.629-1.192.01-3.899.853-1.41 1.877-3.548 2.275-4.753.398-1.204.872-2.19 1.055-2.19.182 0 .886-.111 1.565-.246 1.199-.24 1.256-.176 1.965 2.189.402 1.341.982 3.188 1.288 4.105l.557 1.669.033-1.954c.018-1.075-.162-2.466-.4-3.092-1.081-2.843 1.642-2.823 4.298.032l2.182 2.346-.141-2.528c-.141-2.519-.136-2.532 1.247-3.113 1.65-.694 2.023-.539 2.023.84m4.777 5.459c.229.991.641 1.801.914 1.801 2.672 0 2.432-2.927-.279-3.413-1.042-.187-1.049-.17-.635 1.612m-16.686 13.136c.829 2.907 1.745 6.937 2.036 8.955l.53 3.67 1.295-2.282c1.748-3.081 3.528-7.046 4.886-10.888l1.125-3.183 2.582-.49c1.421-.27 2.879-.576 3.241-.681.523-.151.807.513 1.392 3.257 1.218 5.709 5.857 19.169 5.069 14.708-.945-5.356-1.311-11.834-.81-14.338.287-1.44.757-1.548 4.477-1.038l1.936.265v9.145l1.355-.857c.746-.471 2.59-2.095 4.098-3.609l2.742-2.752 3.827-.248c3.986-.258 4.702.05 2.957 1.273-1.428 1-7.055 6.537-7.055 6.943 0 .659 9.007 6.15 9.417 5.74.265-.265-1.026-9.309-1.511-10.587-1.44-3.785 2.453-5.184 12.447-4.475l3.798.27.646 1.616c1.164 2.908 1.261 2.85-4.776 2.85-3.015 0-5.422.17-5.422.383 0 1.598.359 1.688 5.671 1.419l5.174-.262v1.551c0 2.877-.295 3.06-5.441 3.394l-4.615.299.127 1.092c.07.6.314 1.088.544 1.084.229-.004 2.528-.264 5.109-.577l4.693-.57.032-2.342c.057-4.181.665-5.377 3.66-7.198 1.456-.885 2.721-1.61 2.811-1.61.089 0 .044 1.935-.101 4.3-.398 6.512 1.19 9.565 3.68 7.075 1.562-1.562 1.468-5.34-.27-10.772-.539-1.688 4.591-3.789 6.043-2.475.622.563.894.56 2.535-.03 2.934-1.053 10.305.557 16.075 3.51 8.096 4.143 5.676 9.281-4.99 10.594l-3.722.459.248 2.653c.288 3.085.166 3.191-4.273 3.693l-2.542.287v-2.835c0-3.311-.794-8.343-1.237-7.839-.168.191-.629 1.192-1.024 2.225-2.196 5.738-10.009 8.64-14.067 5.225-1.148-.965-1.372-1.02-1.972-.479-.394.353-3.126.979-6.517 1.492-3.212.485-6.497 1.062-7.299 1.282-2.066.566-2.92.501-2.92-.221 0-.743-1.22-.812-2.67-.151-.933.425-1.684.123-7.261-2.92-3.421-1.867-6.322-3.394-6.447-3.394-.276 0 .873 4.508 1.399 5.492.426.796-.844 1.331-4.251 1.79-1.755.236-1.904.345-1.728 1.266.182.952.105.995-1.416.786-5.681-.783-5.661-.773-7.243-3.748l-1.457-2.74-2.086.242c-1.147.133-2.461.247-2.919.253-.552.008-1.259.722-2.086 2.108-2.292 3.841-1.889 3.649-4.647 2.207-1.719-.9-2.691-1.182-3.278-.952-2.074.815-2.645.503-2.919-1.595-1.152-8.815-1.545-9.858-2.281-6.053-1.19 6.145-1.25 6.299-2.552 6.549-3.894.75-3.528.848-4.1-1.104-.47-1.603-2.364-5.335-2.708-5.335-.075 0-.043 1.295.07 2.879l.206 2.879-2.451.482c-1.348.265-2.718.572-3.044.681-.879.294-1.271-.622-1.278-2.99-.008-2.694-1.123-9.241-2.122-12.464-.424-1.367-.731-2.512-.683-2.544.567-.387 4.944-2.271 5.275-2.271.948 0 5.94 5.645 7.261 8.212 1.398 2.715 1.723 2.161 3.338-5.693l.897-4.363 2.503-.905c3.183-1.15 3.122-1.215 4.984 5.325m-88.534-4.645c-3.079 2.869 2.723 5.108 7.628 2.944l1.658-.732-1.033-.657c-4.044-2.576-6.634-3.063-8.253-1.555m174.698 9.233c.204.763.482 1.926.617 2.584.267 1.296 1.591 1.352 5.107.218 2.513-.81-.176-3.225-4.35-3.905l-1.744-.285.37 1.388m-74.836 4.107c-.873 2.183-.925 2.077.998 2.077 1.561 0 2.162-.48 1.283-1.023-.212-.131-.508-.799-.659-1.485-.37-1.687-.822-1.567-1.622.431m35.801 34.396c-.736.564-.676.577.65.147 1.811-.587 2.041-.767.984-.767-.453 0-1.189.279-1.634.62" fill="#010101"/><path d="M206.257 35.882c-.558.246-.211.287 1.042.121 1.033-.137 1.955-.316 2.051-.399.362-.314-2.297-.075-3.093.278m25.318 2.178c.364.287.955 1.085 1.315 1.773.359.688.66 1.064.668.834.027-.727-1.616-3.128-2.14-3.128-.309 0-.248.202.157.521m-67.232 3.22c-.58 1.402-.818 1.507-1.674.743-.498-.444-.503-.412-.033.208.304.402.713.73.908.73.416 0 1.776-2.493 1.506-2.763-.1-.101-.418.386-.707 1.082m-6.361-.526c.519.1 1.27.096 1.668-.009.399-.104-.025-.186-.943-.181-.918.005-1.244.09-.725.19m81.33.007c.745.092 1.965.092 2.711 0 .746-.093.135-.169-1.356-.169s-2.101.076-1.355.169m10.937 4.494c1.241 1.377 2.34 2.597 2.442 2.712.102.114-.013-.167-.256-.626-.243-.459-1.342-1.679-2.442-2.711l-2-1.877 2.256 2.502M132.756 60.167c-.221.287-.415 1.554-.432 2.815l-.03 2.294.319-2.339c.176-1.286.452-2.553.614-2.815.397-.643.032-.608-.471.045M249.583 63.1l-.782.925.886-.747c.86-.726.926-.714 2.294.402 1.131.924 1.245.96.578.187-1.396-1.619-2.101-1.801-2.976-.767m-103.832.821l-1.225 1.355 1.355-1.225c1.264-1.142 1.547-1.486 1.225-1.486-.072 0-.682.61-1.355 1.356m17.809-.685c.375.113.799.79.941 1.503.143.713.346 1.21.452 1.104.485-.485-.525-2.658-1.271-2.733-.572-.057-.607-.02-.122.126m82.53 1.415c-.859.275-.896.34-.209.369.459.019 1.116-.147 1.46-.369.731-.473.223-.473-1.251 0m-109.996 3.228c1.328.083 3.393.082 4.589-.002 1.196-.084.109-.152-2.414-.151-2.523.001-3.502.07-2.175.153m121.794 0c1.327.083 3.392.082 4.588-.002 1.196-.084.11-.152-2.413-.151-2.524.001-3.502.07-2.175.153m-67.787 2.913c.75.093 1.876.091 2.503-.004.627-.095.013-.171-1.363-.169-1.377.003-1.889.081-1.14.173m15.843 0c.745.092 1.965.092 2.711 0 .745-.093.135-.168-1.356-.168s-2.101.075-1.355.168m-23.567.403a3.423 3.423 0 0 0 1.46 0c.402-.105.073-.191-.73-.191-.803 0-1.131.086-.73.191m-38.364 5.135c0 1.032.082 1.454.181.938.1-.516.1-1.361 0-1.877-.099-.516-.181-.094-.181.939m2.486-.418c0 .803.086 1.132.191.73a3.423 3.423 0 0 0 0-1.46c-.105-.401-.191-.073-.191.73m-42.522 22.732c.004 1.147.085 1.567.18.933.096-.634.094-1.572-.005-2.085-.099-.513-.178.005-.175 1.152m46.285-.417c.004.918.09 1.244.189.725.1-.518.096-1.269-.008-1.668-.104-.399-.186.026-.181.943m19.617.835c.004 1.147.085 1.566.18.932.096-.634.094-1.572-.005-2.085-.099-.513-.178.005-.175 1.153m-39.137 1.564l-1.649 1.772 1.772-1.648c.975-.907 1.773-1.705 1.773-1.773 0-.316-.363 0-1.896 1.649m72.595-.461c-.782.35-.776.363.082.201.777-.146.935.039 1.042 1.223l.127 1.395 1.043-.842c.936-.757.947-.796.104-.383-.844.414-.938.357-.938-.573 0-1.257-.365-1.511-1.46-1.021m-1.599.634c-.153.153-.278 1.303-.278 2.554 0 2.103-.056 2.233-.73 1.716-.402-.308-.276-.05.28.573.555.623 1.118 1.014 1.251.869.133-.146.05-.334-.185-.419-.263-.095-.339-1.19-.199-2.863.125-1.489.208-2.708.183-2.708-.024 0-.169.126-.322.278m-64.398 6.396c0 1.032.081 1.455.181.938a5.962 5.962 0 0 0 0-1.876c-.1-.517-.181-.094-.181.938m31.705.626c.003 1.147.084 1.566.18.932.096-.634.094-1.572-.005-2.085-.099-.513-.178.006-.175 1.153m26.488-.219c-.1.683-.031 1.481.155 1.773.202.319.339-.178.343-1.242.008-2.058-.236-2.318-.498-.531m9.305.253c.023.899.196 2.103.384 2.677.212.648.253.095.109-1.46-.27-2.898-.553-3.598-.493-1.217m4.609-.347c-.053 1.159.074 1.348.876 1.307.666-.034.734-.102.234-.234-.388-.103-.782-.691-.876-1.307-.155-1.013-.177-.99-.234.234m-3.28 1.147c.003 1.147.084 1.567.18.933.096-.634.094-1.573-.005-2.086-.099-.513-.178.006-.175 1.153m-56.867 1.773l-1.438 1.564 1.564-1.438c.861-.79 1.565-1.494 1.565-1.564 0-.318-.353-.018-1.691 1.438m40.18-.626a7.357 7.357 0 0 0-.696 1.147c-.161.344.02.203.403-.313.835-1.127 2.558-1.233 3.386-.208.533.658.546.638.136-.209-.509-1.05-2.537-1.312-3.229-.417m-74.673.611a9.172 9.172 0 0 0 2.294 0c.631-.095.115-.173-1.147-.173s-1.778.078-1.147.173m82.69.536c-.525.226-.603.358-.208.358.344 0 1.001-.161 1.46-.358.526-.226.603-.359.208-.359-.344 0-1.001.162-1.46.359m-91.658 1.128c.517.1 1.361.1 1.877 0 .517-.099.094-.18-.938-.18s-1.455.081-.939.18m83.733 1.852c-.767.344-.759.36.106.196.58-.111 1.093.085 1.343.512.222.38.409.48.416.221.022-.83-.977-1.328-1.865-.929m80.559 4.068c.745.809 1.021.888 1.669.475.751-.479.75-.487-.015-.245-.459.145-1.158-.054-1.668-.475-.862-.711-.862-.706.014.245m-68.625 1.34c-.257.737-.394 1.413-.305 1.503.089.089.373-.441.63-1.178.257-.737.394-1.414.305-1.503-.09-.089-.373.441-.63 1.178m37.771-.985c-.103.173 2.936.328 6.753.347 5.01.024 6.129-.048 4.022-.261-4.065-.41-10.549-.462-10.775-.086m-132.812.809a3.423 3.423 0 0 0 1.46 0c.401-.105.073-.19-.73-.19-.803 0-1.131.085-.73.19m107.656 3.258c-.001 2.065.069 2.962.157 1.994.087-.968.088-2.657.002-3.754s-.158-.304-.159 1.76m17.683-2.834c.516.1 1.361.1 1.877 0 .516-.099.094-.18-.939-.18-1.032 0-1.454.081-.938.18m3.983.496c-.421.674-.388.782.209.694.39-.057.676-.231.636-.387-.249-.967-.399-1.022-.845-.307m-8.884 1.504c-1.013 1.032-1.748 1.877-1.634 1.877.115 0 1.038-.845 2.051-1.877 1.013-1.032 1.748-1.877 1.634-1.877-.115 0-1.038.845-2.051 1.877m32.534-1.006l-1.043.853 1.043-.533c.573-.294 1.183-.494 1.355-.445.173.048.313-.099.313-.329 0-.63-.513-.49-1.668.454m-6.186-.037c.022 1.084.678 2.864.693 1.877.006-.459-.149-1.209-.347-1.668-.219-.511-.353-.592-.346-.209m7.281 1.721c-.357 1.784-.318 6.721.058 7.308.169.263.307-1.567.307-4.067 0-5.062 0-5.065-.365-3.241m-28.624 1.407c-1.013 1.033-1.748 1.877-1.633 1.877.114 0 1.037-.844 2.05-1.877 1.013-1.032 1.749-1.876 1.634-1.876-.115 0-1.038.844-2.051 1.876m-82.821.313l-1.225 1.356 1.356-1.225c.746-.674 1.356-1.284 1.356-1.356 0-.322-.345-.038-1.487 1.225m30.682-.208c.546.745 1.058 1.355 1.137 1.355.317 0-.717-1.564-1.401-2.119-.45-.366-.35-.075.264.764m98.925.104c.022 1.084.678 2.864.693 1.877.007-.459-.149-1.21-.346-1.668-.22-.511-.354-.592-.347-.209m-112.591 1.251c0 .803.086 1.132.191.73a3.423 3.423 0 0 0 0-1.46c-.105-.401-.191-.073-.191.73m77.241-.323c.086.406 1.31.495 5.183.376l5.07-.156-.006 1.407c-.009 1.95-.378 2.362-2.293 2.558l-1.663.169 1.758.07c2.041.082 2.622-.604 2.622-3.095v-1.551l-5.183.262c-3.305.168-5.258.112-5.391-.154-.115-.23-.158-.178-.097.114m-60.385 1.171c-.168.84-.429 1.188-.745.992-.303-.187-.375-.119-.189.181.164.265.459.482.657.482.394 0 1.04-2.444.729-2.756-.107-.106-.31.389-.452 1.101m82.84 1.029c.004.918.09 1.244.189.725.1-.518.096-1.269-.008-1.668-.104-.399-.186.026-.181.943m-11.234 1.46c0 1.491.076 2.101.168 1.356.093-.746.093-1.966 0-2.711-.092-.746-.168-.136-.168 1.355m17.691-1.835c-.465.465-.366 1.921.111 1.627.23-.142.432.175.45.705.018.53.122.746.231.48.28-.685-.423-3.181-.792-2.812m-66.398 1.522c.156.516.455 1.122.665 1.346.21.225.171-.198-.087-.938-.529-1.515-1.017-1.86-.578-.408m32.035 3.334c.035 1.318.204 2.397.376 2.399.393.003.365-.984-.088-3.126-.335-1.586-.349-1.55-.288.727m8.51-1.892c.516.099 1.36.099 1.876 0 .517-.1.094-.181-.938-.181s-1.455.081-.938.181m-69.102 1.01c.019.576.129.745.264.406.175-.442.427-.341 1.038.417.659.817.729.841.384.132-.759-1.562-1.724-2.108-1.686-.955m37.536 1.198c-.035.858-.122.932-.493.417-.374-.52-.408-.497-.202.138.136.421.251.89.254 1.043.004.153.207-.003.451-.347.349-.491.396-.4.22.421-.258 1.197.297 2.452.755 1.709.157-.254.104-.461-.117-.461-.222 0-.323-.329-.227-.73.097-.402.002-1.293-.211-1.981-.367-1.183-.391-1.194-.43-.209m70.252-.417l-1.669.299 1.46.017c.803.01 1.929-.132 2.503-.316 1.34-.429.103-.429-2.294 0m-113.527 2.92c0 1.491.076 2.101.168 1.355.093-.745.093-1.965 0-2.711-.092-.746-.168-.136-.168 1.356m6.252-.209c.003 1.376.081 1.889.173 1.14.093-.75.091-1.876-.004-2.503-.095-.627-.171-.013-.169 1.363m67.963-2.007a3.423 3.423 0 0 0 1.46 0c.401-.104.073-.19-.73-.19-.803 0-1.132.086-.73.19m35.25.008c.519.1 1.269.096 1.668-.008.399-.105-.026-.186-.943-.182-.918.005-1.244.09-.725.19m-91.558 3.25c.005.918.09 1.244.19.725.1-.518.096-1.269-.008-1.668-.105-.399-.187.026-.182.943m13.143-.747c.519.099 1.269.096 1.668-.009.399-.104-.026-.186-.943-.181-.918.004-1.244.09-.725.19m5.73 1.373c.356.688.741 1.251.856 1.251.114 0-.083-.563-.439-1.251s-.741-1.251-.856-1.251c-.114 0 .083.563.439 1.251m58.394-.389c-.688.441-1.037.803-.776.804.261.001.918-.367 1.46-.818 1.24-1.033.942-1.027-.684.014m13.604 1.094c-.038.716-.433 1.008-1.821 1.347l-1.772.432 1.632-.184c1.911-.216 2.484-.666 2.209-1.734-.168-.653-.207-.631-.248.139m-19.548.428a9.276 9.276 0 0 0 2.295 0c.63-.096.114-.174-1.147-.174-1.262 0-1.778.078-1.148.174m-69.551.952c-.526.226-.603.359-.209.359.344 0 1.001-.161 1.46-.359.526-.225.603-.358.209-.358-.344 0-1.001.161-1.46.358m-44.515.306c.981.089 2.483.087 3.337-.002.854-.09.052-.162-1.784-.161-1.835.002-2.534.075-1.553.163m70.393.5c-.132.213-.02.524.248.69.294.181.377.122.21-.15-.162-.261.12-.529.665-.633.938-.18.938-.182.031-.239-.503-.031-1.022.118-1.154.332m-2.828 1.575c.518.1 1.269.096 1.668-.008.399-.105-.026-.186-.943-.182-.918.005-1.244.09-.725.19m-44.114 3.018c-.573.17.741.231 2.92.133 2.179-.097 4.15-.24 4.38-.318.861-.294-6.302-.112-7.3.185m58.718-.087c.981.088 2.483.087 3.337-.003.854-.09.052-.162-1.784-.16-1.835.001-2.534.075-1.553.163m-67.06 2.885l1.314 1.107 1.116-1.199 1.116-1.199-1.147 1-1.147.999-.966-.907c-.531-.499-1.108-.907-1.283-.907-.175 0 .274.498.997 1.106m23.775-.48c-.574.328-.855.596-.626.596.23 0 .887-.268 1.46-.596.574-.328.855-.596.626-.596-.23 0-.886.268-1.46.596m67.227 0c.384.459.775 1.585.868 2.502l.169 1.669.07-1.708c.054-1.312-.147-1.892-.868-2.503-.931-.788-.933-.788-.239.04m-101.68.794c-.124.323-.16 1.214-.079 1.982.128 1.223.17 1.151.345-.586.204-2.032.129-2.426-.266-1.396m102.019 6.382c-.112 1.653-.054 2.854.13 2.669.184-.185.276-1.538.204-3.005l-.13-2.669-.204 3.005" fill="#4c4c4c"/><path d="M209.906 35.741a3.423 3.423 0 0 0 1.46 0c.401-.105.073-.191-.73-.191-.803 0-1.131.086-.73.191m43.86 16.814c.037.962.202 1.046 2.126 1.085l2.085.043-1.956-.169c-1.617-.14-1.985-.327-2.125-1.085-.141-.758-.163-.736-.13.126m-112.259 1.133c.634.096 1.573.094 2.086-.005.513-.099-.006-.178-1.153-.175-1.147.003-1.567.084-.933.18m123.889 9.503c.003 1.147.084 1.567.18.933.096-.634.093-1.573-.006-2.086-.099-.513-.178.006-.174 1.153M154.02 64.95c.634.096 1.573.093 2.086-.006.513-.099-.006-.177-1.153-.174-1.147.003-1.567.084-.933.18m88.426 0c.634.096 1.572.093 2.085-.006.513-.099-.005-.177-1.152-.174-1.148.003-1.567.084-.933.18m-99.24 1.812c-.278.278-2.24.395-5.258.313-2.649-.072-4.728.011-4.621.183.399.641 9.599.358 10.156-.313.593-.715.39-.849-.277-.183m114.475.701c1.442.081 3.695.081 5.005-.002 1.31-.082.129-.149-2.623-.148-2.753 0-3.825.068-2.382.15m-70.715 3.315a3.418 3.418 0 0 0 1.459 0c.402-.105.073-.191-.729-.191-.803 0-1.132.086-.73.191m-9.594.433c.861.09 2.268.09 3.129 0 .86-.09.156-.164-1.565-.164-1.72 0-2.424.074-1.564.164m40.262.002c.981.088 2.482.087 3.336-.003.855-.089.052-.161-1.783-.16-1.836.002-2.534.075-1.553.163m-19.094 32.02c.778.802 1.509 1.459 1.624 1.459.114 0-.429-.657-1.207-1.459-.778-.803-1.509-1.46-1.623-1.46-.115 0 .428.657 1.206 1.46m5.84 1.018c0 .701.072 1.276.159 1.276.354 0 .538-2.121.202-2.329-.199-.123-.361.351-.361 1.053m-28.78 14.831c.778.803 1.508 1.46 1.623 1.46.115 0-.428-.657-1.206-1.46-.779-.803-1.509-1.459-1.624-1.459-.115 0 .428.656 1.207 1.459m69.348-.326c.634.096 1.573.093 2.086-.006.513-.099-.006-.177-1.153-.174-1.147.003-1.567.084-.933.18m-9.979.83c.714.184.699.276-.208 1.307l-.976 1.109 1.147-1.011c1.393-1.228 1.454-1.716.209-1.652-.763.04-.795.086-.172.247m-14.603 3.25c.002 1.606.078 2.212.168 1.347.09-.866.089-2.18-.004-2.92-.092-.741-.166-.033-.164 1.573m22.665.07c-.153.153-.275.481-.272.73.005.3.109.291.313-.028.169-.263.776-.566 1.349-.673l1.043-.194-1.077-.056c-.593-.032-1.203.068-1.356.221m5.457.027c.975.088 2.57.088 3.545 0 .975-.088.178-.16-1.772-.16s-2.748.072-1.773.16m29.718.054c0 .198.47.27 1.043.16.574-.11 1.043-.271 1.043-.359 0-.088-.469-.16-1.043-.16-.573 0-1.043.161-1.043.359m-30.761 2.431a3.423 3.423 0 0 0 1.46 0c.402-.105.073-.191-.73-.191-.803 0-1.131.086-.73.191m24.809-.036c-.167.168-.304.592-.304.944 0 .47.123.516.464.176.255-.256.392-.68.304-.944-.088-.264-.297-.343-.464-.176m-43.688 1.214c-.813.865-.887 1.138-.428 1.564.444.412.493.405.242-.037-.19-.334.061-.95.638-1.564.522-.556.856-1.012.742-1.012-.115 0-.652.472-1.194 1.049m-14.079.62c0 .803.086 1.131.191.73a3.455 3.455 0 0 0 0-1.46c-.105-.402-.191-.073-.191.73m77.52 1.41L291 129.927l1.193-1.134c.656-.624 1.11-1.21 1.007-1.301-.103-.091-.64.419-1.193 1.134m-44.145.546a3.423 3.423 0 0 0 1.46 0c.402-.105.073-.191-.73-.191-.803 0-1.131.086-.73.191m-44.795 1.486c.21.21.826.313 1.369.227.835-.131.776-.19-.382-.382-.829-.137-1.218-.076-.987.155m76.968 1.33c-.127.331-.143.941-.035 1.356.13.504.211.381.244-.369.043-1.009.229-1.139 1.821-1.283l1.772-.159-1.785-.073c-1.223-.05-1.859.117-2.017.528m-77.115 2.151c1.92.312 5.121.353 4.941.063-.107-.172-1.45-.287-2.985-.256-1.535.032-2.415.118-1.956.193m-30.969 1.627c.004.918.09 1.244.19.725.099-.518.096-1.269-.009-1.668-.104-.399-.186.026-.181.943m17.83.81c0 .789.144 1.524.321 1.633.176.109.25-.537.164-1.435-.192-2.017-.485-2.136-.485-.198m26.567 1.461c.124.472.391.858.593.858.563 0 .439-.674-.224-1.224-.487-.404-.553-.338-.369.366m57.277.128c-.005.49.301.719.932.697.627-.022.731-.112.313-.271-.344-.131-.764-.445-.932-.697-.189-.283-.309-.179-.313.271m-80.607 6.447c.519.1 1.27.096 1.669-.008.399-.105-.026-.186-.944-.182-.917.005-1.243.09-.725.19m17.097-.001c.516.1 1.36.1 1.877 0 .516-.099.094-.18-.939-.18-1.032 0-1.454.081-.938.18m-55.683.411a3.423 3.423 0 0 0 1.46 0c.401-.105.073-.191-.73-.191-.803 0-1.132.086-.73.191m92.378.013c.741.092 2.055.094 2.92.003.865-.09.26-.165-1.346-.167-1.606-.002-2.314.072-1.574.164m-95.289 6.79c0 1.032.082 1.454.181.938a5.968 5.968 0 0 0 0-1.877c-.099-.516-.181-.094-.181.939" fill="#949494"/><path d="M181.752 35.761c1.204.084 3.175.084 4.379 0 1.205-.084.219-.153-2.189-.153-2.409 0-3.395.069-2.19.153m31.273-.006c.741.092 2.054.093 2.92.003.865-.09.259-.166-1.346-.168-1.606-.001-2.314.072-1.574.165m-9.897 1.576c-.573.327-.855.596-.625.596.229 0 .886-.269 1.459-.596.574-.328.856-.597.626-.597-.229 0-.886.269-1.46.597m23.566-.209c.459.197 1.21.353 1.669.346.67-.01.63-.078-.209-.346-1.426-.457-2.522-.457-1.46 0m-58.394.417c-.526.226-.603.359-.208.359.344 0 1.001-.162 1.46-.359.525-.226.603-.358.208-.358-.344 0-1.001.161-1.46.358m75.739 3.91c.429.384 2.885 1.512 2.885 1.325 0-.24-2.312-1.481-2.76-1.481-.164 0-.221.07-.125.156m-95.779 3.702l-1.649 1.773 1.773-1.649c.975-.907 1.772-1.704 1.772-1.773 0-.315-.363.001-1.896 1.649m.194 17.566c.555.684 2.12 1.718 2.12 1.401 0-.079-.61-.591-1.356-1.137-.839-.614-1.13-.715-.764-.264m104.101 1.099c.896.918 1.723 1.669 1.837 1.669.115 0-.524-.751-1.42-1.669-.896-.917-1.723-1.668-1.838-1.668-.115 0 .525.751 1.421 1.668m-91.763-.193c-1.043.502-1.077.56-.208.347 1.182-.288 2.51-.966 1.877-.956-.23.003-.98.277-1.669.609m36.212 3.843c-.143.402-.559 1.105-.926 1.564-.654.82-.65.821.231.078.493-.417.992-1.121 1.108-1.565.263-1.006-.062-1.067-.413-.077m-24.741 3.004c1.042.354 3.63.575 3.302.282-.096-.085-1.112-.263-2.259-.396-1.407-.162-1.746-.125-1.043.114m17.205-.093c.86.09 2.268.09 3.128 0 .861-.09.157-.164-1.564-.164-1.72 0-2.424.074-1.564.164m16.267 0c.86.09 2.268.09 3.128 0 .861-.09.157-.164-1.564-.164-1.72 0-2.424.074-1.564.164m18.248.113c-1.414.298-1.421.308-.208.321.688.007 1.72-.137 2.294-.321 1.367-.438-.005-.438-2.086 0m-40.348.299c.634.096 1.572.094 2.085-.005.513-.099-.006-.178-1.153-.175-1.147.004-1.567.085-.932.18m29.191 0a9.268 9.268 0 0 0 2.294 0c.631-.096.115-.174-1.147-.174s-1.778.078-1.147.174m-22.365 30.479c-.113.182.439.255 1.226.163.787-.092 1.431-.24 1.431-.33 0-.314-2.456-.159-2.657.167m8.079 2.304c0 .071.61.681 1.356 1.355l1.355 1.225-1.225-1.355c-1.142-1.264-1.486-1.548-1.486-1.225m-2.457 4.04c-.062 1.262-.151 2.81-.197 3.441-.047.631.062 1.147.242 1.147s.327-.281.327-.625c0-.345.234-.629.521-.632.396-.005.402-.083.024-.323-.274-.174-.567-1.438-.651-2.809l-.154-2.493-.112 2.294m-6.02-.666c-.296.772.062 1.083 1.247 1.083.662 0 .963-.234.941-.73-.02-.436-.118-.52-.244-.208-.115.286-.564.521-.996.521-.528 0-.708-.206-.547-.626.132-.344.147-.625.032-.625-.115 0-.31.263-.433.585m8.643.418c-.123.322-.148 1.214-.053 1.981.147 1.204.18 1.142.237-.455l.067-1.851 1.356 1.225 1.355 1.225-1.225-1.356c-1.398-1.547-1.432-1.562-1.737-.769m7.856 1.082c0 .803.086 1.132.191.73a3.455 3.455 0 0 0 0-1.46c-.105-.401-.191-.073-.191.73m-17.347.738c-.109.176.537.25 1.435.165.899-.086 1.634-.23 1.634-.321 0-.311-2.871-.165-3.069.156m17.606 2.288c.21.21.826.312 1.369.227.835-.132.776-.191-.382-.383-.829-.137-1.218-.076-.987.156m12.839 6.849c.26.189.576.72.702 1.178.181.658.214.621.153-.175-.042-.556-.359-1.086-.703-1.179-.413-.112-.465-.052-.152.176m21.737.43c.516.1 1.361.1 1.877 0 .516-.099.094-.181-.938-.181-1.033 0-1.455.082-.939.181m-26.859 3.668c-.001 2.065.069 2.962.157 1.994.087-.968.088-2.657.002-3.754s-.158-.304-.159 1.76m67.422-3.305c0 .282 2.167 1.069 2.374.862.094-.094-.401-.371-1.101-.615s-1.273-.355-1.273-.247m-50.851.766c.317.313 4.104.416 4.401.12.16-.161-.804-.292-2.142-.292-1.338 0-2.355.077-2.259.172m-11.234 2.956c-.002 1.377.148 2.878.333 3.337.197.485.257-.388.145-2.085-.251-3.815-.474-4.396-.478-1.252m-35.673-.156c-.347 1.738-.01 2.075.365.365.159-.721.201-1.398.095-1.504-.106-.107-.313.406-.46 1.139m48.101.261l-1.438 1.564 1.565-1.438c1.455-1.338 1.756-1.691 1.437-1.691-.07 0-.774.704-1.564 1.565m10.397 0c-.504.641-.494.668.075.225.368-.286 2.355-.565 4.589-.644l3.939-.138-4.015-.087c-3.395-.073-4.104.027-4.588.644m37.592-.225c.115.113.861.426 1.659.695.798.27 1.267.311 1.043.092-.225-.22-.971-.533-1.659-.696-.688-.163-1.158-.204-1.043-.091m-20.309 3.457c.003 1.377.08 1.889.173 1.14.093-.75.091-1.876-.004-2.503-.095-.627-.171-.013-.169 1.363m-10.035-.755a3.423 3.423 0 0 0 1.46 0c.401-.105.073-.191-.73-.191-.803 0-1.132.086-.73.191m39.937 4.3c-.803.44-1.309.808-1.126.817.442.023 2.795-1.2 2.795-1.453 0-.273-.025-.264-1.669.636m-83.003.389c0 .213-.422.469-.938.568-.805.155-.775.189.208.238.767.038 1.147-.151 1.147-.569 0-.344-.094-.626-.208-.626-.115 0-.209.175-.209.389m6.067.55c.156.516.455 1.122.665 1.346.21.224.17-.198-.088-.938-.528-1.516-1.016-1.86-.577-.408m55.429 3.337l-1.225 1.355 1.356-1.225c.745-.674 1.355-1.284 1.355-1.355 0-.323-.344-.039-1.486 1.225m-46.301.521c.163.688.476 1.435.696 1.659.219.224.178-.245-.092-1.043-.631-1.867-.987-2.23-.604-.616m57.917 1.251c.003 1.147.084 1.567.18.933.096-.634.093-1.572-.006-2.085-.099-.513-.177.005-.174 1.152m-5.834.626c0 1.262.079 1.778.174 1.147a9.172 9.172 0 0 0 0-2.294c-.095-.631-.174-.115-.174 1.147m-57.925.156c.018.786.16 1.351.316 1.256.156-.096.402.017.546.25a.961.961 0 0 0 .759.411c.273-.007.168-.204-.233-.438-.402-.234-.733-.744-.737-1.134-.003-.39-.158-.949-.344-1.242-.209-.329-.326.015-.307.897m-43.347.261c-.525.226-.602.359-.208.359.344 0 1.001-.162 1.46-.359.526-.226.603-.358.208-.358-.344 0-1.001.161-1.46.358m87.904-.118a9.276 9.276 0 0 0 2.295 0c.63-.096.114-.174-1.147-.174-1.262 0-1.778.078-1.148.174m-87.591 7.091a9.268 9.268 0 0 0 2.294 0c.631-.096.115-.174-1.147-.174-1.261 0-1.778.078-1.147.174m56.108.003c.75.093 1.876.091 2.502-.004.627-.095.014-.171-1.363-.169-1.376.002-1.889.08-1.139.173m-33.376.826c.516.1 1.361.1 1.877 0 .516-.099.094-.18-.938-.18-1.033 0-1.455.081-.939.18m11.267.001c.519.1 1.269.096 1.668-.008.399-.105-.025-.186-.943-.182-.918.005-1.244.09-.725.19m-16.684.417c.519.1 1.269.096 1.668-.008.399-.105-.026-.186-.943-.182-.918.005-1.244.09-.725.19m13.213.354c-.796.638-.796.642.025.265a26.241 26.241 0 0 1 1.46-.616c.54-.2.537-.237-.025-.265-.357-.018-1.014.259-1.46.616m8.893-.354c.519.1 1.27.096 1.669-.008.398-.105-.026-.186-.944-.182-.917.005-1.244.09-.725.19m-58.811.417c.519.1 1.27.096 1.668-.008.399-.105-.025-.186-.943-.182-.918.005-1.244.09-.725.19m3.958-.007a3.418 3.418 0 0 0 1.459 0c.402-.105.073-.191-.73-.191-.802 0-1.131.086-.729.191m88.855.019c1.096.087 2.785.085 3.754-.002.968-.087.07-.158-1.994-.157-2.065.002-2.857.073-1.76.159m-82.607 1.126l-.799 1.016-.994-.912-.993-.911 1.001 1.147c1.202 1.379.933 1.393 2.04-.104 1.104-1.493.889-1.691-.255-.236m-12.095 5.241c0 .803.085 1.131.19.73a3.423 3.423 0 0 0 0-1.46c-.105-.402-.19-.073-.19.73m99.568 4.901l-1.438 1.564 1.564-1.438c1.456-1.337 1.756-1.69 1.438-1.69-.07 0-.774.703-1.564 1.564m-89.238 5.272c0 .09.644.238 1.431.33.787.092 1.339.019 1.227-.163-.202-.326-2.658-.481-2.658-.167m77.426.167c-.112.182.44.255 1.227.163.787-.092 1.431-.24 1.431-.33 0-.314-2.456-.159-2.658.167m-65.955 4.258c.458.198 1.209.353 1.668.347.671-.01.63-.078-.209-.347-1.426-.456-2.522-.456-1.459 0m54.907.062c-.771.222-1.327.477-1.237.567.091.091 1.097-.091 2.236-.403 1.139-.313 1.695-.568 1.236-.568-.458 0-1.464.182-2.235.404m-45.695 1.992c.479.205 1.981.476 3.337.604 2.304.216 2.343.206.589-.155-3.325-.684-4.899-.864-3.926-.449m34.062.319a3.423 3.423 0 0 0 1.46 0c.401-.105.073-.19-.73-.19-.803 0-1.132.085-.73.19m-3.124.425c.519.1 1.27.096 1.669-.008.399-.105-.026-.186-.943-.182-.918.005-1.244.09-.726.19m-19.817.827a3.423 3.423 0 0 0 1.46 0c.402-.105.073-.191-.73-.191-.803 0-1.131.086-.73.191m10.224.007c.519.1 1.27.096 1.669-.008.398-.105-.026-.186-.944-.182-.917.005-1.244.09-.725.19m-52.032 7.539c-.009.762 1.21 1.128 1.795.539.381-.384.317-.43-.279-.203-.48.182-.912.073-1.141-.288-.275-.436-.37-.448-.375-.048m7.363 1.203c-.397.397-.344 1.718.078 1.979.197.121.263-.271.149-.871-.158-.822-.075-1.01.333-.758.357.221.44.171.244-.146-.345-.559-.428-.58-.804-.204m38.095 2.803c0 .089.553.243 1.229.342.676.099 1.134.027 1.018-.161-.206-.335-2.247-.499-2.247-.181m2.862 2.734c.541.472 1.182.859 1.425.859.513 0 .488-.021-1.159-.985l-1.251-.733.985.859" fill="#cfcfcf"/><path d="M175.026 36.319c-1.577.216-4.186.794-5.796 1.283l-2.929.89-1.08 2.443c-1.248 2.824-1.192 2.803-3.469 1.296-5.687-3.763-17.018 2.962-17.018 10.101 0 1.445-.033 1.474-1.692 1.474-5.527 0-9.987 4.31-9.987 9.651 0 1.54.215 2.91.501 3.196.591.591 9.51.711 9.51.128 0-.661 3.811-4.633 4.446-4.633.338 0 1.291.516 2.118 1.147 1.386 1.057 1.802 1.147 5.291 1.146 3.693-.002 4.029-.078 9.047-2.071.528-.21.728.078.929 1.336.94 5.872 6.435 7.654 20.838 6.756 9.775-.61 10.04-.687 11.523-3.38.591-1.072 1.215-2.09 1.388-2.261.506-.502 2.282 1.444 2.552 2.797.378 1.889 1.939 2.276 11.524 2.859 13.325.81 19.291-.835 20.242-5.58.589-2.941.368-2.834 3.452-1.67 4.998 1.885 9.539 1.868 12.361-.047 2.171-1.473 4.267-.416 6.044 3.048.471.917.66.948 5.159.834l4.671-.117.371-1.919c1.023-5.293-3.165-10.671-8.654-11.112l-2.672-.214-.259-1.894c-1.103-8.046-12.423-13.719-17.864-8.952-1.065.933-1.709.448-2.566-1.936-.913-2.538-.952-2.562-6.313-3.842-9.74-2.327-22.154-1.272-25.88 2.199-1.502 1.399-2.028 1.467-2.802.362-2.139-3.053-13.24-4.656-22.986-3.318m27.559 64.665c-.657.383-.716.802-.468 3.324.347 3.523.11 3.559-2.508.381-1.35-1.638-2.368-2.499-2.954-2.499-1.299 0-1.406.271-.79 1.996.304.852.561 2.628.571 3.947.018 2.276.072 2.399 1.061 2.399.936 0 1.043-.169 1.043-1.644 0-2.731.884-2.35 3.754 1.615 2.151 2.973 3.065-1.379 1.81-8.626-.255-1.472-.388-1.551-1.519-.893m-12.617 1.818c-.332.796-.604 1.52-.604 1.611 0 .09-.737 1.505-1.638 3.143-1.567 2.851-1.602 2.998-.825 3.414.986.528 1.557.222 2.061-1.104.597-1.571 3.028-1.42 4.014.249.406.688.965 1.251 1.24 1.251.276 0 .799.114 1.162.253.905.348.83-.273-.346-2.848-.554-1.211-1.248-3.375-1.544-4.809-.671-3.254-2.406-3.826-3.52-1.16m15.77-.298c-.404.278-.329.895.335 2.785.486 1.384.799 3.169.727 4.149-.118 1.604-.049 1.728 1.026 1.852 3.947.454 8.831-2.979 7.606-5.347-1.26-2.438-7.787-4.753-9.694-3.439m6.618 2.861c1.013.916.994 2.036-.052 3.081-1.348 1.348-2.783 1.103-3.052-.521a40.727 40.727 0 0 0-.524-2.567c-.349-1.414 2.063-1.41 3.628.007m-20.335 1.1c.388 1.451.334 1.564-.756 1.564-1.339 0-1.592-.495-.817-1.6.807-1.153 1.257-1.142 1.573.036m-4.305 8.638l-1.857.739-.549 3.289c-.302 1.808-.811 4.133-1.131 5.165-.319 1.032-.695 2.393-.834 3.024-.35 1.584-.646 1.449-2.323-1.053-4.153-6.202-6.311-8.409-7.846-8.024-4.038 1.014-4.136 1.213-2.757 5.636.668 2.141 1.838 9.524 1.841 11.62.002 1.243.108 1.374.941 1.167.516-.129 1.74-.361 2.72-.517 1.714-.273 1.774-.333 1.585-1.584-.555-3.676-.652-5.681-.275-5.681.646 0 3.24 4.194 3.828 6.188l.534 1.809 1.904-.284c2.303-.342 1.862.409 2.931-4.995.499-2.52.991-4.666 1.094-4.769.754-.754 2.162 3.628 2.511 7.815l.276 3.299 1.651-.371c1.435-.322 1.945-.212 3.889.841l2.238 1.212 1.705-2.87 1.705-2.87 3.214.003 3.214.003 1.588 2.917c1.523 2.795 1.654 2.917 3.129 2.921a23.65 23.65 0 0 1 3.122.267l1.584.261-1.024-1.925a38.579 38.579 0 0 1-1.759-3.915c-.405-1.095-.864-2.179-1.02-2.408-.607-.891-3.435-10.16-3.999-13.107-.72-3.766-.283-3.416-3.57-2.853l-2.757.472-1.167 3.364c-1.491 4.295-4.298 10.148-6.083 12.681-.848 1.205-.817 1.292-2.004-5.563-.476-2.753-.99-5.286-1.141-5.631-.152-.344-.675-2.033-1.163-3.753-.991-3.488-1.193-3.617-3.945-2.52m27.094 6.998c.002 4.818.858 11.373 1.837 14.083l.603 1.668 2.827-.12c3.233-.138 3.439-.24 2.738-1.362-1.041-1.667-1.761-5.817-1.01-5.817.546 0 4 1.828 7.184 3.8.344.214 1.509.824 2.589 1.357 1.081.533 2.228 1.187 2.549 1.454.449.373.934.339 2.089-.143 1.935-.808 2.783-.797 2.783.039 0 .767.298.744 8.968-.676 7.434-1.218 7.299-1.183 7.299-1.877 0-.815 1.209-.797 1.523.024.644 1.676 5.363 2.444 8.529 1.388 3.09-1.031 5.855-4.919 6.412-9.016.164-1.204.434-2.19.601-2.19.371 0 1.668 7.105 2 10.958.201 2.328.361 2.79.913 2.63.367-.106 1.578-.322 2.69-.479l2.021-.285-.144-2.971-.145-2.971 3.754-.336c11.243-1.006 12.848-7.216 2.711-10.492-1.261-.408-2.857-.988-3.545-1.289-4.052-1.772-11.47-1.8-11.47-.043 0 .222-.444-.113-.986-.744l-.985-1.147-2.313 1.094-2.314 1.095.69 1.343c2.021 3.938.814 11.145-1.866 11.145-2.69 0-3.798-2.746-3.291-8.156.33-3.523.341-3.513-2.095-1.959-2.258 1.441-3.298 3.811-3.006 6.85.176 1.831.095 2.117-.681 2.404-1.034.382-10.226 1.467-10.427 1.231-.398-.467-.592-2.327-.294-2.81.227-.367 1.871-.678 4.829-.915 2.467-.197 4.53-.415 4.585-.483.055-.069.202-.788.327-1.598l.227-1.474-5.327.166-5.327.166-.192-1.307c-.303-2.065.314-2.276 5.905-2.018 5.454.251 5.121.438 4.099-2.297l-.429-1.147h-5.546c-3.051 0-5.807-.1-6.126-.223-.319-.122-1.038.179-1.598.669a28.23 28.23 0 0 1-1.727 1.394c-.649.46-.657.655-.085 2.313.978 2.841 1.803 11.037 1.127 11.206-.61.152-8.053-4.18-9.692-5.642l-1.069-.952 3.649-3.566c4.361-4.26 4.291-3.948.889-3.948h-2.761l-3.726 3.545c-5.1 4.854-6.092 4.505-5.615-1.976.266-3.62.539-3.311-3.385-3.842l-1.773-.239.003 4.488m69.071 1.79c4.239 1.925 3.959 3.308-.872 4.296-3.589.734-3.804.655-4.139-1.518-.148-.961-.377-2.349-.509-3.084l-.24-1.336 1.607.243c.884.133 2.753.762 4.153 1.399m-77.292 4.209c.874 2.974 1.009 2.689-1.443 3.045-2.589.375-2.809-.13-1.369-3.142 1.476-3.089 1.88-3.075 2.812.097m-38.808 16.672c-1.822.577-2.877 1.193-3.508 2.047l-.903 1.221-1.408-1.236c-3.375-2.963-10.965-1.575-10.331 1.89.168.919.327 2.862.354 4.317.044 2.402.163 2.741 1.3 3.685 3.56 2.96 7.851 5.139 10.117 5.139.575 0 1.952.652 3.06 1.448 3.543 2.545 19.684 6.17 29.784 6.688 7.026.361 23.909-1.178 29.814-2.718.808-.211 3.511-.866 6.007-1.457 3.662-.867 4.879-1.354 6.3-2.518.968-.793 2.224-1.443 2.79-1.443 2.664 0 7.307-2.38 10.459-5.363l1.564-1.48v-4.244c0-5.359.06-5.303-5.414-5.115-4.021.138-4.229.192-5.128 1.32l-.937 1.175-.934-1.263c-2.739-3.704-14.432-4.091-19.123-.632-.907.669-1.428.824-1.735.516-1.55-1.55-12.291-2.513-15.432-1.384-1.959.705-2.189.708-3.811.06-2.932-1.174-11.29-.622-14.952.986-.975.428-1.772.616-1.772.418 0-2.435-10.678-3.794-16.161-2.057m69.132 29.296c-5.484 1.838-6.62 3.617-2.308 3.617 4.681 0 6.423-1.105 5.237-3.321-.512-.957-.855-.991-2.929-.296m-85.922.51c0 .807 1.981 3.515 2.502 3.421 1.399-.252 1.024-3.091-.447-3.386-1.626-.325-2.055-.332-2.055-.035m74.509 2.955c-1.365 1.365-1.387 1.82-.091 1.82.555 0 1.291.109 1.636.241.8.307 1.664-1.235 1.313-2.342-.362-1.138-1.556-1.021-2.858.281m-69.252.815c-.14.365-.149.834-.02 1.043.425.688.919.396 1.121-.663.224-1.17-.679-1.481-1.101-.38m3.502 1.34c0 .519.275 1.049.612 1.178 1.171.449 1.345-.059.369-1.087l-.981-1.034v.943m3.754 1.347c0 .615 1.124.962 1.981.612.67-.273.661-.326-.104-.641-1.177-.483-1.877-.473-1.877.029m41.657 1.344l-1.096 1.354-2.033-.774c-3.295-1.254-4.585-1.336-4.854-.307-.262 1.004.836 1.228 1.722.351.422-.417.608-.376.938.209.897 1.589 5.013 2.574 7.219 1.728 1.155-.444.648-3.924-.571-3.917-.126.001-.723.611-1.325 1.356" fill="#fff"/><path d="M194.29 35.349c3.283.07 8.538.07 11.679-.001 3.14-.071.454-.128-5.969-.128s-8.993.058-5.71.129m37.203 1.893c.276.304 5.916 1.609 6.11 1.415.083-.083-.555-.356-1.417-.607-2.061-.602-4.96-1.1-4.693-.808m-67.781 1.131c-1.063.457.034.457 1.46 0 .838-.268.879-.336.209-.346-.459-.007-1.21.149-1.669.346m-5.631 1.343c-.803.239-1.262.506-1.021.595.241.089 1.179-.11 2.085-.441 1.888-.692 1.121-.802-1.064-.154m82.53.133c.772.336 1.71.596 2.085.578.376-.017.026-.285-.777-.594-1.976-.761-3.067-.747-1.308.016m-94.104 4.6c-.975.584-1.773 1.149-1.773 1.256 0 .199 2.644-1.13 3.754-1.887 1.307-.892-.288-.384-1.981.631m104.379-.02c.459.373 1.21.863 1.669 1.089l.834.409-.834-.679c-.459-.374-1.21-.864-1.669-1.089l-.834-.409.834.679m-109.937 4.01c-3.384 2.913-6.094 6.395-8.148 10.466-2.069 4.103-1.714 4.036.501-.094 2.464-4.593 4.783-7.571 7.887-10.128 3.09-2.545 3.366-2.802 3.014-2.802-.155 0-1.619 1.151-3.254 2.558m114.525-.832a67.74 67.74 0 0 1 7.242 7.242c1.199 1.391 1.476 1.599.831.625-1.282-1.934-6.859-7.524-8.698-8.718-1.023-.664-.836-.409.625.851m9.571 10.656c.353.731.85 1.458 1.104 1.615.56.346-.044-.843-1.071-2.109-.628-.775-.63-.739-.033.494m2.401 4.084c.499 1.028.979 1.797 1.066 1.709.189-.188-1.496-3.576-1.779-3.576-.107 0 .214.84.713 1.867m-137.458 3.451l-.492 1.772c-.193.7-.15.906.132.626.458-.456 1.123-3.128.777-3.128-.117 0-.305.328-.417.73m144.882.101c3.326.161 6.089.322 6.139.357.05.035.371.579.713 1.21.342.631.63.933.639.672.069-1.977-1.345-2.443-7.558-2.488l-5.981-.044 6.048.293m-165.882 2.816c2.019.077 5.21.077 7.091 0 1.881-.078.23-.14-3.67-.14-3.9.001-5.439.064-3.421.14m173.496.524c.191.699 13.113 1.162 14.825.531.482-.177-2.52-.26-6.669-.184-5.936.11-7.628.021-7.935-.417-.311-.442-.356-.427-.221.07m61.624 5.422c-.718.23-.07.334 2.086.334 1.72 0 3.597-.15 4.171-.334.719-.23.071-.334-2.086-.334-1.72 0-3.597.15-4.171.334m-12.93.424c-1.518.191.068.297 4.693.315 3.984.016 6.986-.137 6.986-.356 0-.431-8.144-.403-11.679.041m20.855-.007c0 .23.376.417.835.417.458 0 .834-.187.834-.417 0-.229-.376-.417-.834-.417-.459 0-.835.188-.835.417m-29.822.417c-.16.259.621.417 2.061.417 1.275 0 2.318-.187 2.318-.417 0-.229-.927-.417-2.061-.417-1.133 0-2.177.188-2.318.417m32.116 0c.142.23.529.417.859.417.331 0 .601-.187.601-.417 0-.229-.386-.417-.859-.417-.472 0-.742.188-.601.417m-34.202 1.198c-.688.427-1.72 1.311-2.294 1.964l-1.043 1.187 1.47-1.236c.808-.68 1.935-1.554 2.503-1.944 1.4-.96.921-.938-.636.029m38.582.36c0 .2.938.7 2.085 1.113 1.148.412 2.086.881 2.086 1.042 0 .161.798.709 1.773 1.219 1.868.977 4.241 2.54 5.358 3.527 1.078.954 1.628 1.212 1.628.765 0-.47-7.444-5.52-9.385-6.367-.688-.3-1.345-.665-1.46-.811-.364-.463-2.085-.866-2.085-.488m-42.632 3.969c-.703 1.099-1.218 2.398-.95 2.398.102 0 .57-.751 1.038-1.668.925-1.814.875-2.234-.088-.73m-2.637 5.93c-.897 3.085-.566 3.417.389.389.403-1.279.635-2.423.516-2.542-.119-.12-.526.849-.905 2.153m-196.337-1.569a5.968 5.968 0 0 0 1.877 0c.516-.099.094-.181-.938-.181-1.033 0-1.455.082-.939.181m254.953-.14c0 .085 2.39 2.197 5.311 4.693 2.92 2.495 5.595 4.837 5.943 5.203 5.704 5.994 12.521 15.015 12.521 16.569 0 .271.208.492.462.492.276 0 .341-.293.161-.73a16.78 16.78 0 0 1-.51-1.46c-.116-.401-.336-.729-.489-.729-.153 0-.634-.611-1.068-1.356-1.227-2.107-5.35-7.4-7.478-9.601-1.057-1.093-1.923-2.151-1.923-2.35 0-.199-.441-.651-.98-1.004-.539-.353-1.834-1.454-2.877-2.447a105.996 105.996 0 0 0-3.875-3.472 271.35 271.35 0 0 1-3.275-2.809c-1.169-1.028-1.923-1.419-1.923-.999m-60.306 18.407c.001 4.358.063 6.085.138 3.836.075-2.248.075-5.815-.001-7.925-.076-2.11-.137-.27-.137 4.089m-171.08 4.171c.005.917.09 1.244.19.725s.096-1.27-.008-1.669c-.105-.398-.186.026-.182.944m171.42 6.048c0 .803.086 1.131.191.73a3.423 3.423 0 0 0 0-1.46c-.105-.402-.191-.073-.191.73m85.434.911c.919 2.345 1.985 3.866 1.432 2.045-.563-1.857-1.44-3.731-1.872-3.998-.236-.146-.037.733.44 1.953m-84.663 4.154c-.039.814 1.626 6.345 1.844 6.126.135-.134-1.201-5.351-1.637-6.395-.096-.229-.189-.108-.207.269m86.867 4.319c.001 1.836.075 2.535.163 1.553.088-.981.087-2.482-.003-3.336-.09-.855-.162-.052-.16 1.783m-248.97 2.399l-1.225 1.355 1.355-1.225c1.264-1.142 1.548-1.486 1.225-1.486-.071 0-.681.61-1.355 1.356m164.159.02c-.023 1.999 5.965 8.217 7.913 8.217.918 0 .36-.743-.722-.961-1.655-.335-4.537-2.969-5.959-5.449-.675-1.177-1.23-1.99-1.232-1.807m83.424 2.661c-.558.815-1.446 1.679-1.971 1.918-.855.39-1.328 1.136-.72 1.136.639 0 3.23-2.371 3.571-3.267.58-1.526.258-1.448-.88.213m-20.967 4.198c1.663.079 4.385.079 6.048 0 1.663-.079.303-.144-3.024-.144-3.326 0-4.687.065-3.024.144m-25.339.539c0 .237 2.145.402 5.214.402 3.069 0 5.214-.165 5.214-.402 0-.237-2.145-.402-5.214-.402-3.069 0-5.214.165-5.214.402m-22.315.402c-.153.249.344.417 1.227.417.817 0 1.485-.187 1.485-.417 0-.229-.552-.417-1.227-.417s-1.343.188-1.485.417m5.423 0c-.156.252.413.417 1.435.417.931 0 1.693-.187 1.693-.417 0-.229-.646-.417-1.435-.417-.79 0-1.551.188-1.693.417m-51.642 7.572c-.414 2.032-.361 2.022-10.099 2.022-4.67 0-8.579.14-8.685.313-.107.172 3.918.258 8.943.193 10.051-.132 10.732-.336 10.302-3.089-.119-.765-.214-.65-.461.561m-21.334 5.752c-.832 1.134-3.335 3.797-5.562 5.917-4.02 3.828-4.149 4.189-.353.989 2.481-2.092 8.328-8.968 7.627-8.968-.109 0-.879.928-1.712 2.062m-129.871-.915l10.293.119 1.073 1.276c.591.702 1.074 1.131 1.074.954 0-.177-.504-.848-1.121-1.492l-1.12-1.17-10.246.097-10.245.097 10.292.119m-19.572.403c.63.096 1.663.096 2.294 0 .631-.095.114-.174-1.147-.174-1.262 0-1.778.079-1.147.174m33.681 3.626c1.42 1.529 4.588 4.23 4.588 3.912 0-.087-1.361-1.357-3.024-2.821-1.664-1.464-2.367-1.955-1.564-1.091m93.222 13.601c-.931.457-1.208.706-.626.563 1.218-.301 3.322-1.368 2.711-1.377-.229-.003-1.168.363-2.085.814m-29.197 6.666c-1.063.457.033.457 1.459 0 .839-.268.88-.336.209-.346-.459-.007-1.21.149-1.668.346m-13.452.727c1.549.08 4.082.08 5.631 0 1.548-.081.281-.146-2.816-.146s-4.363.065-2.815.146" fill="#751318"/><path d="M154.327.251c-2.974.262-9.76 1.483-10.219 1.839-.229.177-1.597.623-3.04.989-4.459 1.132-12.034 4.86-16.146 7.945-4.036 3.029-9.166 8.103-9.623 9.518-.129.402-.381.73-.559.73-.626 0-5.877 9.664-5.877 10.817 0 .243-.368 1.522-.818 2.842-.45 1.32-1.119 4.277-1.486 6.571-.367 2.294-.837 4.546-1.044 5.005-.207.459-.747 3.368-1.2 6.465-.454 3.097-1 6.569-1.213 7.716-.214 1.147-.521 3.475-.682 5.172l-.293 3.087 2.595-.271c1.428-.149 7.516-.271 13.529-.271h10.934l1.159-3.441c5.081-15.08 13.802-21.943 33.994-26.752 13.125-3.127 10.944-2.941 34.828-2.955 22.532-.012 23.003.015 33.159 1.923 2.304.433 10.092 2.716 11.262 3.301.344.173 1.868.894 3.386 1.605 9.097 4.254 18.454 13.666 21.49 21.617l.681 1.782h5.13c6.212 0 7.122.287 8.003 2.531l.664 1.691 7.401-.13c4.07-.071 7.496-.225 7.612-.342.331-.332-1.089-13.952-1.471-14.108-.188-.077-.341-.782-.341-1.567 0-1.654-1.082-9.116-1.648-11.362-1.232-4.893-2.171-8.025-2.724-9.086-.346-.662-.629-1.446-.631-1.741-.001-.296-.704-2.079-1.562-3.963-1.353-2.97-2.286-4.602-4.796-8.39-2.673-4.033-9.019-9.895-12.399-11.455-.811-.375-1.723-.915-2.026-1.202-.303-.287-.72-.522-.926-.522-.206 0-1.434-.484-2.727-1.076-1.294-.591-3.974-1.382-5.956-1.756-1.983-.375-3.738-.876-3.902-1.114-.462-.673-19.602-.587-19.827.088-.096.287-.768.524-1.495.528-2.451.011-13.63 3.215-14.459 4.144-.115.128-.96.49-1.877.804-.918.314-3.358 1.38-5.423 2.368-4.688 2.245-10.14 4.356-11.252 4.357-.816.001-6.672-2.37-7.517-3.044-1.71-1.364-14.644-7.582-17.101-8.222-1.147-.298-2.274-.685-2.503-.86C173.887.914 160.153-.263 154.327.251M342.86 75.197c-.001.179-3.663.273-8.136.208-4.474-.065-8.134.023-8.134.195 0 .172-1.079.313-2.398.315-3.134.002-5.865 1.939-7.948 5.635-8.281 14.694-4.336 49.34 5.849 51.378.638.127 1.16.396 1.16.597 0 .509 6.149.459 6.465-.053.142-.229.81-.417 1.485-.417s1.227.188 1.227.417c0 .23.552.417 1.226.417.675 0 1.343-.187 1.485-.417.315-.51 3.128-.56 3.128-.054 0 .457 13.476.062 13.779-.404.372-.572 10.126-.422 10.49.162.241.387.497.392 1.099.019.52-.322 4.716-.573 12.422-.742 13.436-.296 17.255-.536 17.97-1.13.281-.234.708-.304.948-.156.239.148.435.1.435-.106 0-.206.428-.569.951-.808 3.043-1.386 4.481-9.571 2.295-13.063-.354-.565-.973-1.919-1.376-3.009-.402-1.089-.894-1.981-1.093-1.981-.198 0-.36-.221-.36-.492 0-1.008-6.169-9.787-8.743-12.442a116.095 116.095 0 0 1-2.295-2.519c-1.401-1.573-11.997-10.813-14.614-12.743-2.214-1.634-3.908-2.73-5.526-3.577-.975-.51-1.773-1.058-1.773-1.219 0-.161-.938-.63-2.086-1.042-1.147-.413-2.085-.876-2.085-1.03 0-.155-.892-.522-1.981-.817-1.09-.294-2.169-.641-2.399-.771-.229-.129-.839-.181-1.355-.114-.516.066-.939-.054-.939-.268 0-.221-1.99-.37-4.584-.343-2.522.026-4.587.194-4.589.374m17.115 5.161c16.958 8.128 37.12 30.05 37.28 40.533.213 13.999-36.414-10.801-47.556-32.2-5.29-10.161-.925-13.701 10.276-8.333m-75.929 60.321c0 2.687-.425 2.804-10.233 2.804h-8.935l-.72 1.147c-13.334 21.222-54.315 32.217-86.264 23.145a709.738 709.738 0 0 0-6.257-1.736c-1.94-.528-4.223-1.51-5.453-2.347-1.258-.856-2.626-1.44-3.375-1.44-2.629 0-11.401-5.602-11.401-7.281 0-.298-.986-1.389-2.19-2.425-1.204-1.036-3.222-2.934-4.484-4.219l-2.294-2.337-12.137-.002c-18.287-.004-19.683.208-17.954 2.72.312.453.809 1.574 1.105 2.491.295.918.885 2.323 1.31 3.122.425.8.773 1.606.773 1.792 0 .186.657 1.742 1.46 3.457.803 1.715 1.46 3.288 1.46 3.496 0 .208.234.626.521.929.287.303.943 1.396 1.458 2.428.515 1.033 1.167 2.253 1.45 2.712.282.458 1.259 2.054 2.172 3.545.912 1.491 1.906 2.993 2.209 3.337.303.344 1.64 2.033 2.971 3.754 2.609 3.37 9.247 9.831 11.939 11.62.911.606 1.991 1.43 2.399 1.831.407.402.915.73 1.128.73.213 0 .636.246.939.547.303.301 2.334 1.475 4.513 2.607 2.18 1.133 4.057 2.176 4.171 2.317.115.142 1.429.693 2.92 1.225 1.491.533 3.087 1.19 3.545 1.46.459.27 1.773.733 2.92 1.029 1.147.296 2.273.677 2.503.848.229.171 2.388.728 4.796 1.239 2.409.511 4.755 1.085 5.214 1.276 3.733 1.555 31.34 2.664 41.774 1.678 5.852-.553 11.115-1.328 11.407-1.681.114-.139 1.897-.592 3.962-1.007 2.065-.415 4.317-1.006 5.005-1.313.689-.307 2.284-.885 3.546-1.285 1.261-.399 2.669-.958 3.128-1.241.459-.283 1.585-.748 2.503-1.033.917-.285 1.91-.711 2.206-.946.297-.236 1.423-.864 2.503-1.397s2.34-1.202 2.798-1.486c.459-.285 1.585-.989 2.503-1.565.918-.575 2.082-1.269 2.587-1.541.505-.272 1.162-.694 1.46-.938 5.763-4.713 6.922-5.695 8.883-7.526 2.49-2.324 7.982-8.613 9.494-10.871a379.02 379.02 0 0 1 2.588-3.754c1.04-1.491 1.89-2.945 1.89-3.232.001-.287.157-.522.347-.522.19 0 .798-.985 1.351-2.189.553-1.205 1.107-2.284 1.232-2.399.382-.352 2.765-5.511 3.565-7.716.416-1.147.981-2.461 1.256-2.92.275-.459.744-1.866 1.041-3.128.298-1.262.68-2.484.849-2.716.451-.619 1.543-5.566 1.285-5.823-.853-.854-11.342-.179-11.342.73m-43.686 33.369c.557.849.55 1.106-.059 2.398l-.682 1.448-4.481.118c-2.57.068-4.481-.047-4.481-.27 0-.646 2.663-2.773 4.194-3.348.79-.297 1.812-.698 2.271-.891 1.476-.619 2.6-.43 3.238.545m-86.562.295c1.265.007 1.691 1.737.774 3.137-1.039 1.586-2.033 1.308-3.089-.865-1.019-2.098-.866-2.882.493-2.517a8.77 8.77 0 0 0 1.822.245m74.384 2.105c.443.238.807.853.807 1.368 0 1.2-1.173 2.887-1.757 2.526-.246-.152-1.125-.296-1.952-.32-2.577-.074-.938-3.397 1.963-3.979.073-.014.495.168.939.405m-70.225 2.28c-.034 1.222-.193 1.46-.976 1.46-1.173 0-1.382-.335-1.107-1.775.361-1.886 2.138-1.617 2.083.315m3.353 1.023c1.087 1.378.464 1.961-1.355 1.27-1.079-.411-1.214-.727-.786-1.842.369-.963 1.081-.773 2.141.572m4.848 1.264c.603.589-.133 1.258-1.383 1.258-1.181 0-1.941-.921-1.436-1.74.272-.439 2.215-.107 2.819.482m36.055 1.634l1.772.904.719-1.263c1.384-2.433 4.327-1.154 3.64 1.582-.588 2.345-6.701 2.479-8.443.186-.441-.58-.665-.6-1.525-.14-1.822.975-2.633-.516-1.11-2.039.922-.922 1.943-.763 4.947.77" fill="#cc2029"/><path d="M213.256 35.344c1.096.086 2.785.085 3.753-.003.969-.087.071-.158-1.993-.156-2.065.001-2.857.072-1.76.159M140.215 71.69c-.327.207.277.273 1.464.159 2.998-.288 4.018.681 4.345 4.129l.251 2.646.064-2.431c.098-3.761-3.324-6.278-6.124-4.503m-5.752 4.952c-1.234 1.694-1.614 2.557-.598 1.356.94-1.111 1.817-2.503 1.577-2.503-.079 0-.52.516-.979 1.147m-2.868 4.693c-.355.688-.553 1.251-.438 1.251.115 0 .5-.563.856-1.251.355-.688.553-1.252.438-1.252-.115 0-.5.564-.856 1.252m-12.513 1.206c1.013.221 1.249.484 1.238 1.379-.008.609.133 1.015.312.904 1.163-.718-.145-2.68-1.737-2.606-.99.046-.977.069.187.323m-3.754.685c-1.043.503-1.077.561-.208.348 1.182-.289 2.51-.966 1.877-.956-.23.003-.98.277-1.669.608m14.257 2.091c-.98 2.054-.842 2.404.182.462.465-.882.772-1.677.682-1.767-.09-.09-.479.497-.864 1.305m2.614.872c-.23.606-.341 1.178-.246 1.273.094.094.371-.401.615-1.101.543-1.556.215-1.708-.369-.172m8.156 1.402c-.356.688-.554 1.252-.439 1.252.115 0 .5-.564.856-1.252.356-.688.553-1.251.438-1.251-.115 0-.5.563-.855 1.251m1.251 2.086c-.356.688-.553 1.251-.439 1.251.115 0 .5-.563.856-1.251s.553-1.252.438-1.252c-.114 0-.499.564-.855 1.252m27.359 5.356c.489 1.402.339 7.444-.224 9.034l-.295.834.553-.834c.752-1.135.768-9.126.02-9.875-.432-.433-.442-.274-.054.841m-12.37.587l-1.225 1.356 1.356-1.225c1.263-1.142 1.547-1.486 1.225-1.486-.072 0-.682.61-1.356 1.355m-10.403.316c-1.067 1.178-.613 1.288.508.123.508-.528.772-.96.586-.96-.185 0-.678.377-1.094.837m6.388-.211c.211.459.488 1.115.615 1.46.201.54.237.537.265-.025.018-.358-.259-1.015-.615-1.46-.639-.797-.643-.796-.265.025m28.233-.256c1.145.248 1.252.417 1.252 1.997 0 .949.14 1.639.312 1.532 1.336-.829-.074-3.927-1.751-3.85-.989.046-.976.069.187.321m4.171 1.924c0 1.218.141 2.128.313 2.021.172-.106.313-1.016.313-2.021s-.141-1.915-.313-2.021c-.172-.106-.313.803-.313 2.021m-27.342-.313l-1.438 1.564 1.565-1.437c.86-.791 1.564-1.494 1.564-1.564 0-.319-.353-.019-1.691 1.437m-53.23 1.564c.002 1.606.077 2.212.168 1.347.09-.866.088-2.18-.004-2.92-.092-.74-.166-.032-.164 1.573m2.552.065c.08 1.411.361 2.913.625 3.336.417.669.442.634.188-.272-.161-.574-.442-2.075-.625-3.337l-.332-2.294.144 2.567m69.652-1.003l-1.225 1.356 1.356-1.226c1.263-1.141 1.547-1.486 1.225-1.486-.072 0-.682.61-1.356 1.356m-25.929.73c0 1.032.081 1.455.181.938a5.968 5.968 0 0 0 0-1.877c-.1-.516-.181-.093-.181.939m11.635-.439c-.244.7-.355 1.273-.246 1.273.281 0 1.068-2.167.862-2.373-.095-.095-.372.401-.616 1.1m-16.547.446c-.158.497-.926 1.17-1.707 1.496-1.765.738-1.872 1.114-.146.512 1.239-.432 2.823-2.229 2.367-2.685-.125-.125-.357.179-.514.677m-14.805 2.287c-1.013 1.032-1.748 1.877-1.634 1.877.115 0 1.038-.845 2.051-1.877 1.013-1.032 1.748-1.877 1.633-1.877-.114 0-1.037.845-2.05 1.877m49.4.313l-1.225 1.355 1.356-1.225c1.263-1.142 1.547-1.486 1.225-1.486-.072 0-.682.61-1.356 1.356m-6.788 1.373c-.267.585-.478 1.29-.469 1.566.009.276.294-.137.632-.917.713-1.642.562-2.241-.163-.649m-20.457-.156a7.718 7.718 0 0 1-.289 1.46c-.227.724-.215.725.237.021.262-.409.392-1.066.288-1.46-.169-.646-.193-.648-.236-.021m-11.75 1.03c-.23.606-.341 1.178-.246 1.273.094.095.371-.401.615-1.101.543-1.556.215-1.708-.369-.172m-15.696.464c-.143.401-.336.871-.429 1.043-.093.172.077.312.377.312.304 0 .546-.461.546-1.042 0-1.228-.138-1.316-.494-.313m-15.495 1.877c.862.86 1.809 1.558 2.104 1.551.296-.007.162-.219-.296-.472-.459-.252-1.406-.951-2.104-1.551-.707-.608-.576-.399.296.472m44.406 1.251c-.513 1.916-.266 3.97.596 4.959l.859.985-.707-1.161c-.535-.878-.65-1.716-.472-3.441.248-2.403.144-2.908-.276-1.342m19.863-.277c-.746.326-1.356.688-1.356.805 0 .218 2.926-.916 3.281-1.271.354-.355-.549-.136-1.925.466m-26.953 1.111l-.75 1.356.86-1.043c.762-.925 1.101-1.668.759-1.668-.065 0-.456.61-.869 1.355m10.417-.278c-.863 2.249.029 3.959 2.02 3.873 1.263-.054 1.262-.057-.187-.313-1.432-.253-1.46-.295-1.434-2.239.029-2.159-.018-2.313-.399-1.321m-41.853.473c.634.096 1.573.094 2.086-.005.513-.099-.006-.178-1.153-.175-1.147.004-1.567.085-.933.18m34.092.952c-.49.689-.797 1.252-.682 1.252.115 0 .609-.563 1.1-1.252.49-.688.797-1.251.682-1.251-.115 0-.61.563-1.1 1.251m13.113.522l-1.225 1.355 1.355-1.225c1.264-1.142 1.548-1.486 1.225-1.486-.071 0-.681.61-1.355 1.356m-52.97-.336c.445.357 1.102.634 1.46.616.561-.029.565-.065.024-.265a26.241 26.241 0 0 1-1.46-.616c-.821-.378-.821-.373-.024.265m27.344.533c0 .242.387.883.859 1.425l.859.985-.732-1.252c-.965-1.647-.986-1.671-.986-1.158m39.483.587c-.422.246-1.304.368-1.959.272-.656-.097-1.097-.022-.981.166.346.56 2.444.388 3.315-.27.945-.715.731-.811-.375-.168m-29.681 1.442l-1.251 1.075 1.356-.897c.745-.493 1.355-.978 1.355-1.077 0-.312-.177-.203-1.46.899m-44.688 1.391c-.721.44-1.457 1.049-1.636 1.354-.193.329.002.278.476-.122.441-.373 1.364-.976 2.053-1.339.688-.364 1.063-.668.834-.677-.23-.008-1.007.345-1.727.784m7.731.071c1.009.447 1.908.739 1.999.648.18-.18-3.034-1.539-3.528-1.491-.167.016.521.395 1.529.843m-4.649 1.09a5.968 5.968 0 0 0 1.877 0c.517-.099.094-.181-.938-.181s-1.455.082-.939.181m11.093.582c-.741.741-1.029.801-1.866.394-.94-.458-.949-.45-.179.166 1.06.85 1.167.832 2.318-.394 1.186-1.261.96-1.399-.273-.166m2.124.896l-1.225 1.356 1.356-1.225c1.263-1.142 1.547-1.486 1.225-1.486-.072 0-.682.61-1.356 1.355m-16.047.341c-.426.797.354 2.892 1.077 2.892.115 0-.091-.457-.456-1.015-.518-.789-.563-1.206-.204-1.877.254-.474.368-.862.253-.862-.115 0-.416.388-.67.862m15.044 1.536c.007.172.523.673 1.147 1.114l1.134.8-1.012-1.113c-1.062-1.17-1.291-1.314-1.269-.801m-2.516 1.65c.344.126 1.095.628 1.668 1.114l1.043.886-1.011-1.147c-.556-.631-1.307-1.132-1.668-1.114-.563.028-.568.066-.032.261m44.771.543c1.491.191 2.946.686 3.754 1.277.967.707 1.152.76.693.195-.916-1.127-3.058-1.9-5.096-1.837-1.65.05-1.6.078.649.365m-57.934.6c.445.356 1.102.634 1.46.615.561-.028.565-.064.024-.265a25.426 25.426 0 0 1-1.46-.615c-.821-.378-.821-.374-.024.265m53.205-.167c-.457.309-.288.348.625.144 1.534-.343 1.867-.582.8-.574-.44.004-1.081.197-1.425.43m-44.63.398c-.859.275-.896.34-.209.369.459.02 1.116-.146 1.46-.369.731-.472.224-.472-1.251 0m9.993 3.024c1.023 1.09 1.914 1.981 1.981 1.981.313 0-.018-.374-1.859-2.102l-1.982-1.86 1.86 1.981m2.642-1.497c.358.582 4.466 4.056 4.466 3.777 0-.109-1.072-1.112-2.381-2.229-1.31-1.118-2.248-1.814-2.085-1.548m25.716 2.123l-1.438 1.564 1.564-1.437c1.456-1.338 1.756-1.691 1.438-1.691-.07 0-.774.704-1.564 1.564m14.16-.512c.713 2.238.889 2.515.666 1.046-.122-.795-.41-1.636-.642-1.867-.282-.283-.29-.014-.024.821m-32.758 4.275c.33.534 2.77 2.34 2.77 2.05 0-.103-.689-.713-1.531-1.355-.842-.643-1.399-.955-1.239-.695m17.439 2.924c-.056 1.427-.259 1.862-1.009 2.163-.635.256-.719.386-.259.404 1.089.042 1.681-1.045 1.503-2.76l-.165-1.593-.07 1.786m-2.468.299c.005.918.091 1.244.19.725.1-.518.096-1.269-.008-1.668-.105-.399-.186.026-.182.943m15.296.059c-.556.606-1.845 1.638-2.865 2.294-1.02.656-1.658 1.193-1.418 1.193.584 0 3.443-2.122 4.701-3.489.556-.605.917-1.099.802-1.099-.114 0-.663.495-1.22 1.101m-27.914 1.959c0 .282 2.997 2.007 3.176 1.827.084-.083-.597-.572-1.512-1.086-.915-.514-1.664-.848-1.664-.741m14.703 2.668c1.09.086 2.873.086 3.963 0 1.089-.085.198-.156-1.982-.156-2.179 0-3.071.071-1.981.156m8.029.751c-1.043.503-1.077.561-.208.348 1.182-.289 2.51-.966 1.877-.957-.23.004-.981.278-1.669.609m-5.526 1.316a3.423 3.423 0 0 0 1.46 0c.401-.105.073-.191-.73-.191-.803 0-1.132.086-.73.191m45.487 32.558c2.709.073 7.026.072 9.594-.001 2.567-.073.351-.132-4.925-.132s-7.377.06-4.669.133" fill="#a33b66"/><path d="M182.586 35.338c.746.093 1.966.093 2.711 0 .746-.092.136-.168-1.355-.168-1.492 0-2.102.076-1.356.168m-7.612.544c-.759.199-.103.24 1.668.102 1.606-.125 2.998-.296 3.094-.379.319-.279-3.494-.057-4.762.277m44.108-.141a3.423 3.423 0 0 0 1.46 0c.402-.105.073-.191-.73-.191-.803 0-1.131.086-.73.191m-79.703 36.638c-3.194 1.387-8.138 9.019-11.745 18.132-1.536 3.88-3.373 8.835-4.331 11.679-1.927 5.723-3.441 6.624-9.147 5.439-11.378-2.364-8.521-21.486 3.363-22.507 2.66-.229 2.815-.299 2.815-1.285 0-2.712-6.771-.519-10.801 3.499-9.38 9.353-4.853 23.394 7.316 22.689 1.802-.104 3.274-.08 3.272.054-.009.573-2.477 4.483-3.293 5.217-.88.793-.905.792-2.086-.081-5.932-4.386-14.221-3.398-14.221 1.694 0 3.917 5.548 5.289 12.269 3.033l3.298-1.107 1.497 1.4c14.756 13.798 21.41 17.57 30.903 17.519 11.221-.06 20.817-9.185 16.533-15.723-4.109-6.27-19.036 1.078-19.036 9.371 0 2.839 1.78 2.244 2.141-.716.998-8.179 15.984-13.482 15.984-5.657 0 5.763-6.772 10.946-14.302 10.946-7.985 0-14.326-3.478-28.432-15.595-1.491-1.281-2.851-2.331-3.024-2.335-.799-.014-.156-1.514 1.405-3.278.945-1.068 2.206-2.93 2.802-4.138.907-1.839 1.549-2.477 3.948-3.927 15.766-9.526 27.438-40.649 12.872-34.323m5.002 2.474c1.475 5.553-7.921 22.262-16.038 28.523-2.637 2.034-3.527 2.151-2.587.339.339-.652.888-2.099 1.219-3.216.332-1.117.879-2.648 1.216-3.402.337-.755.902-2.217 1.255-3.249 3.865-11.301 7.455-18.14 10.451-19.913 1.671-.988 4.11-.489 4.484.918m203.944 4.13c-5.852 6.285 17.203 33.676 36.493 43.357 15.192 7.625 16.788-2.061 3.149-19.107-12.677-15.844-34.844-29.404-39.642-24.25M146.22 93.733c-1.07.273-3.989 2.218-3.989 2.658 0 .191-.545.905-1.211 1.587-7.3 7.468-1.586 19.295 6.531 13.517 8.565-6.098 7.522-20.017-1.331-17.762m13.113-.01c-1.112.402-3.754 3.191-3.754 3.963 0 1.083.396.94 2.158-.781 2.517-2.458 2.413-.898-.295 4.441-3.856 7.601-3.529 11.688.936 11.688 6.225 0 10.965-6.135 10.965-14.194 0-3.913-.586-5.409-2.118-5.409-1.651 0-2.131 1.713-.859 3.067 3.463 3.686-1.497 14.868-6.595 14.868-2.736 0-2.753-2.089-.061-7.656 3.698-7.648 3.908-8.418 2.614-9.589-.761-.688-1.805-.827-2.991-.398m18.769.608c-7.075 3.568-11.264 15.011-6.548 17.887 3.108 1.895 7.408.384 10.136-3.563 2.156-3.12 1.378-4.531-.836-1.515-1.712 2.332-3.781 3.809-5.335 3.809-1.228 0-2.972-1.72-2.773-2.734.158-.802.083-.754 4.675-2.942 5.561-2.648 7.731-4.869 7.757-7.938.03-3.532-3.259-4.929-7.076-3.004m-27.654 1.88c2.645 4.035-4.536 17.003-8.432 15.228-2.832-1.291-1.188-10.146 2.142-11.537 1.329-.555 2.122-1.903 1.61-2.732-1.216-1.968 3.399-2.914 4.68-.959m31.742-.611c1.733 1.733-.572 5.364-5.106 8.045-4.221 2.495-5.059 1.674-2.696-2.642 2.521-4.605 6.113-7.093 7.802-5.403m-71.867 19.293c4.885 2.379 4.712 3.104-1.042 4.363-3.705.811-7.427-1.116-6.283-3.253 1.237-2.312 3.999-2.731 7.325-1.11m41.085 40.117c0 .223.704 1.052 1.564 1.842l1.564 1.438-1.46-1.664c-.803-.915-1.507-1.744-1.564-1.842-.057-.098-.104.004-.104.226m93.847 5.991c-.802.44-1.309.807-1.126.817.442.023 2.795-1.2 2.795-1.453 0-.273-.025-.264-1.669.636m-80.083 1.82c0 .115.563.61 1.251 1.1.689.49 1.252.797 1.252.682 0-.114-.563-.609-1.252-1.099-.688-.49-1.251-.798-1.251-.683m6.048 3.185c.459.197 1.116.359 1.46.359.394 0 .317-.133-.209-.359-.458-.197-1.115-.358-1.46-.358-.394 0-.317.132.209.358m66.111 7.514c-.446.292-.236.335.725.151 1.093-.21 1.517-.07 2.215.73l.863.99-.698-1.147c-.722-1.185-1.962-1.474-3.105-.724m-83.008 1.449c.302.364.407 1.096.254 1.772-.219.966-.187 1.03.199.392.528-.871.179-2.785-.508-2.785-.311 0-.293.201.055.621m77.685 1.223c-.856.784-1.464 1.488-1.35 1.564.114.076.923-.566 1.798-1.426 1.99-1.957 1.651-2.062-.448-.138m7.825.45c-.377.993-.571 1.047-4.056 1.128l-3.66.085 3.481.141c3.613.147 4.394-.111 4.777-1.576.306-1.17-.071-1.016-.542.222m-15.014.833c-.538.573-.899 1.111-.803 1.196.097.086.612-.383 1.146-1.041 1.194-1.472.984-1.568-.343-.155m3.653.013c.108.567-.118 1.546-.503 2.178l-.698 1.147.859-.984c.872-1.001 1.151-2.748.502-3.149-.197-.122-.269.242-.16.808m-71.05 1.24c-.014.803.092 1.46.234 1.46.143 0 .279-.657.301-1.46.023-.803-.083-1.46-.234-1.46-.152 0-.288.657-.301 1.46m66.348 1.036c.117.188.863.323 1.66.3.796-.022 1.365-.123 1.264-.224-.345-.346-3.135-.418-2.924-.076m-58.181 1.226c.556.399.556.499 0 .898s-.556.43 0 .278c.344-.094.626-.421.626-.727s-.282-.633-.626-.727c-.556-.152-.556-.121 0 .278m41.933.377c.156.305.435 1.056.62 1.669.27.894.344.945.373.255.019-.472-.26-1.223-.621-1.668-.361-.445-.529-.56-.372-.256m-7.731.277c0 .285 2.554 1.551 2.745 1.36.091-.09-.49-.476-1.29-.858-.8-.381-1.455-.608-1.455-.502m-3.288 1.581c-.069 1.056.849 1.268 2.273.526.762-.397.957-.639.519-.641-.388-.001-.822.185-.963.415-.415.67-1.383.48-1.59-.313-.179-.684-.194-.684-.239.013m6.938 2.27c.746.092 1.966.092 2.711 0 .746-.093.136-.169-1.355-.169s-2.101.076-1.356.169" fill="#e3528e"/></g></svg>