<svg id="svg" version="1.1" width="500" height="500" xmlns="http://www.w3.org/2000/svg" xmlns:xlink="http://www.w3.org/1999/xlink" style="display: block;"><g id="svgg"><path id="path0" d="M45.600 139.200 L 45.600 172.800 52.800 172.800 L 60.000 172.800 60.000 146.000 L 60.000 119.200 86.400 119.200 L 112.800 119.200 112.800 112.400 L 112.800 105.600 79.200 105.600 L 45.600 105.600 45.600 139.200 M175.200 112.400 L 175.200 119.200 202.000 119.200 L 228.800 119.200 228.800 146.000 L 228.800 172.800 235.600 172.800 L 242.400 172.800 242.400 139.200 L 242.400 105.600 208.800 105.600 L 175.200 105.600 175.200 112.400 M45.600 268.800 L 45.600 302.400 79.200 302.400 L 112.800 302.400 112.800 295.600 L 112.800 288.800 86.400 288.800 L 60.000 288.800 60.000 262.000 L 60.000 235.200 52.800 235.200 L 45.600 235.200 45.600 268.800 M228.800 262.000 L 228.800 288.800 202.000 288.800 L 175.200 288.800 175.200 295.600 L 175.200 302.400 208.800 302.400 L 242.400 302.400 242.400 268.800 L 242.400 235.200 235.600 235.200 L 228.800 235.200 228.800 262.000 M108.392 332.336 C 107.296 333.431,106.345 335.154,106.278 336.164 C 106.211 337.174,106.073 338.360,105.970 338.800 C 105.868 339.240,105.743 340.230,105.692 341.000 C 105.637 341.836,104.955 342.400,104.000 342.400 C 102.637 342.400,102.400 342.933,102.400 346.000 C 102.400 349.098,102.629 349.600,104.043 349.600 C 105.605 349.600,105.682 350.028,105.597 358.200 C 105.547 362.930,105.528 367.430,105.553 368.200 C 105.592 369.373,106.380 369.600,110.400 369.600 L 115.200 369.600 115.200 359.600 L 115.200 349.600 119.806 349.600 L 124.412 349.600 124.125 346.000 L 123.839 342.400 119.519 342.400 C 115.469 342.400,115.200 342.278,115.200 340.440 C 115.200 337.701,117.129 336.909,122.594 337.405 L 127.303 337.832 127.052 334.316 L 126.800 330.800 118.592 330.572 C 110.764 330.354,110.291 330.436,108.392 332.336 M133.538 332.738 C 131.635 334.642,131.200 335.758,131.200 338.738 C 131.200 342.111,131.042 342.400,129.200 342.400 C 126.303 342.400,126.114 349.334,129.000 349.744 C 130.740 349.992,130.807 350.324,131.025 359.800 L 131.249 369.600 135.825 369.602 L 140.400 369.603 140.144 361.478 C 139.777 349.820,139.871 349.600,145.215 349.600 L 149.600 349.600 149.600 346.000 L 149.600 342.400 145.200 342.400 C 141.064 342.400,140.800 342.282,140.800 340.440 C 140.800 337.707,142.727 336.909,148.142 337.400 L 152.800 337.822 152.800 334.111 L 152.800 330.400 144.338 330.400 C 136.053 330.400,135.828 330.449,133.538 332.738 M7.865 332.424 C 3.276 334.916,2.482 347.644,6.655 351.821 C 8.745 353.913,9.214 354.011,18.416 354.267 L 28.000 354.534 28.000 357.969 C 28.000 363.228,27.249 363.515,15.183 362.859 L 4.800 362.295 4.800 365.828 L 4.800 369.360 12.123 369.880 C 34.927 371.499,38.114 369.908,37.473 357.223 C 37.013 348.122,35.545 346.938,24.202 346.533 C 14.870 346.200,13.600 345.712,13.600 342.462 C 13.600 338.818,14.768 338.400,24.960 338.400 L 34.400 338.400 34.400 334.800 L 34.400 331.200 22.200 331.232 C 13.109 331.256,9.456 331.560,7.865 332.424 M172.000 350.400 L 172.000 369.600 176.800 369.600 L 181.600 369.600 181.600 364.000 L 181.600 358.400 190.440 358.400 C 203.152 358.400,205.273 357.058,205.616 348.800 C 206.060 338.094,205.740 336.017,203.262 333.538 L 200.923 331.200 186.462 331.200 L 172.000 331.200 172.000 350.400 M246.402 348.199 C 246.915 369.867,247.012 370.098,255.705 370.328 L 261.600 370.484 261.600 366.493 C 261.600 362.574,261.552 362.497,259.000 362.251 L 256.400 362.000 256.183 346.600 L 255.965 331.200 250.983 331.199 L 246.000 331.197 246.402 348.199 M45.206 336.767 C 44.847 338.888,44.164 340.094,43.135 340.421 C 40.883 341.135,40.936 346.840,43.200 347.432 C 44.680 347.819,44.800 348.523,44.800 356.787 C 44.800 369.007,46.135 370.585,56.171 370.233 L 62.800 370.000 63.046 366.600 L 63.292 363.200 59.344 363.200 C 54.010 363.200,53.484 362.359,53.766 354.278 L 54.000 347.600 57.400 347.354 C 61.910 347.028,62.922 340.800,58.465 340.800 C 54.443 340.800,53.600 340.092,53.600 336.714 L 53.600 333.600 49.670 333.600 L 45.741 333.600 45.206 336.767 M195.972 339.947 C 199.559 346.651,196.313 351.200,187.943 351.200 L 181.600 351.200 181.600 344.800 L 181.600 338.400 188.372 338.400 C 194.248 338.400,195.253 338.605,195.972 339.947 M67.999 353.400 C 68.000 365.277,68.136 366.536,69.580 367.980 C 72.543 370.943,80.212 371.208,85.577 368.531 C 88.823 366.912,88.800 366.913,88.800 368.400 C 88.800 369.321,89.822 369.600,93.200 369.600 L 97.600 369.600 97.600 355.200 L 97.600 340.800 92.823 340.800 L 88.046 340.800 87.823 351.383 L 87.600 361.965 83.786 362.603 C 77.105 363.722,76.800 363.226,76.800 351.246 L 76.800 340.948 72.399 340.674 L 67.998 340.400 67.999 353.400 M214.692 340.936 C 211.517 342.473,210.800 345.208,210.800 355.791 L 210.800 365.733 213.413 368.066 C 217.472 371.692,234.834 371.689,238.462 368.062 C 242.809 363.714,241.752 343.020,237.074 340.888 C 234.629 339.774,217.013 339.812,214.692 340.936 M260.799 341.007 C 260.799 341.341,262.207 344.941,263.927 349.007 C 265.647 353.073,268.167 359.048,269.527 362.284 C 273.246 371.133,272.834 372.800,266.929 372.800 C 264.409 372.800,264.391 372.829,264.675 376.400 L 264.961 380.000 269.757 380.000 C 275.260 380.000,278.277 378.578,280.400 374.984 C 281.619 372.921,293.601 340.651,293.294 340.258 C 293.233 340.181,290.977 340.317,288.279 340.562 L 283.375 341.006 280.695 349.706 C 277.632 359.652,277.304 359.819,274.701 352.768 C 273.652 349.926,272.237 346.101,271.557 344.269 L 270.320 340.938 265.559 340.669 C 262.940 340.521,260.798 340.673,260.799 341.007 M303.422 340.726 C 295.782 341.453,294.868 342.743,294.526 353.275 C 294.078 367.040,296.134 369.395,307.818 368.497 L 314.508 367.982 314.254 370.191 L 314.000 372.400 305.200 372.400 L 296.400 372.400 296.326 375.691 L 296.252 378.982 302.726 379.486 C 315.103 380.450,318.558 380.186,321.200 378.073 L 323.600 376.154 323.843 358.477 L 324.087 340.800 317.309 340.800 C 313.581 340.800,310.051 340.677,309.465 340.526 C 308.879 340.376,306.160 340.466,303.422 340.726 M331.938 342.338 L 329.600 344.677 329.600 355.094 C 329.600 369.586,329.869 369.896,342.794 370.270 C 358.989 370.740,359.200 370.545,359.200 355.164 C 359.200 339.857,359.336 340.000,344.775 340.000 L 334.277 340.000 331.938 342.338 M378.400 341.287 C 376.328 342.193,375.239 342.289,374.211 341.656 C 373.447 341.185,371.197 340.800,369.211 340.800 L 365.600 340.800 365.600 355.200 L 365.600 369.600 370.000 369.600 L 374.400 369.600 374.400 359.698 C 374.400 348.528,374.516 348.283,380.135 347.512 C 385.871 346.726,386.400 347.751,386.400 359.657 L 386.400 369.600 390.800 369.600 L 395.200 369.600 395.200 357.138 L 395.200 344.677 392.862 342.338 C 390.118 339.595,383.389 339.105,378.400 341.287 M231.834 354.278 C 232.115 362.323,231.578 363.200,226.367 363.200 C 220.043 363.200,220.000 363.146,220.000 355.248 C 220.000 346.866,219.830 347.077,226.366 347.367 L 231.600 347.600 231.834 354.278 M314.000 354.400 L 314.000 361.200 309.200 361.200 L 304.400 361.200 304.163 355.326 C 303.866 347.932,304.507 347.047,309.929 347.363 L 314.000 347.600 314.000 354.400 M350.000 355.200 L 350.000 362.800 345.333 363.042 C 338.960 363.372,338.400 362.744,338.400 355.262 C 338.400 347.652,338.908 347.062,345.193 347.367 L 350.000 347.600 350.000 355.200 " stroke="none" fill="#000000" fill-rule="evenodd"></path><path id="path1" d="M113.084 112.400 C 113.082 116.360,113.217 118.081,113.385 116.224 C 113.552 114.367,113.554 111.127,113.389 109.024 C 113.224 106.921,113.086 108.440,113.084 112.400 M49.400 173.386 C 51.270 173.554,54.330 173.554,56.200 173.386 C 58.070 173.217,56.540 173.080,52.800 173.080 C 49.060 173.080,47.530 173.217,49.400 173.386 M232.224 173.389 C 234.327 173.554,237.567 173.552,239.424 173.385 C 241.281 173.217,239.560 173.082,235.600 173.084 C 231.640 173.086,230.121 173.224,232.224 173.389 M49.000 234.988 C 51.090 235.153,54.510 235.153,56.600 234.988 C 58.690 234.823,56.980 234.688,52.800 234.688 C 48.620 234.688,46.910 234.823,49.000 234.988 M232.224 234.989 C 234.327 235.154,237.567 235.152,239.424 234.985 C 241.281 234.817,239.560 234.682,235.600 234.684 C 231.640 234.686,230.121 234.824,232.224 234.989 M86.169 288.600 L 112.738 288.821 113.005 295.811 L 113.271 302.800 113.435 295.400 L 113.600 288.000 86.600 288.189 L 59.600 288.378 86.169 288.600 M188.149 288.598 C 195.491 288.730,207.731 288.731,215.349 288.599 C 222.967 288.467,216.960 288.359,202.000 288.359 C 187.040 288.359,180.807 288.467,188.149 288.598 M12.426 330.359 C 12.141 330.819,16.481 331.212,23.478 331.359 C 32.444 331.546,34.914 331.378,34.614 330.600 C 34.146 329.385,13.168 329.157,12.426 330.359 M127.126 330.200 C 127.085 330.530,127.111 332.305,127.183 334.145 C 127.309 337.367,127.216 337.502,124.657 337.817 L 122.000 338.144 125.000 338.272 L 128.000 338.400 128.000 334.000 C 128.000 330.399,127.415 327.858,127.126 330.200 M171.590 331.400 C 171.347 332.390,171.250 341.480,171.374 351.600 L 171.600 370.000 176.800 370.067 L 182.000 370.135 177.000 369.829 L 172.000 369.524 172.000 350.362 L 172.000 331.200 185.247 331.200 C 193.875 331.200,198.322 330.921,198.000 330.400 C 196.819 328.489,172.073 329.426,171.590 331.400 M246.000 330.400 C 245.690 330.902,247.458 331.200,250.753 331.200 C 253.718 331.200,256.000 330.852,256.000 330.400 C 256.000 329.956,253.882 329.600,251.247 329.600 C 248.633 329.600,246.272 329.960,246.000 330.400 M245.927 348.562 C 245.985 361.980,246.233 365.740,247.117 366.562 C 248.046 367.424,248.113 367.397,247.517 366.400 C 247.123 365.740,246.587 357.640,246.327 348.400 L 245.853 331.600 245.927 348.562 M49.356 333.388 L 53.512 333.681 53.816 337.040 L 54.120 340.400 54.260 336.600 L 54.400 332.800 49.800 332.948 L 45.200 333.096 49.356 333.388 M105.286 336.465 C 104.618 338.205,104.676 340.000,105.400 339.998 C 105.730 339.998,106.076 338.918,106.168 337.598 C 106.353 334.948,106.028 334.531,105.286 336.465 M118.000 337.600 C 118.272 338.040,119.283 338.394,120.247 338.388 C 121.672 338.378,121.776 338.230,120.800 337.600 C 119.224 336.581,117.371 336.581,118.000 337.600 M143.600 337.600 C 143.872 338.040,144.883 338.394,145.847 338.388 C 147.272 338.378,147.376 338.230,146.400 337.600 C 144.824 336.581,142.971 336.581,143.600 337.600 M149.000 338.151 C 149.770 338.353,151.030 338.353,151.800 338.151 C 152.570 337.950,151.940 337.786,150.400 337.786 C 148.860 337.786,148.230 337.950,149.000 338.151 M205.818 340.800 C 205.818 342.780,205.974 343.590,206.165 342.600 C 206.355 341.610,206.355 339.990,206.165 339.000 C 205.974 338.010,205.818 338.820,205.818 340.800 M221.829 339.792 C 224.375 339.951,228.335 339.950,230.629 339.789 C 232.923 339.628,230.840 339.497,226.000 339.499 C 221.160 339.501,219.283 339.633,221.829 339.792 M340.229 339.792 C 342.775 339.951,346.735 339.950,349.029 339.789 C 351.323 339.628,349.240 339.497,344.400 339.499 C 339.560 339.501,337.683 339.633,340.229 339.792 M384.211 339.774 C 385.427 339.958,387.227 339.953,388.211 339.763 C 389.195 339.573,388.200 339.423,386.000 339.429 C 383.800 339.435,382.995 339.590,384.211 339.774 M40.800 344.000 C 40.800 347.443,41.019 348.000,42.372 348.000 C 43.816 348.000,43.965 348.670,44.203 356.200 L 44.463 364.400 44.631 356.125 C 44.788 348.449,44.684 347.820,43.200 347.432 C 41.345 346.947,40.848 341.237,42.600 340.530 C 43.197 340.289,43.036 340.101,42.200 340.063 C 41.045 340.011,40.800 340.700,40.800 344.000 M57.800 340.583 C 62.773 341.103,62.425 346.990,57.400 347.354 L 54.000 347.600 53.766 354.278 C 53.480 362.466,53.987 363.245,59.498 363.070 L 63.600 362.939 59.200 362.470 L 54.800 362.000 54.569 355.000 L 54.338 348.000 57.969 348.000 L 61.600 348.000 61.600 344.000 L 61.600 340.000 58.200 340.134 L 54.800 340.269 57.800 340.583 M66.933 340.533 C 66.154 341.312,66.390 361.716,67.200 363.600 C 67.625 364.588,67.909 360.384,67.944 352.600 C 67.975 345.670,67.880 340.000,67.733 340.000 C 67.587 340.000,67.227 340.240,66.933 340.533 M72.600 340.590 L 76.800 340.884 76.800 351.195 C 76.800 356.866,77.070 361.673,77.400 361.878 C 77.730 362.083,77.891 357.244,77.758 351.125 L 77.516 340.000 72.958 340.148 L 68.400 340.296 72.600 340.590 M90.200 340.579 C 91.630 340.756,93.970 340.756,95.400 340.579 C 96.830 340.401,95.660 340.256,92.800 340.256 C 89.940 340.256,88.770 340.401,90.200 340.579 M265.583 340.573 C 267.993 340.751,270.270 341.325,270.643 341.848 C 271.117 342.512,271.224 342.437,270.998 341.600 C 270.759 340.716,269.425 340.380,265.937 340.325 L 261.200 340.250 265.583 340.573 M285.011 340.574 C 286.227 340.758,288.027 340.753,289.011 340.563 C 289.995 340.373,289.000 340.223,286.800 340.229 C 284.600 340.235,283.795 340.390,285.011 340.574 M302.611 340.574 C 303.827 340.758,305.627 340.753,306.611 340.563 C 307.595 340.373,306.600 340.223,304.400 340.229 C 302.200 340.235,301.395 340.390,302.611 340.574 M313.000 340.588 C 315.090 340.753,318.510 340.753,320.600 340.588 C 322.690 340.423,320.980 340.288,316.800 340.288 C 312.620 340.288,310.910 340.423,313.000 340.588 M365.155 341.028 C 364.938 341.594,364.860 348.344,364.980 356.028 L 365.200 370.000 370.200 370.238 L 375.200 370.476 375.026 359.838 L 374.852 349.200 374.602 359.400 L 374.352 369.600 369.976 369.600 L 365.600 369.600 365.600 355.126 L 365.600 340.652 370.001 340.926 C 372.422 341.077,374.402 340.930,374.401 340.600 C 374.399 339.513,365.580 339.922,365.155 341.028 M196.240 344.800 C 196.240 347.220,196.390 348.210,196.573 347.000 C 196.756 345.790,196.756 343.810,196.573 342.600 C 196.390 341.390,196.240 342.380,196.240 344.800 M101.918 346.000 C 101.988 349.411,102.235 350.012,103.600 350.079 C 104.732 350.134,104.803 350.061,103.842 349.828 C 102.868 349.593,102.392 348.439,102.160 345.750 L 101.837 342.000 101.918 346.000 M124.000 345.553 C 124.000 347.287,124.360 348.928,124.800 349.200 C 125.289 349.502,125.600 348.275,125.600 346.047 C 125.600 344.041,125.240 342.400,124.800 342.400 C 124.360 342.400,124.000 343.819,124.000 345.553 M149.734 345.760 L 149.600 349.520 145.000 349.809 L 140.400 350.097 145.025 350.249 C 150.242 350.419,150.693 349.969,150.188 345.084 C 149.882 342.123,149.864 342.150,149.734 345.760 M359.225 355.200 C 359.225 362.464,359.478 365.607,360.000 364.800 C 360.427 364.140,360.775 359.820,360.775 355.200 C 360.775 350.580,360.427 346.260,360.000 345.600 C 359.478 344.793,359.225 347.936,359.225 355.200 M205.818 348.800 C 205.818 350.780,205.974 351.590,206.165 350.600 C 206.355 349.610,206.355 347.990,206.165 347.000 C 205.974 346.010,205.818 346.820,205.818 348.800 M241.108 355.200 C 241.108 360.700,241.236 362.950,241.392 360.200 C 241.549 357.450,241.549 352.950,241.392 350.200 C 241.236 347.450,241.108 349.700,241.108 355.200 M328.000 355.200 C 328.000 360.926,328.285 363.918,328.800 363.600 C 329.246 363.324,329.600 359.607,329.600 355.200 C 329.600 350.793,329.246 347.076,328.800 346.800 C 328.285 346.482,328.000 349.474,328.000 355.200 M231.194 354.636 L 231.588 362.000 231.828 355.274 C 231.961 351.575,231.783 348.262,231.434 347.911 C 231.085 347.560,230.977 350.586,231.194 354.636 M307.400 347.773 C 308.610 347.956,310.590 347.956,311.800 347.773 C 313.010 347.590,312.020 347.440,309.600 347.440 C 307.180 347.440,306.190 347.590,307.400 347.773 M380.200 347.751 C 380.970 347.953,382.230 347.953,383.000 347.751 C 383.770 347.550,383.140 347.386,381.600 347.386 C 380.060 347.386,379.430 347.550,380.200 347.751 M338.468 355.200 C 338.498 359.734,338.742 361.467,339.200 360.400 C 340.146 358.198,340.146 351.064,339.200 349.600 C 338.668 348.776,338.438 350.532,338.468 355.200 M117.414 350.180 C 118.852 350.358,121.012 350.354,122.214 350.172 C 123.416 349.989,122.240 349.843,119.600 349.848 C 116.960 349.852,115.976 350.002,117.414 350.180 M313.856 354.400 C 313.856 357.260,314.001 358.430,314.179 357.000 C 314.356 355.570,314.356 353.230,314.179 351.800 C 314.001 350.370,313.856 351.540,313.856 354.400 M385.367 351.200 C 385.018 352.300,384.838 356.980,384.967 361.600 L 385.200 370.000 390.400 370.070 C 395.475 370.139,395.490 370.133,391.024 369.831 L 386.447 369.522 386.224 359.361 C 386.082 352.914,385.769 349.931,385.367 351.200 M184.600 350.986 C 186.470 351.154,189.530 351.154,191.400 350.986 C 193.270 350.817,191.740 350.680,188.000 350.680 C 184.260 350.680,182.730 350.817,184.600 350.986 M140.152 360.402 L 140.400 369.603 135.826 369.602 L 131.252 369.600 130.985 360.799 L 130.718 351.997 130.759 360.999 L 130.800 370.000 136.200 370.237 L 141.600 370.473 141.600 360.837 C 141.600 354.579,141.303 351.200,140.752 351.200 C 140.188 351.200,139.987 354.294,140.152 360.402 M104.928 358.953 C 104.858 362.997,105.070 366.474,105.400 366.679 C 105.730 366.884,105.901 364.656,105.779 361.726 C 105.395 352.446,105.060 351.357,104.928 358.953 M15.800 354.990 C 18.110 355.151,21.890 355.151,24.200 354.990 C 26.510 354.828,24.620 354.696,20.000 354.696 C 15.380 354.696,13.490 354.828,15.800 354.990 M37.818 357.600 C 37.818 359.580,37.974 360.390,38.165 359.400 C 38.355 358.410,38.355 356.790,38.165 355.800 C 37.974 354.810,37.818 355.620,37.818 357.600 M185.400 358.990 C 187.710 359.151,191.490 359.151,193.800 358.990 C 196.110 358.828,194.220 358.696,189.600 358.696 C 184.980 358.696,183.090 358.828,185.400 358.990 M304.723 361.046 C 305.080 361.401,307.313 361.576,309.686 361.434 L 314.000 361.177 309.037 360.789 C 306.307 360.575,304.366 360.691,304.723 361.046 M3.733 362.133 C 2.881 362.985,3.118 369.600,4.000 369.600 C 4.440 369.600,4.800 368.001,4.800 366.046 L 4.800 362.492 8.200 362.186 L 11.600 361.880 7.933 361.740 C 5.917 361.663,4.027 361.840,3.733 362.133 M16.600 362.986 C 18.470 363.154,21.530 363.154,23.400 362.986 C 25.270 362.817,23.740 362.680,20.000 362.680 C 16.260 362.680,14.730 362.817,16.600 362.986 M10.209 370.166 C 11.204 370.357,12.644 370.350,13.409 370.150 C 14.174 369.949,13.360 369.793,11.600 369.802 C 9.840 369.811,9.214 369.974,10.209 370.166 M91.014 370.180 C 92.452 370.358,94.612 370.354,95.814 370.172 C 97.016 369.989,95.840 369.843,93.200 369.848 C 90.560 369.852,89.576 370.002,91.014 370.180 M107.800 370.179 C 109.230 370.356,111.570 370.356,113.000 370.179 C 114.430 370.001,113.260 369.856,110.400 369.856 C 107.540 369.856,106.370 370.001,107.800 370.179 M25.409 370.966 C 26.404 371.157,27.844 371.150,28.609 370.950 C 29.374 370.749,28.560 370.593,26.800 370.602 C 25.040 370.611,24.414 370.774,25.409 370.966 M75.400 370.951 C 76.170 371.153,77.430 371.153,78.200 370.951 C 78.970 370.750,78.340 370.586,76.800 370.586 C 75.260 370.586,74.630 370.750,75.400 370.951 M222.227 370.991 C 224.552 371.153,228.152 371.151,230.227 370.987 C 232.302 370.823,230.400 370.690,226.000 370.692 C 221.600 370.694,219.902 370.829,222.227 370.991 M340.600 370.990 C 342.910 371.151,346.690 371.151,349.000 370.990 C 351.310 370.828,349.420 370.696,344.800 370.696 C 340.180 370.696,338.290 370.828,340.600 370.990 M298.400 372.162 C 298.400 372.513,301.370 372.758,305.000 372.707 C 312.403 372.603,311.905 372.229,303.800 371.806 C 300.830 371.651,298.400 371.811,298.400 372.162 M263.733 372.533 C 262.851 373.415,263.133 379.064,264.089 379.655 C 264.705 380.036,264.888 379.082,264.686 376.538 L 264.394 372.873 267.597 372.576 L 270.800 372.280 267.533 372.140 C 265.737 372.063,264.027 372.240,263.733 372.533 M295.200 375.200 C 295.200 376.080,295.560 376.800,296.000 376.800 C 296.440 376.800,296.800 376.080,296.800 375.200 C 296.800 374.320,296.440 373.600,296.000 373.600 C 295.560 373.600,295.200 374.320,295.200 375.200 M301.877 380.107 C 302.936 380.723,303.604 380.716,304.237 380.083 C 304.881 379.439,304.481 379.207,302.760 379.224 C 300.691 379.246,300.582 379.355,301.877 380.107 " stroke="none" fill="#3e3e3e" fill-rule="evenodd"></path><path id="path2" d="M211.568 52.800 C 211.568 72.820,211.672 81.010,211.799 71.000 C 211.926 60.990,211.926 44.610,211.799 34.600 C 211.672 24.590,211.568 32.780,211.568 52.800 M260.347 69.200 C 260.346 80.200,260.459 84.811,260.597 79.447 C 260.735 74.082,260.736 65.082,260.598 59.447 C 260.460 53.811,260.347 58.200,260.347 69.200 M62.654 105.399 C 72.254 105.527,87.734 105.527,97.054 105.399 C 106.374 105.271,98.520 105.167,79.600 105.167 C 60.680 105.167,53.054 105.272,62.654 105.399 M174.742 105.862 C 174.514 106.456,174.434 109.790,174.564 113.271 L 174.800 119.600 201.389 119.811 L 227.978 120.022 228.200 146.611 L 228.422 173.200 228.611 146.200 L 228.800 119.200 202.000 119.200 L 175.200 119.200 175.200 112.400 L 175.200 105.600 208.791 105.600 L 242.383 105.600 242.604 139.600 L 242.826 173.600 242.813 139.400 L 242.800 105.200 208.978 104.991 C 181.188 104.820,175.083 104.975,174.742 105.862 M72.949 119.798 C 80.291 119.930,92.531 119.931,100.149 119.799 C 107.767 119.667,101.760 119.559,86.800 119.559 C 71.840 119.559,65.607 119.667,72.949 119.798 M144.200 136.598 L 211.200 136.809 211.200 204.000 L 211.200 271.191 144.000 271.402 L 76.800 271.614 144.200 271.607 L 211.600 271.600 211.600 204.000 L 211.600 136.400 144.400 136.393 L 77.200 136.386 144.200 136.598 M228.359 261.200 C 228.359 276.160,228.467 282.167,228.599 274.549 C 228.731 266.931,228.730 254.691,228.598 247.349 C 228.467 240.007,228.359 246.240,228.359 261.200 M242.767 268.400 C 242.767 287.320,242.872 294.946,242.999 285.346 C 243.127 275.746,243.127 260.266,242.999 250.946 C 242.871 241.626,242.767 249.480,242.767 268.400 M265.400 240.592 C 268.150 240.749,272.650 240.749,275.400 240.592 C 278.150 240.436,275.900 240.308,270.400 240.308 C 264.900 240.308,262.650 240.436,265.400 240.592 M285.431 240.593 C 288.199 240.750,292.519 240.749,295.031 240.590 C 297.544 240.432,295.280 240.304,290.000 240.305 C 284.720 240.307,282.664 240.436,285.431 240.593 M306.231 240.593 C 308.999 240.750,313.319 240.749,315.831 240.590 C 318.344 240.432,316.080 240.304,310.800 240.305 C 305.520 240.307,303.464 240.436,306.231 240.593 M323.821 240.587 C 325.703 240.756,328.583 240.753,330.221 240.582 C 331.860 240.410,330.320 240.271,326.800 240.274 C 323.280 240.277,321.940 240.418,323.821 240.587 M174.688 295.200 C 174.688 299.380,174.823 301.090,174.988 299.000 C 175.153 296.910,175.153 293.490,174.988 291.400 C 174.823 289.310,174.688 291.020,174.688 295.200 M34.651 333.869 L 34.800 338.356 25.200 338.618 L 15.600 338.880 25.600 338.840 L 35.600 338.800 35.848 334.888 C 35.985 332.737,35.738 330.618,35.299 330.179 C 34.769 329.649,34.552 330.886,34.651 333.869 M119.014 330.180 C 120.452 330.358,122.612 330.354,123.814 330.172 C 125.016 329.989,123.840 329.843,121.200 329.848 C 118.560 329.852,117.576 330.002,119.014 330.180 M142.221 330.187 C 144.103 330.356,146.983 330.353,148.621 330.182 C 150.260 330.010,148.720 329.871,145.200 329.874 C 141.680 329.877,140.340 330.018,142.221 330.187 M152.944 333.733 C 152.856 336.492,152.409 338.425,151.800 338.670 C 151.017 338.986,151.022 339.087,151.825 339.137 C 153.300 339.228,153.738 337.540,153.392 333.098 L 153.088 329.200 152.944 333.733 M197.888 330.219 C 198.157 330.653,199.309 331.187,200.449 331.405 C 202.893 331.872,202.042 330.835,199.300 330.004 C 198.117 329.646,197.584 329.727,197.888 330.219 M256.288 336.800 C 256.288 340.980,256.423 342.690,256.588 340.600 C 256.753 338.510,256.753 335.090,256.588 333.000 C 256.423 330.910,256.288 332.620,256.288 336.800 M3.456 342.400 C 3.456 345.260,3.601 346.430,3.779 345.000 C 3.956 343.570,3.956 341.230,3.779 339.800 C 3.601 338.370,3.456 339.540,3.456 342.400 M140.909 340.200 C 140.800 342.392,140.818 342.399,145.800 342.249 L 150.800 342.097 146.251 341.810 C 142.312 341.562,141.655 341.287,141.360 339.762 C 141.076 338.298,140.999 338.372,140.909 340.200 M181.934 339.484 C 181.705 340.081,181.647 342.871,181.805 345.684 L 182.092 350.800 182.246 345.034 L 182.400 339.267 188.600 338.995 L 194.800 338.722 188.575 338.561 C 183.959 338.442,182.242 338.680,181.934 339.484 M115.454 340.400 C 115.595 341.795,116.230 342.009,120.408 342.072 L 125.200 342.143 120.651 341.833 C 117.235 341.600,116.002 341.184,115.697 340.162 C 115.400 339.163,115.335 339.227,115.454 340.400 M206.669 344.800 C 206.669 348.100,206.810 349.450,206.983 347.800 C 207.155 346.150,207.155 343.450,206.983 341.800 C 206.810 340.150,206.669 341.500,206.669 344.800 M87.197 350.563 C 86.979 356.592,87.081 361.243,87.425 360.898 C 87.769 360.553,87.947 355.619,87.822 349.935 L 87.594 339.600 87.197 350.563 M97.935 355.200 C 97.935 363.780,98.053 367.290,98.196 363.000 C 98.340 358.710,98.340 351.690,98.196 347.400 C 98.053 343.110,97.935 346.620,97.935 355.200 M104.800 340.744 C 104.800 341.154,103.990 341.604,103.000 341.744 C 99.729 342.209,99.876 350.883,103.163 351.365 C 104.503 351.562,105.600 351.450,105.600 351.117 C 105.600 350.784,104.790 350.396,103.800 350.256 C 100.855 349.837,100.624 342.400,103.556 342.400 C 104.840 342.400,105.600 341.954,105.600 341.200 C 105.600 340.540,105.420 340.000,105.200 340.000 C 104.980 340.000,104.800 340.335,104.800 340.744 M324.341 357.200 C 324.342 366.880,324.457 370.730,324.598 365.756 C 324.738 360.781,324.738 352.861,324.597 348.156 C 324.455 343.450,324.340 347.520,324.341 357.200 M128.800 341.516 C 126.374 342.191,125.647 350.694,128.000 350.866 C 128.690 350.917,128.775 350.811,128.200 350.618 C 126.382 350.008,126.894 342.400,128.753 342.400 C 129.607 342.400,130.528 342.040,130.800 341.600 C 131.072 341.160,131.183 340.836,131.047 340.880 C 130.911 340.924,129.900 341.210,128.800 341.516 M195.418 344.800 C 195.418 346.780,195.574 347.590,195.765 346.600 C 195.955 345.610,195.955 343.990,195.765 343.000 C 195.574 342.010,195.418 342.820,195.418 344.800 M395.196 352.637 L 395.592 362.000 395.824 353.268 C 395.952 348.466,395.774 344.253,395.428 343.905 C 395.083 343.558,394.978 347.487,395.196 352.637 M256.296 352.800 C 256.296 357.420,256.428 359.310,256.590 357.000 C 256.751 354.690,256.751 350.910,256.590 348.600 C 256.428 346.290,256.296 348.180,256.296 352.800 M18.600 346.183 C 20.250 346.355,22.950 346.355,24.600 346.183 C 26.250 346.010,24.900 345.869,21.600 345.869 C 18.300 345.869,16.950 346.010,18.600 346.183 M209.884 354.000 C 209.882 357.960,210.017 359.681,210.185 357.824 C 210.352 355.967,210.354 352.727,210.189 350.624 C 210.024 348.521,209.886 350.040,209.884 354.000 M223.814 347.780 C 225.252 347.958,227.412 347.954,228.614 347.772 C 229.816 347.589,228.640 347.443,226.000 347.448 C 223.360 347.452,222.376 347.602,223.814 347.780 M293.892 354.800 C 293.894 359.200,294.029 360.898,294.191 358.573 C 294.353 356.248,294.351 352.648,294.187 350.573 C 294.023 348.498,293.890 350.400,293.892 354.800 M339.724 347.800 C 339.520 348.130,341.028 348.292,343.076 348.161 C 348.919 347.786,349.627 347.394,344.647 347.293 C 342.143 347.242,339.928 347.470,339.724 347.800 M304.334 349.084 C 304.105 349.681,304.031 352.471,304.169 355.284 L 304.421 360.400 304.811 354.198 C 305.200 347.992,305.113 347.054,304.334 349.084 M43.332 356.000 C 43.273 360.180,43.490 364.018,43.815 364.528 C 44.140 365.038,44.301 362.518,44.172 358.928 C 43.814 348.869,43.451 347.606,43.332 356.000 M220.000 354.993 C 220.000 362.493,220.554 363.244,225.960 363.070 L 230.000 362.939 225.608 362.470 L 221.216 362.000 221.475 355.889 C 221.636 352.090,221.406 349.574,220.867 349.241 C 220.272 348.874,220.000 350.682,220.000 354.993 M349.880 355.200 C 349.880 358.940,350.017 360.470,350.186 358.600 C 350.354 356.730,350.354 353.670,350.186 351.800 C 350.017 349.930,349.880 351.460,349.880 355.200 M375.513 359.200 C 375.513 365.140,375.639 367.570,375.793 364.600 C 375.947 361.630,375.947 356.770,375.793 353.800 C 375.639 350.830,375.513 353.260,375.513 359.200 M119.800 350.191 L 115.200 350.480 115.373 360.640 L 115.546 370.800 115.798 361.000 L 116.049 351.200 120.825 351.200 C 123.475 351.200,125.600 350.844,125.600 350.400 C 125.600 349.960,125.330 349.668,125.000 349.751 C 124.670 349.834,122.330 350.032,119.800 350.191 M145.200 350.400 L 140.400 350.931 145.400 351.066 C 148.290 351.143,150.400 350.862,150.400 350.400 C 150.400 349.960,150.310 349.661,150.200 349.734 C 150.090 349.808,147.840 350.108,145.200 350.400 M181.869 364.800 C 181.869 368.100,182.010 369.450,182.183 367.800 C 182.355 366.150,182.355 363.450,182.183 361.800 C 182.010 360.150,181.869 361.500,181.869 364.800 M13.011 362.174 C 14.227 362.358,16.027 362.353,17.011 362.163 C 17.995 361.973,17.000 361.823,14.800 361.829 C 12.600 361.835,11.795 361.990,13.011 362.174 M79.809 362.166 C 80.804 362.357,82.244 362.350,83.009 362.150 C 83.774 361.949,82.960 361.793,81.200 361.802 C 79.440 361.811,78.814 361.974,79.809 362.166 M63.200 366.400 C 63.200 368.600,63.560 370.400,64.000 370.400 C 64.440 370.400,64.800 368.600,64.800 366.400 C 64.800 364.200,64.440 362.400,64.000 362.400 C 63.560 362.400,63.200 364.200,63.200 366.400 M261.840 366.400 C 261.840 368.820,261.990 369.810,262.173 368.600 C 262.356 367.390,262.356 365.410,262.173 364.200 C 261.990 362.990,261.840 363.980,261.840 366.400 M342.600 362.973 C 343.810 363.156,345.790 363.156,347.000 362.973 C 348.210 362.790,347.220 362.640,344.800 362.640 C 342.380 362.640,341.390 362.790,342.600 362.973 M395.440 366.400 C 395.440 368.820,395.590 369.810,395.773 368.600 C 395.956 367.390,395.956 365.410,395.773 364.200 C 395.590 362.990,395.440 363.980,395.440 366.400 M311.200 368.775 C 311.200 369.201,311.709 369.355,312.330 369.116 C 312.994 368.861,313.615 369.284,313.837 370.141 C 314.140 371.311,314.233 371.244,314.307 369.800 C 314.374 368.502,313.953 368.000,312.800 368.000 C 311.920 368.000,311.200 368.349,311.200 368.775 M302.214 369.380 C 303.652 369.558,305.812 369.554,307.014 369.372 C 308.216 369.189,307.040 369.043,304.400 369.048 C 301.760 369.052,300.776 369.202,302.214 369.380 M18.611 370.974 C 19.827 371.158,21.627 371.153,22.611 370.963 C 23.595 370.773,22.600 370.623,20.400 370.629 C 18.200 370.635,17.395 370.790,18.611 370.974 M56.609 370.966 C 57.604 371.157,59.044 371.150,59.809 370.950 C 60.574 370.749,59.760 370.593,58.000 370.602 C 56.240 370.611,55.614 370.774,56.609 370.966 M295.263 378.153 C 295.179 379.423,295.829 379.757,299.606 380.387 C 301.963 380.780,302.485 380.698,301.600 380.072 C 300.940 379.606,299.440 379.219,298.267 379.212 C 297.093 379.206,295.952 378.750,295.730 378.200 C 295.439 377.479,295.309 377.466,295.263 378.153 M267.814 380.580 C 269.252 380.758,271.412 380.754,272.614 380.572 C 273.816 380.389,272.640 380.243,270.000 380.248 C 267.360 380.252,266.376 380.402,267.814 380.580 M308.600 380.586 C 310.470 380.754,313.530 380.754,315.400 380.586 C 317.270 380.417,315.740 380.280,312.000 380.280 C 308.260 380.280,306.730 380.417,308.600 380.586 " stroke="none" fill="#bfbfbf" fill-rule="evenodd"></path><path id="path3" d="M138.708 28.800 C 138.708 34.300,138.836 36.550,138.992 33.800 C 139.149 31.050,139.149 26.550,138.992 23.800 C 138.836 21.050,138.708 23.300,138.708 28.800 M138.708 48.800 C 138.708 54.300,138.836 56.550,138.992 53.800 C 139.149 51.050,139.149 46.550,138.992 43.800 C 138.836 41.050,138.708 43.300,138.708 48.800 M279.760 49.399 L 299.921 49.627 300.209 54.214 L 300.497 58.800 300.649 53.800 L 300.800 48.800 280.200 48.986 L 259.600 49.171 279.760 49.399 M138.705 68.400 C 138.707 73.680,138.836 75.736,138.993 72.969 C 139.150 70.201,139.149 65.881,138.990 63.369 C 138.832 60.856,138.704 63.120,138.705 68.400 M300.308 68.800 C 300.308 74.300,300.436 76.550,300.592 73.800 C 300.749 71.050,300.749 66.550,300.592 63.800 C 300.436 61.050,300.308 63.300,300.308 68.800 M300.000 83.986 L 300.000 88.773 279.800 89.001 L 259.600 89.229 280.200 89.414 L 300.800 89.600 300.800 84.400 C 300.800 81.540,300.620 79.200,300.400 79.200 C 300.180 79.200,300.000 81.354,300.000 83.986 M138.551 84.600 L 138.400 89.600 169.400 89.410 L 200.400 89.220 169.840 89.000 L 139.279 88.781 138.991 84.191 L 138.703 79.600 138.551 84.600 M203.400 89.383 C 205.050 89.555,207.750 89.555,209.400 89.383 C 211.050 89.210,209.700 89.069,206.400 89.069 C 203.100 89.069,201.750 89.210,203.400 89.383 M45.167 139.200 C 45.167 158.340,45.272 166.170,45.399 156.600 C 45.527 147.030,45.527 131.370,45.399 121.800 C 45.272 112.230,45.167 120.060,45.167 139.200 M113.892 112.400 C 113.894 116.800,114.029 118.498,114.191 116.173 C 114.353 113.848,114.351 110.248,114.187 108.173 C 114.023 106.098,113.890 108.000,113.892 112.400 M346.563 111.800 L 346.726 118.800 346.995 112.232 L 347.264 105.664 353.832 105.395 L 360.400 105.126 353.400 104.963 L 346.400 104.800 346.563 111.800 M366.580 105.394 L 372.761 105.667 373.002 118.633 L 373.243 131.600 373.421 118.200 L 373.600 104.800 367.000 104.961 L 360.400 105.122 366.580 105.394 M346.674 125.200 C 346.677 128.720,346.818 130.060,346.987 128.179 C 347.156 126.297,347.153 123.417,346.982 121.779 C 346.810 120.140,346.671 121.680,346.674 125.200 M60.359 146.800 C 60.359 161.760,60.467 167.767,60.599 160.149 C 60.731 152.531,60.730 140.291,60.598 132.949 C 60.467 125.607,60.359 131.840,60.359 146.800 M76.308 148.800 C 76.308 154.300,76.436 156.550,76.592 153.800 C 76.749 151.050,76.749 146.550,76.592 143.800 C 76.436 141.050,76.308 143.300,76.308 148.800 M76.305 168.400 C 76.307 173.680,76.436 175.736,76.593 172.969 C 76.750 170.201,76.749 165.881,76.590 163.369 C 76.432 160.856,76.304 163.120,76.305 168.400 M76.305 189.200 C 76.307 194.480,76.436 196.536,76.593 193.769 C 76.750 191.001,76.749 186.681,76.590 184.169 C 76.432 181.656,76.304 183.920,76.305 189.200 M76.308 208.800 C 76.308 214.300,76.436 216.550,76.592 213.800 C 76.749 211.050,76.749 206.550,76.592 203.800 C 76.436 201.050,76.308 203.300,76.308 208.800 M76.308 228.800 C 76.308 234.300,76.436 236.550,76.592 233.800 C 76.749 231.050,76.749 226.550,76.592 223.800 C 76.436 221.050,76.308 223.300,76.308 228.800 M44.991 268.600 L 44.800 303.200 79.600 303.200 L 114.400 303.200 114.234 295.400 L 114.068 287.600 113.804 295.000 L 113.540 302.400 79.579 302.400 L 45.617 302.400 45.400 268.200 L 45.182 234.000 44.991 268.600 M60.352 256.400 C 60.352 268.720,60.463 273.648,60.598 267.352 C 60.734 261.055,60.733 250.975,60.598 244.952 C 60.462 238.928,60.351 244.080,60.352 256.400 M76.308 248.800 C 76.308 254.300,76.436 256.550,76.592 253.800 C 76.749 251.050,76.749 246.550,76.592 243.800 C 76.436 241.050,76.308 243.300,76.308 248.800 M76.280 265.600 C 76.280 269.340,76.417 270.870,76.586 269.000 C 76.754 267.130,76.754 264.070,76.586 262.200 C 76.417 260.330,76.280 261.860,76.280 265.600 M60.248 283.600 C 60.252 286.240,60.402 287.224,60.580 285.786 C 60.758 284.348,60.754 282.188,60.572 280.986 C 60.389 279.784,60.243 280.960,60.248 283.600 M191.400 302.999 C 200.970 303.127,216.630 303.127,226.200 302.999 C 235.770 302.872,227.940 302.767,208.800 302.767 C 189.660 302.767,181.830 302.872,191.400 302.999 M6.600 331.225 C 5.610 331.623,4.800 332.328,4.800 332.793 C 4.800 333.463,7.069 332.432,9.533 330.642 C 10.207 330.153,8.348 330.522,6.600 331.225 M131.912 332.200 C 130.972 333.990,130.976 333.992,132.684 332.476 C 134.590 330.783,134.765 330.400,133.628 330.400 C 133.204 330.400,132.431 331.210,131.912 332.200 M54.540 336.200 L 54.400 340.000 58.000 340.000 L 61.600 340.000 61.600 344.000 L 61.600 348.000 57.969 348.000 L 54.338 348.000 54.569 355.000 L 54.800 362.000 59.600 362.093 L 64.400 362.185 60.000 361.693 L 55.600 361.200 55.366 355.000 L 55.133 348.800 58.766 348.800 L 62.400 348.800 62.400 344.000 L 62.400 339.200 58.846 339.200 L 55.292 339.200 54.986 335.800 L 54.680 332.400 54.540 336.200 M221.829 338.992 C 224.375 339.151,228.335 339.150,230.629 338.989 C 232.923 338.828,230.840 338.697,226.000 338.699 C 221.160 338.701,219.283 338.833,221.829 338.992 M384.600 338.965 C 385.590 339.155,387.210 339.155,388.200 338.965 C 389.190 338.774,388.380 338.618,386.400 338.618 C 384.420 338.618,383.610 338.774,384.600 338.965 M40.120 341.800 C 40.228 344.147,40.272 344.191,40.568 342.249 C 40.787 340.816,41.481 339.985,42.648 339.758 C 44.091 339.478,44.012 339.399,42.200 339.309 C 40.206 339.210,40.011 339.444,40.120 341.800 M69.000 339.783 C 70.650 339.955,73.350 339.955,75.000 339.783 C 76.650 339.610,75.300 339.469,72.000 339.469 C 68.700 339.469,67.350 339.610,69.000 339.783 M90.221 339.787 C 92.103 339.956,94.983 339.953,96.621 339.782 C 98.260 339.610,96.720 339.471,93.200 339.474 C 89.680 339.477,88.340 339.618,90.221 339.787 M212.689 340.847 L 210.800 342.495 213.200 341.090 C 216.359 339.240,216.406 339.200,215.422 339.200 C 214.957 339.200,213.727 339.941,212.689 340.847 M264.777 339.798 C 268.269 339.961,271.007 340.477,271.364 341.039 C 271.780 341.693,271.979 341.552,271.988 340.600 C 271.999 339.366,271.217 339.219,265.400 339.359 L 258.800 339.518 264.777 339.798 M288.162 339.794 C 293.546 340.032,294.269 340.239,293.887 341.433 C 293.514 342.596,293.578 342.621,294.312 341.600 C 295.871 339.433,295.273 339.198,288.600 339.361 L 282.000 339.522 288.162 339.794 M306.238 339.796 C 309.889 339.944,315.649 339.944,319.038 339.794 C 322.427 339.644,319.440 339.523,312.400 339.524 C 305.360 339.525,302.587 339.647,306.238 339.796 M332.191 339.733 C 331.636 339.956,330.777 340.918,330.282 341.870 C 329.450 343.471,329.555 343.451,331.691 341.600 C 332.961 340.500,334.150 339.510,334.333 339.400 C 334.917 339.050,333.240 339.310,332.191 339.733 M356.619 340.803 C 360.016 342.874,361.128 342.871,358.000 340.800 C 356.680 339.926,355.240 339.210,354.800 339.208 C 354.360 339.207,355.179 339.925,356.619 340.803 M364.120 341.800 C 364.231 344.220,364.263 344.248,364.573 342.200 C 364.942 339.765,373.829 338.687,374.595 340.984 C 374.854 341.762,375.328 341.761,376.861 340.980 C 378.670 340.058,378.679 340.022,377.000 340.450 C 375.971 340.711,375.200 340.542,375.200 340.054 C 375.200 339.530,373.036 339.200,369.600 339.200 L 364.000 339.200 364.120 341.800 M392.022 340.563 C 393.110 341.313,394.455 342.483,395.012 343.163 C 395.886 344.233,395.995 344.238,395.812 343.200 C 395.591 341.950,392.174 339.214,390.822 339.205 C 390.394 339.202,390.934 339.813,392.022 340.563 M296.991 340.533 C 296.436 340.756,295.577 341.718,295.082 342.670 C 294.250 344.271,294.355 344.251,296.491 342.400 C 297.761 341.300,298.950 340.310,299.133 340.200 C 299.717 339.850,298.040 340.110,296.991 340.533 M150.663 346.000 C 150.666 349.080,150.811 350.242,150.984 348.582 C 151.157 346.922,151.154 344.402,150.977 342.982 C 150.801 341.562,150.659 342.920,150.663 346.000 M240.037 342.469 C 240.528 343.386,241.089 343.978,241.284 343.783 C 241.844 343.223,240.708 340.800,239.886 340.800 C 239.478 340.800,239.545 341.550,240.037 342.469 M241.899 353.200 C 241.901 358.040,242.033 359.917,242.192 357.371 C 242.351 354.825,242.350 350.865,242.189 348.571 C 242.028 346.277,241.897 348.360,241.899 353.200 M273.195 346.000 C 273.881 348.765,276.886 355.706,276.442 353.501 C 276.210 352.347,275.295 349.827,274.409 347.901 C 273.523 345.975,272.976 345.120,273.195 346.000 M292.512 345.355 C 291.638 346.228,291.946 346.933,293.200 346.933 C 293.860 346.933,294.400 346.655,294.400 346.314 C 294.400 345.413,293.109 344.757,292.512 345.355 M40.093 347.000 C 40.017 348.477,40.395 348.780,42.200 348.691 C 44.011 348.601,44.091 348.522,42.649 348.242 C 41.686 348.055,40.738 347.294,40.542 346.551 C 40.289 345.594,40.159 345.725,40.093 347.000 M364.178 358.200 L 364.000 371.200 370.000 371.200 C 373.300 371.200,376.001 370.930,376.002 370.600 C 376.003 370.270,373.492 370.119,370.422 370.265 L 364.841 370.530 364.599 357.865 L 364.356 345.200 364.178 358.200 M32.867 346.600 C 33.050 346.710,34.210 347.692,35.444 348.781 C 37.125 350.264,37.553 350.410,37.150 349.359 C 36.643 348.037,34.413 346.400,33.119 346.400 C 32.797 346.400,32.683 346.490,32.867 346.600 M290.489 350.489 C 289.996 351.903,289.733 353.199,289.904 353.371 C 290.075 353.542,290.618 352.525,291.111 351.111 C 291.604 349.697,291.867 348.401,291.696 348.229 C 291.525 348.058,290.982 349.075,290.489 350.489 M305.315 348.615 C 305.106 348.953,306.434 349.114,308.267 348.972 C 313.651 348.557,314.306 348.192,309.847 348.093 C 307.563 348.042,305.523 348.277,305.315 348.615 M381.600 348.586 C 382.700 348.788,384.050 349.323,384.600 349.775 C 385.271 350.326,385.600 350.329,385.600 349.784 C 385.600 348.757,383.589 347.967,381.335 348.109 C 379.824 348.204,379.858 348.265,381.600 348.586 M263.500 351.200 C 264.202 353.797,266.619 359.248,266.930 358.937 C 267.111 358.755,266.341 356.670,265.218 354.304 C 264.094 351.937,263.321 350.540,263.500 351.200 M6.289 353.555 C 7.327 354.460,8.587 355.194,9.089 355.188 C 10.043 355.175,8.714 354.116,6.000 352.728 C 4.743 352.085,4.804 352.262,6.289 353.555 M204.928 355.293 C 204.371 356.184,202.765 357.413,201.358 358.025 C 199.951 358.637,199.284 359.151,199.877 359.169 C 201.439 359.214,205.475 356.680,205.994 355.328 C 206.687 353.522,206.047 353.501,204.928 355.293 M15.000 355.790 C 17.310 355.951,21.090 355.951,23.400 355.790 C 25.710 355.628,23.820 355.496,19.200 355.496 C 14.580 355.496,12.690 355.628,15.000 355.790 M38.602 358.800 C 38.611 360.560,38.774 361.186,38.966 360.191 C 39.157 359.196,39.150 357.756,38.950 356.991 C 38.749 356.226,38.593 357.040,38.602 358.800 M4.200 361.351 C 4.970 361.553,6.230 361.553,7.000 361.351 C 7.770 361.150,7.140 360.986,5.600 360.986 C 4.060 360.986,3.430 361.150,4.200 361.351 M22.400 361.600 L 18.000 362.139 22.153 362.270 C 24.437 362.341,26.528 362.040,26.800 361.600 C 27.072 361.160,27.183 360.859,27.047 360.930 C 26.911 361.002,24.820 361.303,22.400 361.600 M284.492 366.892 C 283.784 368.971,283.343 370.810,283.512 370.979 C 283.682 371.148,284.399 369.586,285.108 367.508 C 285.816 365.429,286.257 363.590,286.088 363.421 C 285.918 363.252,285.201 364.814,284.492 366.892 M240.651 366.401 C 239.695 368.067,239.623 368.588,240.387 368.294 C 241.296 367.945,242.678 364.811,242.153 364.287 C 242.052 364.186,241.377 365.137,240.651 366.401 M37.600 365.505 C 37.600 366.039,36.610 367.410,35.400 368.550 C 34.190 369.691,33.718 370.461,34.351 370.262 C 35.898 369.775,38.833 365.767,38.146 365.080 C 37.846 364.779,37.600 364.971,37.600 365.505 M294.463 365.342 C 294.391 366.418,298.165 369.602,299.508 369.597 C 299.999 369.595,299.270 368.905,297.889 368.063 C 296.507 367.220,295.186 366.052,294.952 365.466 C 294.681 364.788,294.503 364.743,294.463 365.342 M44.340 366.665 C 44.593 367.471,44.800 368.419,44.800 368.772 C 44.800 369.125,45.610 369.617,46.600 369.867 C 48.131 370.253,48.212 370.177,47.142 369.360 C 46.450 368.832,45.433 367.680,44.882 366.800 C 44.039 365.455,43.953 365.434,44.340 366.665 M210.454 366.236 C 210.375 367.746,214.086 371.203,215.764 371.182 C 216.702 371.170,216.334 370.736,214.699 369.930 C 213.324 369.251,211.818 367.909,211.353 366.948 C 210.889 365.987,210.484 365.666,210.454 366.236 M329.867 368.342 C 329.867 368.969,330.560 369.664,331.407 369.886 C 332.880 370.271,332.886 370.221,331.550 368.744 C 329.878 366.897,329.867 366.894,329.867 368.342 M88.000 370.600 C 88.000 370.930,90.610 371.151,93.800 371.091 C 99.908 370.976,99.242 370.618,92.200 370.231 C 89.889 370.104,87.999 370.270,88.000 370.600 M104.800 370.600 C 104.800 370.930,107.410 371.151,110.600 371.091 C 116.708 370.976,116.042 370.618,109.000 370.231 C 106.689 370.104,104.799 370.270,104.800 370.600 M11.800 370.965 C 12.790 371.155,14.410 371.155,15.400 370.965 C 16.390 370.774,15.580 370.618,13.600 370.618 C 11.620 370.618,10.810 370.774,11.800 370.965 M133.000 370.983 C 134.650 371.155,137.350 371.155,139.000 370.983 C 140.650 370.810,139.300 370.669,136.000 370.669 C 132.700 370.669,131.350 370.810,133.000 370.983 M174.221 370.987 C 176.103 371.156,178.983 371.153,180.621 370.982 C 182.260 370.810,180.720 370.671,177.200 370.674 C 173.680 370.677,172.340 370.818,174.221 370.987 M387.400 370.983 C 389.050 371.155,391.750 371.155,393.400 370.983 C 395.050 370.810,393.700 370.669,390.400 370.669 C 387.100 370.669,385.750 370.810,387.400 370.983 M265.400 371.765 C 266.390 371.955,268.010 371.955,269.000 371.765 C 269.990 371.574,269.180 371.418,267.200 371.418 C 265.220 371.418,264.410 371.574,265.400 371.765 M304.609 371.766 C 305.604 371.957,307.044 371.950,307.809 371.750 C 308.574 371.549,307.760 371.393,306.000 371.402 C 304.240 371.411,303.614 371.574,304.609 371.766 M322.579 377.434 L 320.758 380.400 322.779 378.155 C 323.890 376.921,324.800 375.571,324.800 375.155 C 324.800 373.979,324.530 374.256,322.579 377.434 " stroke="none" fill="#ffffff" fill-rule="evenodd"></path><path id="path4" d="M76.800 204.000 L 76.800 271.200 144.000 271.200 L 211.200 271.200 211.200 204.000 L 211.200 136.800 144.000 136.800 L 76.800 136.800 76.800 204.000 " stroke="none" fill="#9e1825" fill-rule="evenodd"></path><path id="path5" d="M347.200 118.420 L 347.200 131.241 359.800 131.020 L 372.400 130.800 372.620 118.200 L 372.841 105.600 360.020 105.600 L 347.200 105.600 347.200 118.420 " stroke="none" fill="#ec1c24" fill-rule="evenodd"></path><path id="path6" d="M139.200 52.400 L 139.200 88.800 175.200 88.800 L 211.200 88.800 211.200 52.400 L 211.200 16.000 175.200 16.000 L 139.200 16.000 139.200 52.400 " stroke="none" fill="#f7931e" fill-rule="evenodd"></path><path id="path7" d="M260.800 69.200 L 260.800 88.800 280.400 88.800 L 300.000 88.800 300.000 69.200 L 300.000 49.600 280.400 49.600 L 260.800 49.600 260.800 69.200 " stroke="none" fill="#d6df2e" fill-rule="evenodd"></path><path id="path8" d="M260.369 168.192 C 260.157 168.746,260.080 185.220,260.200 204.800 L 260.417 240.400 260.609 204.200 L 260.800 168.000 296.792 168.000 L 332.784 168.000 333.004 203.800 L 333.224 239.600 333.212 203.600 L 333.200 167.600 296.978 167.392 C 268.428 167.228,260.674 167.397,260.369 168.192 " stroke="none" fill="#7fd4f7" fill-rule="evenodd"></path><path id="path9" d="M260.800 204.000 L 260.800 240.000 296.800 240.000 L 332.800 240.000 332.800 204.000 L 332.800 168.000 296.800 168.000 L 260.800 168.000 260.800 204.000 " stroke="none" fill="#24aeef" fill-rule="evenodd"></path></g></svg>